<svg width="111" height="173" viewBox="0 0 111 173" fill="none" xmlns="http://www.w3.org/2000/svg">
<path fill-rule="evenodd" clip-rule="evenodd" d="M92.705 100.141C90.6741 104.141 88.3369 107.988 85.7115 111.639L92.2063 116.309C95.0729 112.324 97.6232 108.126 99.8384 103.762L92.705 100.141ZM101.068 74.6363C100.337 79.073 99.2638 83.4444 97.8653 87.7071L105.467 90.201C106.992 85.5515 108.164 80.7813 108.962 75.9369L101.068 74.6363ZM77.0338 121.913C73.8995 125.084 70.5034 128.022 66.8626 130.688L71.5886 137.142C75.5771 134.222 79.2946 131.006 82.7229 127.538L77.0338 121.913ZM101.247 47.8387C101.93 52.299 102.248 56.7785 102.216 61.2364L110.216 61.2932C110.251 56.4171 109.903 51.5134 109.155 46.6272L101.247 47.8387ZM55.429 137.723C51.4959 139.726 47.351 141.444 43.0083 142.842L45.4585 150.457C50.2097 148.928 54.7492 147.047 59.0598 144.851L55.429 137.723ZM0.618747 152.649L42.3924 172.354L38.5708 126.325L0.618747 152.649ZM93.0091 22.3655C95.0863 26.4271 96.7963 30.5755 98.1551 34.775L105.767 32.3123C104.277 27.7097 102.404 23.1666 100.132 18.7229L93.0091 22.3655ZM81.8038 5.58043C83.2757 7.3238 84.6624 9.0962 85.9656 10.8939L92.4427 6.19854C91.0232 4.24038 89.5149 2.31274 87.9165 0.419531L81.8038 5.58043Z" fill="#919191"/>
</svg>
