<svg width="148" height="148" viewBox="0 0 148 148" fill="none" xmlns="http://www.w3.org/2000/svg">
<path d="M43.1665 71.8334C43.1665 69.9478 43.1665 69.0049 43.7523 68.4192C44.3381 67.8334 45.2809 67.8334 47.1665 67.8334H100.833C102.719 67.8334 103.662 67.8334 104.247 68.4192C104.833 69.0049 104.833 69.9478 104.833 71.8334V121.5C104.833 125.271 104.833 127.157 103.662 128.328C102.49 129.5 100.604 129.5 96.8332 129.5H51.1665C47.3953 129.5 45.5096 129.5 44.3381 128.328C43.1665 127.157 43.1665 125.271 43.1665 121.5V71.8334Z" fill="#23B0C2" stroke="#222222" stroke-width="1.2"/>
<path d="M55.5 41C55.5 39.1144 55.5 38.1716 56.0858 37.5858C56.6716 37 57.6144 37 59.5 37H88.5C90.3856 37 91.3284 37 91.9142 37.5858C92.5 38.1716 92.5 39.1144 92.5 41V67.8333H55.5V41Z" fill="#2A4157" fill-opacity="0.24" stroke="#222222" stroke-width="1.2"/>
<path d="M74 67.8334V92.5" stroke="#222222" stroke-width="1.2"/>
<path d="M92.5 18.5L80.1667 37" stroke="#222222" stroke-width="1.2"/>
<path d="M55.5 18.5L67.8333 37" stroke="#222222" stroke-width="1.2"/>
<path d="M43.1665 98.6667H12.3332" stroke="#222222" stroke-width="1.2"/>
<path d="M135.667 98.6667H104.833" stroke="#222222" stroke-width="1.2"/>
<path d="M123.333 55.5V74.1667C123.333 76.9951 123.333 78.4093 122.455 79.288C121.576 80.1667 120.162 80.1667 117.333 80.1667H104.833" stroke="#222222" stroke-width="1.2"/>
<path d="M123.333 135.667V123.167C123.333 120.338 123.333 118.924 122.455 118.045C121.576 117.167 120.162 117.167 117.333 117.167H104.833" stroke="#222222" stroke-width="1.2"/>
<path d="M24.6665 55.5V74.1667C24.6665 76.9951 24.6665 78.4093 25.5452 79.288C26.4239 80.1667 27.8381 80.1667 30.6665 80.1667H43.1665" stroke="#222222" stroke-width="1.2"/>
<path d="M24.6665 135.667V123.167C24.6665 120.338 24.6665 118.924 25.5452 118.045C26.4239 117.167 27.8381 117.167 30.6665 117.167H43.1665" stroke="#222222" stroke-width="1.2"/>
</svg>
