<svg width="659" height="506" viewBox="0 0 659 506" fill="none" xmlns="http://www.w3.org/2000/svg">
<g clip-path="url(#clip0_112_9)">
<path opacity="0.1" d="M301.972 446.804C453.22 446.804 575.831 437.291 575.831 425.555C575.831 413.819 453.22 404.305 301.972 404.305C150.724 404.305 28.1138 413.819 28.1138 425.555C28.1138 437.291 150.724 446.804 301.972 446.804Z" fill="#23B0C2"/>
<g opacity="0.1">
<path d="M544.527 304.472C542.891 299.507 536.254 297.221 529.707 299.372C528.764 299.679 527.851 300.074 526.981 300.55C526.562 300.435 526.131 300.332 525.692 300.254C526.05 298.826 526.187 297.352 526.098 295.882C528.357 294.372 530.189 292.308 531.419 289.887C532.648 287.466 533.235 284.77 533.122 282.057C535.374 280.543 537.2 278.477 538.425 276.057C539.65 273.636 540.234 270.942 540.12 268.232C542.389 266.737 544.22 264.666 545.423 262.231C548.58 255.985 547.272 248.966 542.498 246.551C537.723 244.137 531.286 247.247 528.128 253.493C526.876 255.903 526.291 258.604 526.433 261.316C524.181 262.83 522.355 264.896 521.13 267.317C519.905 269.737 519.322 272.431 519.436 275.141C517.183 276.655 515.357 278.721 514.132 281.142C512.907 283.562 512.324 286.256 512.438 288.966C510.18 290.478 508.349 292.544 507.119 294.966C505.889 297.388 505.302 300.084 505.414 302.798C503.144 304.292 501.314 306.364 500.111 308.799C499.517 309.973 499.067 311.214 498.77 312.495C497.979 311.339 497.014 310.312 495.909 309.449C495.783 308.466 495.567 307.496 495.265 306.552C493.113 300.003 487.339 296.011 482.378 297.646C477.416 299.282 475.122 305.908 477.274 312.457C478.155 315.264 479.851 317.748 482.146 319.591C482.272 320.575 482.488 321.545 482.79 322.489C484.04 326.288 486.508 329.224 489.33 330.699C489.08 331.519 488.902 332.359 488.796 333.21C486.134 335.768 484.421 339.153 483.937 342.811C481.274 345.37 479.56 348.758 479.078 352.418C477.76 353.684 476.67 355.167 475.857 356.803C472.693 363.05 474.001 370.075 478.776 372.483C483.55 374.891 489.988 371.794 493.152 365.541C493.986 363.911 494.531 362.149 494.762 360.332C497.424 357.774 499.137 354.389 499.621 350.731C502.284 348.172 503.998 344.784 504.48 341.124C507.123 338.56 508.816 335.175 509.28 331.523C511.953 328.965 513.672 325.571 514.152 321.903C514.971 321.126 515.704 320.263 516.336 319.327C518.969 319.867 521.698 319.696 524.243 318.831C525.186 318.524 526.098 318.13 526.968 317.653C529.818 318.404 532.827 318.297 535.616 317.344C542.143 315.213 546.158 309.443 544.527 304.472Z" fill="#3F3D56"/>
<g opacity="0.1">
<path d="M532.973 284.897C532.297 285.561 531.554 286.155 530.757 286.667C530.858 288.506 530.615 290.346 530.042 292.096C530.549 291.395 531.001 290.657 531.395 289.887C532.194 288.322 532.727 286.636 532.973 284.897Z" fill="black"/>
<path d="M539.971 271.072C539.295 271.736 538.552 272.33 537.755 272.842C537.856 274.681 537.613 276.521 537.04 278.271C537.548 277.569 538 276.828 538.393 276.056C539.189 274.492 539.722 272.808 539.971 271.072Z" fill="black"/>
<path d="M524.1 265.927C524.041 264.979 524.078 264.028 524.21 263.087C522.959 264.319 521.918 265.749 521.13 267.318C520.741 268.091 520.413 268.894 520.15 269.719C521.217 268.218 522.557 266.932 524.1 265.927Z" fill="black"/>
<path d="M479.684 349.591C480.247 348.807 480.884 348.079 481.585 347.415C481.695 346.541 481.882 345.679 482.146 344.839C481.585 345.591 481.092 346.391 480.67 347.228C480.28 347.989 479.951 348.779 479.684 349.591Z" fill="black"/>
<path d="M484.542 339.997C485.105 339.213 485.742 338.484 486.443 337.821C486.549 336.97 486.728 336.129 486.978 335.309C486.443 336.04 485.969 336.813 485.561 337.621C485.162 338.386 484.822 339.181 484.542 339.997Z" fill="black"/>
<path d="M525.969 298.722C525.297 299.386 524.556 299.977 523.759 300.486C523.847 301.956 523.71 303.43 523.353 304.858C523.788 304.933 524.218 305.032 524.642 305.154C525.512 304.678 526.424 304.283 527.367 303.976C533.927 301.825 540.558 304.111 542.188 309.076C542.593 310.324 542.664 311.656 542.394 312.939C544.553 310.402 545.449 307.312 544.521 304.478C542.884 299.514 536.247 297.228 529.7 299.378C528.757 299.686 527.844 300.08 526.974 300.557C526.556 300.441 526.124 300.338 525.686 300.261C525.808 299.745 525.898 299.237 525.969 298.722Z" fill="black"/>
<path d="M477.287 354.414C476.726 355.166 476.233 355.966 475.811 356.803C475.42 357.58 475.088 358.385 474.819 359.212C475.394 358.424 476.041 357.691 476.752 357.022C476.851 356.139 477.03 355.266 477.287 354.414Z" fill="black"/>
<path d="M517.071 279.752C517.012 278.804 517.048 277.852 517.18 276.912C515.929 278.144 514.888 279.574 514.1 281.143C513.711 281.916 513.384 282.719 513.121 283.544C514.187 282.043 515.527 280.757 517.071 279.752Z" fill="black"/>
<path d="M506.96 336.133C506.833 337.091 506.617 338.036 506.316 338.954C506.82 338.25 507.27 337.51 507.663 336.739C508.085 335.911 508.436 335.05 508.713 334.163C508.185 334.868 507.599 335.527 506.96 336.133Z" fill="black"/>
<path d="M497.243 355.335C497.116 356.293 496.901 357.237 496.599 358.156C497.107 357.454 497.56 356.713 497.952 355.94C498.372 355.112 498.723 354.25 499.002 353.365C498.474 354.071 497.886 354.731 497.243 355.335Z" fill="black"/>
<path d="M502.101 345.728C501.975 346.686 501.759 347.63 501.457 348.548C501.971 347.858 502.432 347.131 502.836 346.372C503.258 345.545 503.61 344.683 503.886 343.796C503.347 344.489 502.75 345.135 502.101 345.728Z" fill="black"/>
<path d="M511.819 326.533C511.692 327.489 511.476 328.431 511.174 329.347C511.68 328.646 512.13 327.908 512.521 327.138C512.948 326.296 513.302 325.419 513.578 324.517C513.053 325.24 512.464 325.915 511.819 326.533Z" fill="black"/>
<path d="M480.006 302.25C484.98 300.621 490.754 304.607 492.893 311.156C493.195 312.103 493.411 313.074 493.538 314.06C494.642 314.922 495.607 315.95 496.399 317.106C496.695 315.822 497.145 314.579 497.739 313.403C497.965 312.965 498.209 312.547 498.461 312.115C497.729 311.104 496.862 310.198 495.883 309.424C495.757 308.44 495.541 307.47 495.239 306.526C493.087 299.977 487.313 295.985 482.351 297.621C479.516 298.548 477.557 301.104 476.797 304.337C477.669 303.377 478.774 302.658 480.006 302.25Z" fill="black"/>
<path d="M503.075 307.402C503.018 306.456 503.056 305.507 503.191 304.568C501.935 305.799 500.892 307.228 500.104 308.799C499.714 309.57 499.386 310.371 499.125 311.194C500.194 309.696 501.533 308.41 503.075 307.402Z" fill="black"/>
<path d="M510.073 293.57C510.016 292.624 510.055 291.675 510.189 290.737C508.932 291.964 507.889 293.391 507.102 294.961C506.713 295.735 506.385 296.538 506.123 297.363C507.189 295.862 508.529 294.575 510.073 293.57Z" fill="black"/>
<path d="M492.385 364.936C492.258 365.896 492.042 366.843 491.74 367.763C492.799 366.297 493.611 364.668 494.144 362.94C493.617 363.655 493.028 364.323 492.385 364.936Z" fill="black"/>
</g>
<path d="M554.077 240.582C556.348 239.089 558.179 237.017 559.38 234.581C562.544 228.335 561.236 221.309 556.461 218.895C551.686 216.48 545.249 219.59 542.085 225.843C540.832 228.26 540.249 230.968 540.397 233.686C538.144 235.2 536.319 237.266 535.093 239.686C533.868 242.107 533.285 244.801 533.399 247.511C531.126 249.002 529.295 251.074 528.096 253.512C527.708 254.277 527.382 255.071 527.123 255.888C528.805 253.454 531.244 251.643 534.062 250.737C534.383 251.729 534.898 252.647 535.576 253.439C536.255 254.231 537.083 254.88 538.015 255.35C538.946 255.819 539.961 256.099 541.002 256.174C542.042 256.249 543.087 256.117 544.076 255.785C545.028 258.585 545.028 261.62 544.076 264.42C544.579 263.726 545.027 262.994 545.416 262.231C546.666 259.82 547.249 257.119 547.105 254.407C549.359 252.896 551.187 250.83 552.413 248.409C553.638 245.988 554.22 243.293 554.102 240.582H554.077Z" fill="#3F3D56"/>
<path d="M630.989 151.953C632.932 151.047 634.809 150.008 636.608 148.842L615.776 133.633L640.262 146.235C645.215 142.302 649.314 137.401 652.305 131.83C655.297 126.26 657.119 120.138 657.66 113.839L616.046 114.264L657.75 107.297C657.319 100.992 655.602 94.8413 652.706 89.2234C649.809 83.6054 645.794 78.6386 640.907 74.6279C636.019 70.6173 630.363 67.6474 624.285 65.9009C618.207 64.1544 611.836 63.668 605.563 64.4717C599.291 65.2754 593.248 67.3521 587.808 70.5743C582.368 73.7966 577.644 78.0963 573.927 83.2093C570.21 88.3223 567.579 94.1408 566.194 100.307C564.809 106.474 564.701 112.858 565.875 119.068C562.85 120.473 559.986 122.2 557.331 124.219L579.079 154.438L552.969 127.986C547.458 133.393 543.384 140.088 541.115 147.464C538.845 154.841 538.452 162.667 539.972 170.234C532.084 173.913 525.391 179.735 520.658 187.035C515.925 194.335 513.342 202.818 513.205 211.515C513.068 220.212 515.383 228.773 519.883 236.218C524.384 243.663 530.89 249.693 538.658 253.618C546.426 257.543 555.142 259.206 563.81 258.415C572.478 257.625 580.749 254.414 587.678 249.149C594.607 243.883 599.913 236.777 602.991 228.64C606.07 220.504 606.795 211.667 605.086 203.138C614.524 198.748 622.211 191.313 626.909 182.029C631.608 172.745 633.045 162.152 630.989 151.953Z" fill="#23B0C2"/>
<path opacity="0.1" d="M544.076 140.156C539.362 149.435 537.921 160.033 539.984 170.234C532.097 173.913 525.404 179.735 520.671 187.035C515.938 194.334 513.355 202.818 513.218 211.515C513.081 220.212 515.395 228.773 519.896 236.218C524.397 243.663 530.903 249.693 538.671 253.618C546.438 257.543 555.154 259.206 563.823 258.415C572.491 257.625 580.762 254.414 587.691 249.149C594.619 243.883 599.926 236.777 603.004 228.64C606.082 220.504 606.808 211.667 605.098 203.138C614.203 198.914 546.409 135.513 544.076 140.156Z" fill="black"/>
<path d="M596.361 73.0272C600.165 73.0272 603.249 69.9453 603.249 66.1437C603.249 62.342 600.165 59.2601 596.361 59.2601C592.556 59.2601 589.472 62.342 589.472 66.1437C589.472 69.9453 592.556 73.0272 596.361 73.0272Z" fill="#23B0C2"/>
<path d="M636.595 77.4445C640.4 77.4445 643.484 74.3626 643.484 70.561C643.484 66.7593 640.4 63.6774 636.595 63.6774C632.791 63.6774 629.707 66.7593 629.707 70.561C629.707 74.3626 632.791 77.4445 636.595 77.4445Z" fill="#23B0C2"/>
<path d="M652.112 139.3C655.916 139.3 659 136.218 659 132.416C659 128.614 655.916 125.532 652.112 125.532C648.308 125.532 645.224 128.614 645.224 132.416C645.224 136.218 648.308 139.3 652.112 139.3Z" fill="#23B0C2"/>
<path d="M631.17 170.189C634.974 170.189 638.058 167.107 638.058 163.305C638.058 159.503 634.974 156.422 631.17 156.422C627.365 156.422 624.281 159.503 624.281 163.305C624.281 167.107 627.365 170.189 631.17 170.189Z" fill="#23B0C2"/>
<path d="M602.559 234.342C606.364 234.342 609.448 231.261 609.448 227.459C609.448 223.657 606.364 220.575 602.559 220.575C598.755 220.575 595.671 223.657 595.671 227.459C595.671 231.261 598.755 234.342 602.559 234.342Z" fill="#23B0C2"/>
<path opacity="0.1" d="M602.559 234.342C606.364 234.342 609.448 231.261 609.448 227.459C609.448 223.657 606.364 220.575 602.559 220.575C598.755 220.575 595.671 223.657 595.671 227.459C595.671 231.261 598.755 234.342 602.559 234.342Z" fill="black"/>
<path d="M538.947 161.682C542.751 161.682 545.835 158.6 545.835 154.799C545.835 150.997 542.751 147.915 538.947 147.915C535.143 147.915 532.059 150.997 532.059 154.799C532.059 158.6 535.143 161.682 538.947 161.682Z" fill="#23B0C2"/>
<path opacity="0.1" d="M538.947 161.682C542.751 161.682 545.835 158.6 545.835 154.799C545.835 150.997 542.751 147.915 538.947 147.915C535.143 147.915 532.059 150.997 532.059 154.799C532.059 158.6 535.143 161.682 538.947 161.682Z" fill="black"/>
<path opacity="0.1" d="M531.601 268.019C527.02 265.708 525.634 259.159 528.308 253.119C528.167 253.364 528.031 253.615 527.902 253.879C524.739 260.125 526.047 267.144 530.821 269.558C535.596 271.973 542.034 268.863 545.191 262.617C545.326 262.359 545.442 262.095 545.558 261.838C542.278 267.575 536.176 270.338 531.601 268.019Z" fill="black"/>
<path opacity="0.1" d="M524.796 281.465C520.221 279.153 518.83 272.604 521.51 266.558C521.368 266.809 521.227 267.06 521.098 267.318C517.934 273.564 519.242 280.589 524.017 282.997C528.792 285.405 535.229 282.308 538.393 276.056C538.522 275.798 538.644 275.54 538.76 275.276C535.474 281.014 529.378 283.776 524.796 281.465Z" fill="black"/>
<path opacity="0.1" d="M517.992 294.903C513.417 292.592 512.025 286.043 514.706 280.003C514.564 280.248 514.422 280.499 514.294 280.763C511.13 287.009 512.444 294.028 517.219 296.442C521.994 298.857 528.425 295.747 531.588 289.501C531.717 289.243 531.84 288.979 531.956 288.722C528.676 294.459 522.574 297.221 517.992 294.903Z" fill="black"/>
<path opacity="0.1" d="M511.213 308.38C506.632 306.069 505.246 299.52 507.92 293.48C507.779 293.725 507.643 293.976 507.508 294.234C504.351 300.48 505.659 307.505 510.433 309.919C515.208 312.334 521.646 309.224 524.803 302.971C524.938 302.714 525.054 302.456 525.17 302.192C521.871 307.898 515.769 310.66 511.213 308.38Z" fill="black"/>
<path opacity="0.1" d="M504.389 321.787C499.808 319.475 498.422 312.927 501.097 306.887C500.955 307.131 500.819 307.382 500.691 307.646C497.527 313.892 498.835 320.911 503.61 323.326C508.384 325.741 514.822 322.63 517.986 316.384C518.114 316.127 518.237 315.863 518.353 315.605C515.079 321.343 508.964 324.105 504.389 321.787Z" fill="black"/>
<path opacity="0.1" d="M497.585 335.232C493.01 332.92 491.618 326.372 494.298 320.332C494.157 320.576 494.015 320.827 493.886 321.085C490.722 327.331 492.03 334.356 496.811 336.771C501.593 339.186 507.991 336.069 511.213 329.823C511.342 329.565 511.465 329.308 511.581 329.044C508.262 334.781 502.192 337.544 497.585 335.232Z" fill="black"/>
<path opacity="0.1" d="M490.78 348.671C486.205 346.359 484.813 339.81 487.494 333.77C487.352 334.021 487.217 334.266 487.081 334.53C483.924 340.776 485.232 347.795 490.007 350.21C494.782 352.624 501.219 349.514 504.376 343.268C504.512 343.011 504.628 342.747 504.744 342.489C501.464 348.226 495.361 350.989 490.78 348.671Z" fill="black"/>
<path opacity="0.1" d="M483.982 362.116C479.401 359.804 478.015 353.255 480.689 347.215C480.548 347.46 480.412 347.711 480.283 347.969C477.119 354.215 478.428 361.24 483.202 363.655C487.977 366.069 494.414 362.959 497.578 356.707C497.707 356.449 497.823 356.192 497.939 355.928C494.659 361.665 488.557 364.402 483.982 362.116Z" fill="black"/>
<path opacity="0.1" d="M479.51 370.95C474.935 368.632 473.543 362.09 476.224 356.044C476.082 356.295 475.94 356.546 475.811 356.803C472.647 363.049 473.955 370.075 478.73 372.483C483.505 374.891 489.942 371.794 493.106 365.541C493.235 365.284 493.357 365.026 493.473 364.762C490.187 370.5 484.085 373.262 479.51 370.95Z" fill="black"/>
<path d="M602.45 311.124C603.16 309.089 603.593 306.969 603.739 304.82C604.212 304.819 604.68 304.72 605.113 304.53C605.547 304.34 605.936 304.063 606.257 303.715C606.579 303.368 606.825 302.958 606.981 302.512C607.136 302.065 607.198 301.591 607.162 301.12C607.126 300.648 606.993 300.189 606.771 299.771C606.55 299.353 606.244 298.985 605.874 298.691C605.504 298.396 605.077 298.181 604.619 298.059C604.162 297.937 603.685 297.911 603.217 297.981C602.451 294.496 600.918 291.225 598.728 288.406C596.539 285.587 593.749 283.29 590.561 281.684C590.973 280.869 591.044 279.924 590.759 279.057C590.474 278.19 589.856 277.472 589.04 277.06C588.225 276.649 587.28 276.578 586.412 276.863C585.545 277.147 584.826 277.765 584.414 278.58C584.265 278.869 584.16 279.18 584.105 279.501C580.324 278.797 576.429 279.005 572.745 280.108C569.061 281.211 565.694 283.178 562.924 285.843C560.832 285.505 558.705 285.442 556.596 285.657L553.806 298.348L553.639 286.114C550.436 286.815 547.411 288.162 544.747 290.072C542.083 291.981 539.836 294.414 538.145 297.22C536.454 300.027 535.353 303.148 534.91 306.395C534.467 309.641 534.691 312.943 535.569 316.1C536.446 319.256 537.959 322.201 540.013 324.754C542.068 327.306 544.623 329.413 547.52 330.946C550.418 332.479 553.597 333.405 556.865 333.668C560.133 333.931 563.42 333.526 566.526 332.476C566.858 333.075 567.363 333.56 567.976 333.867C568.607 334.187 569.321 334.305 570.022 334.205C570.723 334.105 571.375 333.791 571.891 333.307C572.407 332.822 572.76 332.191 572.904 331.498C573.047 330.806 572.973 330.086 572.693 329.437C573.792 328.682 574.826 327.838 575.786 326.913C580.816 327.73 585.976 326.935 590.527 324.641C595.077 322.347 598.784 318.672 601.116 314.144L588.132 311.961L602.45 311.124Z" fill="#23B0C2"/>
<g opacity="0.1">
<path d="M582.39 317.286C577.596 310.963 574.658 303.474 571.275 296.288C569.917 293.338 568.396 290.466 566.719 287.685L564.181 284.729C563.755 285.09 563.33 285.463 562.892 285.856C560.8 285.518 558.672 285.455 556.564 285.669L553.774 298.361L553.606 286.127C550.404 286.828 547.378 288.175 544.714 290.084C542.05 291.994 539.804 294.426 538.113 297.233C536.422 300.04 535.321 303.161 534.878 306.407C534.435 309.653 534.659 312.956 535.536 316.112C536.414 319.269 537.926 322.214 539.981 324.766C542.036 327.319 544.59 329.426 547.488 330.959C550.385 332.492 553.565 333.418 556.833 333.681C560.101 333.944 563.388 333.538 566.494 332.489C566.826 333.088 567.331 333.573 567.944 333.88C568.575 334.2 569.289 334.318 569.99 334.218C570.69 334.118 571.343 333.804 571.859 333.32C572.374 332.835 572.728 332.204 572.872 331.511C573.015 330.819 572.941 330.099 572.66 329.45C573.76 328.695 574.794 327.851 575.753 326.925C580.679 327.722 585.73 326.975 590.213 324.788C587.22 322.722 584.579 320.189 582.39 317.286Z" fill="black"/>
</g>
<path d="M497.494 290.113C497.76 289.588 497.887 289.003 497.862 288.416C497.837 287.828 497.662 287.256 497.353 286.756C497.044 286.255 496.611 285.842 496.097 285.556C495.582 285.27 495.003 285.12 494.414 285.122C493.438 279.947 490.789 275.235 486.875 271.709C487.506 269.251 487.745 266.708 487.584 264.175L474.922 262.018L487.217 261.245C486.996 260.092 486.692 258.956 486.308 257.846C486.787 257.516 487.176 257.074 487.442 256.558C487.752 255.942 487.871 255.248 487.782 254.565C487.693 253.881 487.401 253.24 486.944 252.724C486.487 252.208 485.885 251.841 485.217 251.671C484.549 251.5 483.845 251.534 483.196 251.767C479.94 247.169 475.175 243.856 469.728 242.405C464.282 240.953 458.499 241.454 453.384 243.82C448.268 246.186 444.144 250.269 441.728 255.358C439.312 260.447 438.757 266.221 440.158 271.677C439.413 271.991 438.804 272.563 438.444 273.287C438.128 273.91 438.01 274.615 438.105 275.308C438.2 276.001 438.504 276.648 438.976 277.163C439.449 277.679 440.067 278.038 440.749 278.193C441.431 278.349 442.144 278.293 442.794 278.033C444.03 280.107 445.57 281.984 447.362 283.602C446.057 288.688 446.451 294.061 448.484 298.902L465.463 294.498L450.32 302.456C452.997 306.708 456.938 310.017 461.59 311.921C466.241 313.825 471.372 314.228 476.265 313.074C481.158 311.921 485.567 309.268 488.877 305.487C492.186 301.706 494.231 296.985 494.724 291.986C495.307 291.936 495.868 291.737 496.353 291.409C496.838 291.081 497.231 290.635 497.494 290.113Z" fill="#23B0C2"/>
<path opacity="0.1" d="M497.495 290.113C497.76 289.588 497.887 289.003 497.862 288.416C497.837 287.828 497.662 287.256 497.353 286.756C497.044 286.255 496.611 285.842 496.097 285.556C495.582 285.27 495.003 285.12 494.414 285.122C493.438 279.947 490.789 275.235 486.875 271.709C486.978 271.304 487.069 270.904 487.146 270.499C486.696 270.824 486.28 271.193 485.902 271.6C483.615 274.105 482.442 277.472 480.18 280.003C477.513 282.991 473.517 284.549 469.529 284.968C465.54 285.386 461.526 284.774 457.589 284.008C454.328 283.364 451.022 282.617 447.717 282.933C447.395 282.933 447.072 283.004 446.776 283.055C446.969 283.242 447.163 283.429 447.362 283.609C446.057 288.695 446.451 294.067 448.484 298.908L465.463 294.498L450.32 302.456C452.997 306.708 456.938 310.017 461.59 311.921C466.242 313.825 471.373 314.228 476.265 313.074C481.158 311.92 485.567 309.268 488.877 305.487C492.186 301.706 494.231 296.985 494.724 291.986C495.307 291.936 495.868 291.737 496.353 291.409C496.838 291.081 497.231 290.635 497.495 290.113Z" fill="black"/>
</g>
<g opacity="0.1">
<path d="M57.6651 329.198C58.4899 326.694 61.8342 325.541 65.1333 326.623C65.6079 326.778 66.0673 326.976 66.5059 327.215C66.7185 327.157 66.9376 327.106 67.1502 327.067C66.9692 326.348 66.8997 325.605 66.944 324.865C65.8115 324.099 64.8933 323.058 64.2765 321.838C63.6596 320.619 63.3646 319.263 63.4193 317.898C62.2769 317.146 61.3559 316.104 60.7516 314.878C60.1219 313.663 59.8262 312.303 59.8946 310.937C58.7529 310.182 57.8323 309.137 57.2269 307.91C55.6417 304.768 56.2861 301.233 58.7025 300.009C61.1189 298.786 64.3537 300.364 65.9453 303.506C66.5739 304.723 66.8674 306.085 66.7958 307.453C67.9314 308.214 68.852 309.254 69.4693 310.473C70.0866 311.692 70.3797 313.049 70.3205 314.414C71.4557 315.177 72.376 316.218 72.9931 317.438C73.6103 318.658 73.9037 320.015 73.8453 321.381C74.9808 322.142 75.9015 323.182 76.5188 324.401C77.136 325.62 77.4292 326.977 77.37 328.342C78.514 329.096 79.4369 330.141 80.0441 331.368C80.3339 331.962 80.5502 332.59 80.6885 333.236C81.0855 332.652 81.5701 332.133 82.1255 331.697C82.1917 331.2 82.3038 330.711 82.4605 330.235C83.5495 326.938 86.4556 324.929 88.9623 325.728C91.4689 326.526 92.6158 329.894 91.5397 333.191C91.095 334.606 90.2407 335.859 89.0847 336.79C89.0177 337.285 88.9056 337.772 88.7496 338.245C88.2207 339.993 87.0425 341.472 85.4569 342.379C85.5812 342.801 85.6717 343.232 85.7275 343.667C86.3928 344.305 86.9441 345.052 87.3578 345.876C87.7794 346.698 88.0541 347.587 88.1697 348.503C88.8374 349.141 89.391 349.888 89.8064 350.712C90.2271 351.534 90.5018 352.423 90.6183 353.339C91.2876 353.978 91.8414 354.727 92.255 355.554C93.8466 358.696 93.1893 362.238 90.7858 363.449C88.3823 364.659 85.1347 363.101 83.5431 359.952C83.1234 359.129 82.8487 358.241 82.7312 357.325C81.3886 356.038 80.525 354.332 80.2826 352.489C78.94 351.202 78.0764 349.496 77.8339 347.653C77.1666 347.015 76.6131 346.268 76.1972 345.445C75.7805 344.621 75.506 343.732 75.3853 342.817C74.72 342.179 74.1687 341.432 73.7551 340.609C73.3335 339.787 73.0587 338.898 72.9431 337.981C72.5283 337.595 72.1586 337.163 71.8413 336.694C70.5155 336.965 69.1416 336.88 67.859 336.449C67.3827 336.29 66.9213 336.09 66.4801 335.85C65.047 336.23 63.533 336.177 62.1306 335.696C58.8636 334.607 56.8467 331.703 57.6651 329.198Z" fill="#3F3D56"/>
<g opacity="0.1">
<path d="M63.4834 319.327C63.825 319.664 64.2008 319.964 64.6046 320.222C64.55 321.147 64.6725 322.074 64.9655 322.952C64.7065 322.601 64.478 322.228 64.2824 321.838C63.8794 321.051 63.6094 320.203 63.4834 319.327Z" fill="black"/>
<path d="M59.9585 312.373C60.3019 312.705 60.6775 313.003 61.0797 313.261C61.0256 314.188 61.148 315.117 61.4406 315.998C60.66 314.927 60.1514 313.683 59.9585 312.373Z" fill="black"/>
<path d="M67.9681 309.778C67.9987 309.301 67.9814 308.822 67.9165 308.348C68.5464 308.97 69.071 309.69 69.4694 310.48C69.664 310.87 69.8277 311.275 69.9592 311.69C69.4222 310.933 68.7466 310.284 67.9681 309.778Z" fill="black"/>
<path d="M90.328 351.929C90.0463 351.534 89.7269 351.167 89.3743 350.834C89.3155 350.398 89.2207 349.967 89.0908 349.546C89.3705 349.924 89.6183 350.325 89.8318 350.744C90.0274 351.126 90.1932 351.522 90.328 351.929Z" fill="black"/>
<path d="M87.86 347.093C87.5783 346.698 87.2589 346.332 86.9064 345.998C86.8538 345.562 86.7632 345.131 86.6357 344.71C87.1666 345.429 87.5758 346.229 87.8472 347.08L87.86 347.093Z" fill="black"/>
<path d="M67.0146 326.307C67.3528 326.641 67.7266 326.937 68.1293 327.189C68.0811 327.93 68.1507 328.673 68.3355 329.392C68.1183 329.43 67.9033 329.479 67.6911 329.54C67.2498 329.302 66.7883 329.104 66.3122 328.947C63.013 327.866 59.6687 329.018 58.8503 331.523C58.6453 332.146 58.6075 332.812 58.7408 333.455C58.2107 332.897 57.8336 332.213 57.6462 331.467C57.4588 330.721 57.4674 329.94 57.6711 329.198C58.4959 326.694 61.8402 325.541 65.1394 326.623C65.614 326.778 66.0734 326.976 66.5119 327.215C66.7246 327.157 66.9437 327.106 67.1563 327.067C67.0943 326.817 67.047 326.563 67.0146 326.307Z" fill="black"/>
<path d="M91.5396 354.356C91.8206 354.736 92.0686 355.139 92.2806 355.561C92.4773 355.951 92.6432 356.355 92.7767 356.771C92.4951 356.374 92.1757 356.006 91.8231 355.67C91.7657 355.225 91.6708 354.786 91.5396 354.356Z" fill="black"/>
<path d="M71.493 316.751C71.5237 316.274 71.5065 315.795 71.4414 315.322C72.0729 315.942 72.5975 316.662 72.9943 317.453C73.1889 317.841 73.3526 318.244 73.4841 318.657C72.9469 317.902 72.2713 317.255 71.493 316.751Z" fill="black"/>
<path d="M76.59 345.148C76.6503 345.629 76.756 346.104 76.9058 346.565C76.3688 345.829 75.9593 345.009 75.6943 344.137C75.9621 344.501 76.2618 344.839 76.59 345.148Z" fill="black"/>
<path d="M81.4805 354.82C81.5455 355.301 81.6534 355.775 81.8027 356.237C81.5438 355.885 81.3153 355.513 81.1197 355.123C80.9078 354.709 80.731 354.278 80.5913 353.835C80.8612 354.186 81.1585 354.516 81.4805 354.82Z" fill="black"/>
<path d="M79.0387 349.984C79.0991 350.465 79.2048 350.94 79.3545 351.401C79.0979 351.048 78.8695 350.676 78.6715 350.287C78.4587 349.874 78.282 349.443 78.1431 348.999C78.412 349.353 78.7117 349.683 79.0387 349.984Z" fill="black"/>
<path d="M74.1413 340.306C74.2009 340.789 74.3066 341.266 74.457 341.729C74.2127 341.376 73.9972 341.003 73.8127 340.615C73.5966 340.202 73.4177 339.772 73.2778 339.327C73.5353 339.679 73.8243 340.007 74.1413 340.306Z" fill="black"/>
<path d="M90.1667 328.078C87.66 327.254 84.7539 329.263 83.6714 332.585C83.5147 333.061 83.4025 333.551 83.3363 334.047C82.779 334.481 82.2921 334.998 81.8929 335.58C81.7433 334.932 81.5162 334.305 81.2163 333.712C81.1068 333.493 80.9843 333.281 80.8555 333.068C81.2212 332.561 81.6548 332.106 82.1442 331.716C82.2104 331.22 82.3226 330.73 82.4793 330.254C83.5683 326.958 86.4744 324.949 88.981 325.747C89.6998 326.023 90.335 326.48 90.825 327.073C91.3151 327.666 91.6432 328.376 91.7776 329.134C91.3397 328.65 90.7851 328.287 90.1667 328.078Z" fill="black"/>
<path d="M78.5423 330.673C78.5729 330.196 78.5557 329.717 78.4907 329.244C79.1222 329.864 79.6469 330.584 80.0437 331.375C80.2382 331.765 80.4019 332.17 80.5334 332.585C79.9981 331.827 79.3222 331.177 78.5423 330.673Z" fill="black"/>
<path d="M75.0179 323.706C75.0484 323.229 75.0312 322.75 74.9663 322.276C75.5948 322.899 76.1191 323.619 76.5192 324.408C76.7138 324.798 76.8775 325.203 77.009 325.618C76.472 324.861 75.7964 324.212 75.0179 323.706Z" fill="black"/>
<path d="M83.9293 359.656C83.9911 360.139 84.099 360.616 84.2515 361.079C83.9939 360.725 83.7655 360.35 83.5684 359.958C83.3565 359.545 83.1797 359.114 83.04 358.671C83.3099 359.022 83.6072 359.352 83.9293 359.656Z" fill="black"/>
</g>
<path d="M52.8517 297.009C51.7092 296.257 50.7883 295.215 50.184 293.989C48.5924 290.84 49.2496 287.305 51.6531 286.088C54.0566 284.871 57.3043 286.436 58.8959 289.584C59.5254 290.799 59.8191 292.159 59.7465 293.525C60.8816 294.288 61.8019 295.329 62.419 296.549C63.0362 297.769 63.3296 299.127 63.2712 300.492C64.4143 301.245 65.3371 302.287 65.9453 303.512C66.1387 303.899 66.3024 304.299 66.435 304.71C65.5815 303.493 64.3526 302.588 62.9361 302.134C62.7783 302.637 62.5218 303.104 62.1815 303.507C61.8412 303.91 61.424 304.24 60.9543 304.48C60.4845 304.72 59.9716 304.864 59.4456 304.903C58.9196 304.943 58.391 304.877 57.8907 304.71C57.4129 306.12 57.4129 307.647 57.8907 309.057C57.6486 308.706 57.4332 308.338 57.2463 307.955C56.6166 306.741 56.3208 305.381 56.3893 304.015C55.2554 303.251 54.3362 302.209 53.7192 300.99C53.1022 299.77 52.808 298.413 52.8646 297.047L52.8517 297.009Z" fill="#3F3D56"/>
<path d="M14.1115 252.359C13.1341 251.903 12.189 251.38 11.2827 250.795L21.7731 243.132L9.43983 249.475C6.94618 247.493 4.88337 245.024 3.37764 242.218C1.87191 239.413 0.95492 236.33 0.682801 233.158L21.6507 233.376L0.637695 229.861C0.818626 226.657 1.65775 223.525 3.10278 220.66C4.54782 217.795 6.56781 215.258 9.03689 213.207C11.506 211.156 14.3713 209.635 17.4542 208.739C20.5372 207.843 23.7718 207.591 26.9564 207.999C30.1411 208.407 33.2077 209.465 35.965 211.109C38.7223 212.753 41.1114 214.947 42.9834 217.553C44.8553 220.16 46.17 223.124 46.8456 226.261C47.5212 229.397 47.5431 232.639 46.9101 235.785C48.4322 236.488 49.8751 237.352 51.2145 238.36L40.2602 253.583L53.4118 240.266C56.187 242.991 58.239 246.363 59.3821 250.079C60.5251 253.795 60.7233 257.736 59.9586 261.548C63.9371 263.4 67.3137 266.333 69.7024 270.012C72.0912 273.692 73.3955 277.968 73.4664 282.354C73.5373 286.739 72.3718 291.055 70.1032 294.81C67.8346 298.564 64.5545 301.605 60.6379 303.584C56.7214 305.563 52.3266 306.401 47.956 306.002C43.5854 305.602 39.4154 303.982 35.923 301.326C32.4306 298.67 29.7567 295.085 28.207 290.982C26.6574 286.878 26.2946 282.422 27.1601 278.123C22.4116 275.911 18.5441 272.17 16.1779 267.499C13.8117 262.829 13.084 257.499 14.1115 252.366V252.359Z" fill="#23B0C2"/>
<path opacity="0.1" d="M57.897 246.422C60.2735 251.096 61.0001 256.435 59.959 261.574C63.9374 263.426 67.314 266.359 69.7028 270.038C72.0915 273.717 73.3958 277.994 73.4667 282.379C73.5376 286.764 72.3721 291.081 70.1035 294.835C67.8349 298.59 64.5548 301.631 60.6382 303.61C56.7217 305.589 52.3269 306.427 47.9563 306.027C43.5857 305.628 39.4157 304.008 35.9233 301.352C32.4309 298.695 29.757 295.111 28.2074 291.007C26.6577 286.904 26.2949 282.448 27.1604 278.148C22.566 276.017 56.7178 244.085 57.897 246.422Z" fill="black"/>
<path d="M31.5547 212.604C33.4729 212.604 35.0279 211.05 35.0279 209.133C35.0279 207.216 33.4729 205.662 31.5547 205.662C29.6365 205.662 28.0815 207.216 28.0815 209.133C28.0815 211.05 29.6365 212.604 31.5547 212.604Z" fill="#23B0C2"/>
<path d="M11.2827 214.832C13.2009 214.832 14.7559 213.278 14.7559 211.361C14.7559 209.444 13.2009 207.89 11.2827 207.89C9.36456 207.89 7.80957 209.444 7.80957 211.361C7.80957 213.278 9.36456 214.832 11.2827 214.832Z" fill="#23B0C2"/>
<path d="M3.47317 245.991C5.39135 245.991 6.94634 244.437 6.94634 242.52C6.94634 240.603 5.39135 239.049 3.47317 239.049C1.55499 239.049 0 240.603 0 242.52C0 244.437 1.55499 245.991 3.47317 245.991Z" fill="#23B0C2"/>
<path d="M14.0215 261.555C15.9397 261.555 17.4947 260.001 17.4947 258.084C17.4947 256.167 15.9397 254.613 14.0215 254.613C12.1033 254.613 10.5483 256.167 10.5483 258.084C10.5483 260.001 12.1033 261.555 14.0215 261.555Z" fill="#23B0C2"/>
<path d="M28.4297 293.873C30.3479 293.873 31.9029 292.319 31.9029 290.402C31.9029 288.485 30.3479 286.931 28.4297 286.931C26.5115 286.931 24.9565 288.485 24.9565 290.402C24.9565 292.319 26.5115 293.873 28.4297 293.873Z" fill="#23B0C2"/>
<path opacity="0.1" d="M28.4297 293.873C30.3479 293.873 31.9029 292.319 31.9029 290.402C31.9029 288.485 30.3479 286.931 28.4297 286.931C26.5115 286.931 24.9565 288.485 24.9565 290.402C24.9565 292.319 26.5115 293.873 28.4297 293.873Z" fill="black"/>
<path d="M60.4741 257.266C62.3923 257.266 63.9473 255.712 63.9473 253.795C63.9473 251.878 62.3923 250.324 60.4741 250.324C58.556 250.324 57.001 251.878 57.001 253.795C57.001 255.712 58.556 257.266 60.4741 257.266Z" fill="#23B0C2"/>
<path opacity="0.1" d="M60.4741 257.266C62.3923 257.266 63.9473 255.712 63.9473 253.795C63.9473 251.878 62.3923 250.324 60.4741 250.324C58.556 250.324 57.001 251.878 57.001 253.795C57.001 255.712 58.556 257.266 60.4741 257.266Z" fill="black"/>
<path opacity="0.1" d="M64.1796 310.834C66.4865 309.668 67.1824 306.371 65.8357 303.326C65.9065 303.454 65.9774 303.577 66.0419 303.706C67.6335 306.854 66.9762 310.389 64.5662 311.607C62.1563 312.824 58.9215 311.259 57.3299 308.11C57.2655 307.981 57.2011 307.852 57.1431 307.717C58.7991 310.608 61.8728 311.999 64.1796 310.834Z" fill="black"/>
<path opacity="0.1" d="M67.6009 317.608C69.9078 316.442 70.6101 313.139 69.2634 310.1C69.3343 310.222 69.4052 310.351 69.4696 310.48C71.0612 313.628 70.4039 317.164 67.994 318.381C65.584 319.598 62.3493 318.033 60.7577 314.884C60.6868 314.755 60.6288 314.62 60.5708 314.491C62.2268 317.395 65.3069 318.773 67.6009 317.608Z" fill="black"/>
<path opacity="0.1" d="M71.0291 324.375C73.336 323.21 74.0383 319.913 72.6852 316.867C72.7625 316.996 72.8269 317.118 72.8978 317.254C74.4894 320.396 73.8257 323.938 71.4222 325.148C69.0187 326.359 65.7775 324.8 64.1859 321.652C64.115 321.523 64.057 321.394 63.999 321.259C65.6486 324.15 68.7223 325.541 71.0291 324.375Z" fill="black"/>
<path opacity="0.1" d="M74.4574 331.15C76.7642 329.984 77.4666 326.687 76.1134 323.641C76.1843 323.764 76.2552 323.893 76.3196 324.021C77.9176 327.17 77.2539 330.705 74.8504 331.922C72.4469 333.139 69.1993 331.575 67.6077 328.426C67.5432 328.297 67.4852 328.162 67.4272 328.033C69.0768 330.918 72.1505 332.315 74.4574 331.15Z" fill="black"/>
<path opacity="0.1" d="M77.8852 337.917C80.192 336.752 80.888 333.455 79.5412 330.415C79.6121 330.538 79.683 330.667 79.7474 330.795C81.339 333.944 80.6818 337.479 78.2782 338.696C75.8747 339.913 72.6271 338.342 71.0355 335.2C70.9711 335.065 70.9131 334.936 70.8486 334.807C72.5047 337.692 75.5783 339.083 77.8852 337.917Z" fill="black"/>
<path opacity="0.1" d="M81.3134 344.691C83.6203 343.526 84.3162 340.229 82.9694 337.183C83.0403 337.312 83.1112 337.434 83.1756 337.563C84.7672 340.712 84.11 344.247 81.7065 345.464C79.303 346.681 76.0553 345.116 74.4637 341.967C74.3993 341.839 74.3348 341.71 74.2769 341.575C75.9329 344.44 79.0066 345.857 81.3134 344.691Z" fill="black"/>
<path opacity="0.1" d="M84.7416 351.465C87.042 350.3 87.7444 346.996 86.3977 343.957C86.4685 344.079 86.5394 344.208 86.6039 344.337C88.1955 347.486 87.5382 351.021 85.1282 352.238C82.7183 353.455 79.4835 351.884 77.8919 348.741C77.8275 348.606 77.7631 348.477 77.7051 348.349C79.3611 351.233 82.4348 352.631 84.7416 351.465Z" fill="black"/>
<path opacity="0.1" d="M88.1629 358.233C90.4698 357.067 91.1721 353.77 89.819 350.725C89.8963 350.854 89.9607 350.976 90.0316 351.111C91.6232 354.253 90.9595 357.795 88.556 359.006C86.1525 360.216 82.9113 358.658 81.3197 355.509C81.2488 355.38 81.1908 355.252 81.1328 355.116C82.7889 358.007 85.8561 359.398 88.1629 358.233Z" fill="black"/>
<path opacity="0.1" d="M90.4379 362.682C92.7448 361.517 93.4407 358.22 92.094 355.174C92.1648 355.303 92.2357 355.425 92.3002 355.561C93.8918 358.703 93.2345 362.244 90.831 363.455C88.4275 364.666 85.1798 363.107 83.5882 359.959C83.5238 359.83 83.4594 359.701 83.4014 359.566C85.0381 362.47 88.1117 363.848 90.4379 362.682Z" fill="black"/>
<path d="M28.4878 332.547C28.13 331.523 27.9132 330.455 27.8435 329.372C27.6052 329.371 27.3697 329.322 27.1516 329.226C26.9335 329.13 26.7375 328.99 26.5759 328.815C26.4143 328.64 26.2905 328.434 26.2123 328.209C26.134 327.984 26.1031 327.745 26.1213 327.508C26.1395 327.27 26.2065 327.039 26.3181 326.829C26.4297 326.619 26.5835 326.433 26.7699 326.285C26.9563 326.137 27.1713 326.028 27.4015 325.967C27.6316 325.905 27.872 325.892 28.1077 325.927C28.4943 324.172 29.2667 322.525 30.3689 321.105C31.4711 319.685 32.8756 318.528 34.4805 317.717C34.2729 317.307 34.237 316.83 34.3808 316.393C34.5246 315.956 34.8363 315.594 35.2473 315.386C35.6583 315.179 36.135 315.143 36.5724 315.287C37.0099 315.43 37.3723 315.742 37.5799 316.153C37.6554 316.298 37.7076 316.455 37.7346 316.616C39.6413 316.266 41.6039 316.376 43.4598 316.936C45.3156 317.496 47.011 318.49 48.4054 319.836C49.4705 319.662 50.5541 319.631 51.6273 319.746L53.032 326.133L53.0642 319.971C54.6619 320.34 56.1683 321.029 57.4925 321.995C58.8167 322.962 59.9314 324.186 60.7694 325.595C61.6073 327.003 62.1512 328.567 62.3681 330.191C62.5851 331.815 62.4707 333.467 62.0319 335.046C61.593 336.625 60.8387 338.098 59.8146 339.378C58.7904 340.658 57.5175 341.717 56.0726 342.492C54.6278 343.267 53.0408 343.742 51.4075 343.887C49.7742 344.033 48.1282 343.846 46.5689 343.339C46.3993 343.638 46.1464 343.882 45.8408 344.041C45.5223 344.202 45.1621 344.26 44.809 344.21C44.4559 344.159 44.1269 344.001 43.8667 343.757C43.6065 343.513 43.4275 343.195 43.3542 342.846C43.2808 342.497 43.3166 342.134 43.4566 341.806C42.9041 341.421 42.3847 340.99 41.9037 340.519C39.3691 340.929 36.7695 340.527 34.4776 339.37C32.1857 338.213 30.319 336.361 29.1451 334.079L35.6855 332.978L28.4878 332.547Z" fill="#23B0C2"/>
<g opacity="0.1">
<path d="M38.5915 335.651C41.0079 332.431 42.49 328.696 44.1911 325.077C44.8723 323.588 45.6382 322.139 46.4851 320.737L47.7738 319.25C47.9929 319.437 48.2055 319.623 48.4182 319.817C49.4832 319.642 50.5669 319.612 51.64 319.726L53.0448 326.114L53.0641 319.971C54.6618 320.34 56.1682 321.029 57.4924 321.995C58.8166 322.962 59.9313 324.186 60.7693 325.595C61.6072 327.003 62.1511 328.567 62.368 330.191C62.585 331.815 62.4706 333.467 62.0318 335.046C61.5929 336.625 60.8386 338.098 59.8145 339.378C58.7903 340.658 57.5174 341.717 56.0725 342.492C54.6277 343.267 53.0407 343.742 51.4074 343.887C49.7741 344.033 48.1281 343.846 46.5688 343.339C46.3992 343.638 46.1463 343.882 45.8407 344.041C45.5222 344.201 45.162 344.26 44.8089 344.21C44.4558 344.159 44.1268 344.001 43.8666 343.757C43.6064 343.513 43.4275 343.195 43.3541 342.846C43.2808 342.497 43.3165 342.134 43.4565 341.806C42.904 341.421 42.3846 340.99 41.9036 340.519C39.4214 340.916 36.8769 340.541 34.6157 339.443C36.1366 338.401 37.4791 337.12 38.5915 335.651Z" fill="black"/>
</g>
<path d="M81.3585 321.961C81.2555 321.758 81.1936 321.537 81.1763 321.31C81.1591 321.083 81.1869 320.855 81.2582 320.639C81.3295 320.423 81.4428 320.223 81.5916 320.051C81.7404 319.879 81.9218 319.738 82.1254 319.636C82.3686 319.512 82.6382 319.448 82.9115 319.449C83.403 316.842 84.7362 314.467 86.7068 312.688C86.3882 311.451 86.2686 310.171 86.3524 308.896L92.7253 307.827L86.5329 307.434C86.645 306.852 86.8001 306.28 86.9968 305.721C86.7535 305.559 86.5559 305.337 86.4233 305.077C86.2684 304.767 86.2098 304.418 86.255 304.074C86.3003 303.73 86.4473 303.408 86.6773 303.148C86.9073 302.889 87.2097 302.704 87.5456 302.617C87.8816 302.53 88.2357 302.546 88.5626 302.662C89.7007 301.044 91.2214 299.733 92.9895 298.844C95.0719 297.788 97.415 297.355 99.7377 297.596C102.06 297.837 104.264 298.742 106.085 300.204C107.906 301.665 109.266 303.62 110.003 305.834C110.74 308.049 110.822 310.428 110.239 312.688C110.542 312.818 110.802 313.031 110.988 313.303C111.174 313.575 111.278 313.894 111.289 314.223C111.3 314.553 111.216 314.878 111.049 315.161C110.881 315.445 110.636 315.675 110.342 315.824C110.122 315.936 109.881 315.999 109.634 316.01C109.387 316.021 109.141 315.98 108.912 315.889C108.29 316.93 107.515 317.872 106.612 318.683C107.272 321.251 107.075 323.964 106.051 326.41L97.5259 324.169L105.149 328.181C104.004 330.006 102.395 331.494 100.485 332.493C98.5754 333.491 96.4343 333.964 94.2814 333.863C92.1285 333.762 90.0411 333.091 88.2334 331.918C86.4256 330.746 84.9625 329.113 83.994 327.189C83.3198 325.85 82.8961 324.399 82.7439 322.907C82.4514 322.881 82.1704 322.78 81.9279 322.614C81.6854 322.449 81.4894 322.224 81.3585 321.961Z" fill="#23B0C2"/>
<path opacity="0.1" d="M81.3585 321.961C81.2555 321.758 81.1936 321.537 81.1763 321.31C81.1591 321.083 81.1869 320.855 81.2582 320.639C81.3295 320.423 81.4428 320.223 81.5916 320.051C81.7404 319.879 81.9218 319.738 82.1254 319.636C82.3686 319.512 82.6382 319.448 82.9115 319.449C83.403 316.842 84.7362 314.467 86.7068 312.688C86.6553 312.489 86.6102 312.283 86.5715 312.083C86.8027 312.248 87.0183 312.433 87.2159 312.637C88.3693 313.925 88.9621 315.592 90.0962 316.867C91.5173 318.332 93.4277 319.224 95.4639 319.372C97.4807 319.511 99.5071 319.348 101.476 318.889C103.1 318.471 104.775 318.287 106.45 318.342L106.927 318.406L106.631 318.683C107.291 321.251 107.094 323.964 106.07 326.41L97.5259 324.169L105.149 328.181C104.004 330.006 102.395 331.494 100.485 332.493C98.5754 333.491 96.4343 333.964 94.2814 333.863C92.1285 333.762 90.0411 333.091 88.2334 331.918C86.4256 330.746 84.9625 329.114 83.994 327.189C83.3198 325.85 82.8961 324.399 82.7439 322.907C82.4514 322.881 82.1704 322.78 81.9279 322.614C81.6854 322.449 81.4894 322.224 81.3585 321.961Z" fill="black"/>
</g>
<path opacity="0.1" d="M223.178 33.4259C220.631 32.9427 217.997 33.2297 215.614 34.2502C214.184 34.8869 212.636 35.2159 211.071 35.2159C209.505 35.2159 207.958 34.8869 206.528 34.2502C204.838 33.5099 203.007 33.1456 201.163 33.1822C199.318 33.2189 197.503 33.6558 195.844 34.4627C194.897 34.9627 193.842 35.2257 192.771 35.2289C188.44 35.2289 184.838 30.8696 184.091 25.1194C184.954 24.4869 185.689 23.6958 186.256 22.7884C188.795 18.6995 192.7 16.0723 197.139 16.0723C201.579 16.0723 205.445 18.648 207.984 22.7111C208.743 23.9313 209.803 24.9359 211.062 25.6284C212.321 26.3208 213.738 26.6777 215.175 26.6648H215.291C218.707 26.6455 221.69 29.4079 223.178 33.4259Z" fill="#23B0C2"/>
<path opacity="0.1" d="M236.336 15.3962L229.339 19.8328L233.585 12.1057C232.381 11.1468 230.891 10.6166 229.351 10.5989H229.242C228.756 10.6049 228.271 10.5682 227.792 10.4895L225.414 11.9963L226.432 10.1482C224.757 9.5655 223.306 8.47347 222.283 7.02518L218.023 9.68458L220.704 4.81009C218.223 1.82874 214.872 0 211.193 0C206.779 0 202.816 2.6272 200.303 6.7161C199.551 7.93743 198.489 8.93818 197.225 9.61674C195.961 10.2953 194.54 10.6275 193.105 10.5796H192.893C188.021 10.5796 184.065 16.098 184.065 22.9172C184.065 29.7363 188.021 35.2483 192.893 35.2483C193.964 35.245 195.019 34.9821 195.967 34.482C197.626 33.6745 199.441 33.2378 201.286 33.2022C203.131 33.1666 204.961 33.533 206.65 34.2759C208.08 34.9107 209.628 35.2386 211.193 35.2386C212.758 35.2386 214.306 34.9107 215.736 34.2759C217.412 33.5488 219.225 33.1908 221.052 33.2264C222.879 33.2619 224.676 33.6902 226.323 34.482C227.263 34.9687 228.306 35.2247 229.364 35.2289C234.242 35.2289 238.192 29.7105 238.192 22.8979C238.209 20.2818 237.571 17.7029 236.336 15.3962Z" fill="#23B0C2"/>
<path opacity="0.1" d="M77.5503 122.635C73.9116 121.947 70.1505 122.355 66.7442 123.807C64.7 124.712 62.4879 125.178 60.2519 125.172C58.0159 125.166 55.8062 124.69 53.7665 123.775C51.3531 122.717 48.7385 122.197 46.1038 122.249C43.4692 122.301 40.8773 122.925 38.5078 124.077C37.1526 124.791 35.6449 125.166 34.1132 125.172C27.9272 125.172 22.7786 118.945 21.709 110.729C22.9451 109.829 23.9954 108.698 24.802 107.4C28.4298 101.559 34.0487 97.8053 40.3571 97.8053C46.6655 97.8053 52.2136 101.514 55.8221 107.29C56.9066 109.041 58.4261 110.481 60.2328 111.471C62.0396 112.46 64.0719 112.966 66.132 112.937H66.2931C71.1775 112.931 75.4432 116.878 77.5503 122.635Z" fill="#23B0C2"/>
<path opacity="0.1" d="M96.366 96.8458L86.3653 103.182L92.4353 92.1516C90.715 90.7794 88.5856 90.0203 86.3847 89.9945H86.2236C85.5287 90.0047 84.8344 89.9529 84.1487 89.84L80.7722 92.0228L82.2285 89.3828C79.8256 88.5437 77.7503 86.9658 76.3002 84.8753L70.2302 88.7388L74.0514 81.7201C70.5009 77.4638 65.7196 74.8559 60.4615 74.8559C54.1531 74.8559 48.5342 78.6035 44.9064 84.4439C43.8319 86.1964 42.3116 87.6329 40.5004 88.6068C38.6892 89.5808 36.652 90.0574 34.5964 89.9881H34.2549C27.2892 89.9881 21.6445 97.8761 21.6445 107.612C21.6445 117.348 27.2892 125.236 34.2549 125.236C35.7876 125.232 37.2962 124.854 38.6495 124.135C41.0195 122.984 43.6116 122.361 46.2463 122.31C48.881 122.259 51.4953 122.781 53.9083 123.839C55.9479 124.755 58.1577 125.231 60.3937 125.236C62.6297 125.242 64.8418 124.777 66.8859 123.871C69.2811 122.832 71.8719 122.321 74.4824 122.371C77.093 122.421 79.6622 123.031 82.0158 124.161C83.3563 124.862 84.8459 125.231 86.3589 125.236C93.3246 125.236 98.9693 117.342 98.9693 107.612C99.0178 103.862 98.1227 100.16 96.366 96.8458Z" fill="#23B0C2"/>
<path opacity="0.1" d="M481.972 58.5389C484.519 58.056 487.153 58.343 489.537 59.3631C490.965 60.0001 492.512 60.3292 494.076 60.3292C495.641 60.3292 497.187 60.0001 498.616 59.3631C500.306 58.6229 502.136 58.2585 503.981 58.2952C505.826 58.3319 507.641 58.7688 509.3 59.5756C510.247 60.075 511.302 60.3379 512.373 60.3419C516.703 60.3419 520.312 55.9825 521.059 50.2323C520.194 49.6016 519.459 48.8101 518.894 47.9013C516.368 43.7995 512.418 41.153 507.991 41.153C503.565 41.153 499.692 43.7287 497.153 47.7918C496.396 49.0175 495.335 50.0272 494.073 50.7232C492.811 51.4192 491.39 51.778 489.949 51.7648H489.839C486.411 51.7584 483.422 54.5208 481.972 58.5389Z" fill="#23B0C2"/>
<path opacity="0.1" d="M468.775 40.5091L475.772 44.9329L471.52 37.2058C472.724 36.2478 474.214 35.7177 475.753 35.699H475.869C476.355 35.7046 476.84 35.668 477.319 35.5896L479.69 37.0963L478.672 35.2483C480.36 34.6753 481.825 33.5875 482.861 32.1381L487.107 34.8297L484.42 29.9552C486.907 26.9739 490.219 25.1451 493.937 25.1451C498.351 25.1451 502.314 27.7723 504.827 31.8612C505.579 33.083 506.64 34.0841 507.905 34.7628C509.169 35.4414 510.591 35.7733 512.025 35.7248H512.257C517.135 35.7248 521.085 41.2432 521.085 48.0623C521.085 54.8814 517.135 60.3934 512.257 60.3934C511.185 60.3886 510.131 60.1258 509.183 59.6271C507.524 58.8196 505.709 58.3829 503.864 58.3473C502.019 58.3118 500.188 58.6782 498.499 59.4211C497.07 60.0557 495.524 60.3836 493.96 60.3836C492.396 60.3836 490.849 60.0557 489.42 59.4211C487.743 58.6938 485.929 58.3358 484.101 58.3713C482.273 58.4069 480.474 58.8352 478.827 59.6271C477.887 60.1146 476.844 60.3706 475.785 60.3741C470.914 60.3741 466.957 54.8557 466.957 48.043C466.923 45.4193 467.548 42.829 468.775 40.5091Z" fill="#23B0C2"/>
<path opacity="0.1" d="M396.695 500.25C437.621 500.25 470.798 494.484 470.798 487.371C470.798 480.259 437.621 474.493 396.695 474.493C355.769 474.493 322.592 480.259 322.592 487.371C322.592 494.484 355.769 500.25 396.695 500.25Z" fill="#23B0C2"/>
<path d="M357.911 426.199L243.09 424.724L243.431 421.781L248.979 373.236H349.817L357.234 421.781L357.801 425.465L357.911 426.199Z" fill="#D0D2D5"/>
<path opacity="0.1" d="M357.801 425.465H300.503L243.09 424.724L243.431 421.781H357.234L357.801 425.465Z" fill="black"/>
<path d="M376.314 422.522H223.952V426.199H376.314V422.522Z" fill="#D0D2D5"/>
<path d="M521.678 81.6686C521.686 79.1313 520.687 76.6944 518.898 74.8931C517.11 73.0917 514.68 72.0732 512.141 72.0613H86.6486C85.3903 72.0672 84.1455 72.3207 82.9852 72.8074C81.825 73.294 80.772 74.0043 79.8864 74.8976C79.0009 75.7909 78.3001 76.8498 77.824 78.0138C77.3479 79.1778 77.106 80.424 77.1119 81.6815V339.411H521.678V81.6686Z" fill="#3F3D56"/>
<path d="M77.1123 336.835V367.022C77.1123 369.55 78.1171 371.974 79.9055 373.761C81.694 375.548 84.1197 376.552 86.649 376.552H512.141C514.671 376.552 517.096 375.548 518.885 373.761C520.673 371.974 521.678 369.55 521.678 367.022V336.835H77.1123Z" fill="#D0D2D5"/>
<path d="M505.484 88.2237H95.5151V319.913H505.484V88.2237Z" fill="white"/>
<path d="M301.605 365.097C303.11 365.099 304.596 364.758 305.951 364.101C307.305 363.444 308.492 362.488 309.421 361.304C309.704 360.944 309.962 360.565 310.194 360.171L304.737 359.25L310.633 359.289C311.198 358.06 311.506 356.729 311.538 355.377C311.57 354.025 311.326 352.681 310.82 351.427L302.913 355.522L310.207 350.164C309.522 348.988 308.602 347.964 307.505 347.158C306.407 346.352 305.156 345.779 303.828 345.477C302.499 345.174 301.123 345.148 299.784 345.399C298.445 345.65 297.172 346.174 296.045 346.938C294.917 347.701 293.958 348.689 293.229 349.838C292.499 350.988 292.013 352.275 291.803 353.62C291.592 354.965 291.66 356.339 292.002 357.656C292.345 358.974 292.955 360.207 293.795 361.279C294.722 362.466 295.906 363.426 297.259 364.088C298.612 364.75 300.099 365.095 301.605 365.097Z" fill="#23B0C2"/>
<path opacity="0.1" d="M311.542 376.546L357.35 422.522L350.32 376.546H311.542Z" fill="black"/>
<path opacity="0.1" d="M505.607 88.2495H95.1934V101.785H505.607V88.2495Z" fill="#444053"/>
<path opacity="0.3" d="M360.971 90.6062H238.064C237.857 90.6062 237.69 90.7734 237.69 90.9797V98.4685C237.69 98.6747 237.857 98.842 238.064 98.842H360.971C361.178 98.842 361.345 98.6747 361.345 98.4685V90.9797C361.345 90.7734 361.178 90.6062 360.971 90.6062Z" fill="#23B0C2"/>
<path d="M357.672 95.5773H357.369L357.26 95.4807C357.635 95.0305 357.84 94.4631 357.84 93.8773C357.836 93.3965 357.69 92.9276 357.419 92.5297C357.149 92.1319 356.767 91.8229 356.321 91.6418C355.875 91.4607 355.386 91.4157 354.915 91.5123C354.443 91.6089 354.011 91.8429 353.673 92.1847C353.334 92.5265 353.105 92.9608 353.013 93.4328C352.921 93.9049 352.971 94.3935 353.157 94.837C353.343 95.2805 353.656 95.6591 354.057 95.9249C354.458 96.1908 354.929 96.3319 355.41 96.3307C355.997 96.3286 356.565 96.1213 357.015 95.7447L357.124 95.8413V96.1439L359.012 98.0306L359.573 97.464L357.672 95.5773ZM355.41 95.5773C355.074 95.5786 354.744 95.48 354.464 95.2939C354.183 95.1079 353.964 94.8429 353.834 94.5324C353.704 94.2219 353.67 93.8799 353.735 93.5497C353.8 93.2195 353.961 92.916 354.199 92.6776C354.436 92.4392 354.74 92.2767 355.07 92.2105C355.4 92.1444 355.742 92.1777 356.053 92.3062C356.365 92.4347 356.631 92.6525 356.818 92.9322C357.005 93.2119 357.105 93.5409 357.105 93.8773C357.107 94.1005 357.064 94.3218 356.98 94.5284C356.895 94.735 356.771 94.9228 356.613 95.0809C356.455 95.239 356.268 95.3643 356.061 95.4495C355.855 95.5347 355.634 95.5782 355.41 95.5773Z" fill="#3F3D56"/>
<path opacity="0.8" d="M102.571 97.4962C103.941 97.4962 105.052 96.3862 105.052 95.0171C105.052 93.6479 103.941 92.538 102.571 92.538C101.201 92.538 100.09 93.6479 100.09 95.0171C100.09 96.3862 101.201 97.4962 102.571 97.4962Z" fill="#FA5959"/>
<path opacity="0.8" d="M109.395 97.4962C110.766 97.4962 111.876 96.3862 111.876 95.0171C111.876 93.6479 110.766 92.538 109.395 92.538C108.025 92.538 106.915 93.6479 106.915 95.0171C106.915 96.3862 108.025 97.4962 109.395 97.4962Z" fill="#FED253"/>
<path opacity="0.8" d="M116.225 97.4962C117.596 97.4962 118.706 96.3862 118.706 95.0171C118.706 93.6479 117.596 92.538 116.225 92.538C114.855 92.538 113.745 93.6479 113.745 95.0171C113.745 96.3862 114.855 97.4962 116.225 97.4962Z" fill="#8CCF4D"/>
<path d="M438.818 479.863C438.444 479.27 437.971 478.745 437.419 478.311C434.604 475.652 433.295 471.75 432.6 467.925C431.904 464.1 431.704 460.198 430.589 456.457C429.983 454.538 429.224 452.672 428.321 450.874C427.677 449.496 426.865 446.798 425.685 445.832C425.454 445.632 425.174 445.497 424.874 445.439C424.317 444.256 423.523 443.2 422.541 442.336C420.698 440.668 418.449 439.341 417.218 437.184C416.88 436.436 416.463 435.726 415.975 435.066C415.144 434.151 413.829 433.778 413.062 432.812C412.063 431.563 412.289 429.773 412.418 428.182C412.547 426.592 412.418 424.686 411.039 423.849C410.214 423.34 409.151 423.391 408.294 422.941C407.005 422.297 406.496 420.674 406.522 419.225C406.548 417.776 406.999 416.366 407.115 414.917C407.475 410.307 404.434 405.722 405.607 401.253C406.051 399.56 407.07 398.092 407.823 396.514C408.086 395.989 408.302 395.442 408.468 394.879C410.478 395.675 412.591 396.184 414.744 396.392C411.193 388.433 412.096 379.186 410.44 370.635L410.652 370.345C412.325 368.14 413.275 365.473 413.371 362.708C413.371 359.527 411.883 356.552 411.213 353.436C410.639 350.789 410.665 348.02 409.924 345.419C409.41 343.802 408.728 342.244 407.888 340.77C407.085 339.28 406.24 337.814 405.355 336.372C404.531 333.642 403.704 330.911 402.875 328.181C401.715 324.35 400.523 320.454 398.267 317.144C397.443 315.934 397.191 313.474 395.922 312.74C394.891 312.207 393.722 312.002 392.571 312.154C390.78 311.149 389.208 309.701 388.982 307.717C388.96 307.284 389.003 306.85 389.111 306.429H389.33C392.165 306.172 393.602 303.673 395.078 301.484C397.462 297.943 396.553 293.152 395.078 289.121C394.712 287.849 394.049 286.681 393.145 285.714C391.076 283.783 387.803 284.208 385.135 283.274C384.239 282.965 383.402 282.495 382.487 282.276C380.715 281.864 378.859 282.443 377.235 283.261C375.611 284.079 374.097 285.135 372.396 285.779C370.695 286.423 368.594 286.931 368.175 288.677C368.058 289.264 368.107 289.873 368.317 290.434C368.708 291.554 369.397 292.547 370.308 293.306C369.584 294.799 369.192 296.43 369.16 298.089C369.128 299.747 369.456 301.392 370.122 302.912C370.787 304.431 371.775 305.788 373.017 306.889C374.258 307.99 375.724 308.808 377.312 309.288C377.802 310.074 378.26 310.873 378.678 311.69C379.426 313.133 380.057 314.833 379.8 316.378C379.334 316.873 378.903 317.4 378.511 317.956C376.662 320.531 375.611 323.551 374.645 326.565C373.346 330.413 372.307 334.343 371.532 338.329C369.96 341.671 368.04 344.865 366.899 348.374C364.857 348.377 362.824 348.104 360.855 347.563L355.417 346.333C353.522 345.902 351.55 345.438 350.068 344.189C349.282 343.545 348.67 342.689 347.871 342.051C347.072 341.414 345.467 340.667 344.591 341.195C344.431 341.292 344.282 341.406 344.147 341.536C343.347 339.92 342.587 338.316 341.659 336.752C340.325 334.562 338.341 332.56 335.828 332.141C334.292 331.894 332.721 332.26 331.452 333.159C329.983 334.202 329.062 336.378 330.164 337.846C330.439 338.173 330.738 338.479 331.059 338.761C331.805 339.619 332.472 340.544 333.05 341.523C335.128 344.437 338.235 346.453 341.743 347.164L341.518 347.808C341.06 349.147 340.087 350.763 340.332 352.154L364.522 360.429C366.073 361.058 367.72 361.422 369.393 361.504C370.046 361.499 370.695 361.412 371.326 361.246V362.483V362.534C371.391 371.028 370.037 379.463 369.786 387.95C369.741 389.502 369.786 391.17 370.766 392.38C371.861 393.707 373.807 393.971 375.502 393.668C375.91 393.599 376.309 393.509 376.7 393.397C377.273 395.534 377.687 397.71 377.937 399.908L379.535 411.408C379.741 412.585 379.825 413.781 379.787 414.975C379.6 417.673 378.176 420.088 377.145 422.58C376.114 425.072 375.502 428.053 376.855 430.384C377.28 431.106 377.867 431.717 378.247 432.464C378.73 433.621 378.95 434.87 378.891 436.122C378.99 439.59 379.084 443.063 379.175 446.54C378.893 446.494 378.605 446.551 378.363 446.701C377.022 447.744 377.171 452.709 377.074 454.248C376.971 456.824 377.074 459.451 376.932 462.052C376.765 465.558 376.2 469.034 375.25 472.413C375.018 473.512 374.51 474.533 373.775 475.382C373.021 476.037 372.122 476.502 371.152 476.74C367.942 477.745 364.585 478.202 361.222 478.092C359.863 478.047 358.445 477.919 357.182 478.434C355.919 478.949 354.901 480.366 355.359 481.653C355.752 482.735 356.944 483.25 358.02 483.656C360.478 484.521 362.851 485.612 365.108 486.914C365.977 487.506 366.893 488.025 367.847 488.466C368.761 488.794 369.707 489.027 370.669 489.161L382.094 491.132C384.433 491.531 387.249 491.776 388.737 489.844C389.543 488.801 389.659 487.384 389.62 486.058C389.555 483.482 389.04 480.861 389.375 478.286C389.629 476.763 390.031 475.269 390.574 473.823C391.712 470.445 392.855 467.069 394.002 463.694C395.149 460.307 396.309 456.888 396.753 453.334C396.914 452.046 396.901 450.578 395.915 449.773C395.666 449.568 395.376 449.419 395.065 449.335C395.026 446.231 394.62 443.121 394.794 440.017C394.839 439.245 394.917 438.472 394.981 437.693C395.578 438.26 396.112 438.89 396.573 439.573C397.675 441.299 398.081 443.578 399.762 444.724C401.193 445.703 403.313 445.652 404.318 447.068C404.641 447.612 404.884 448.2 405.04 448.813C405.623 450.332 406.499 451.721 407.617 452.902C408.001 454.316 408.535 455.684 409.209 456.985C410.158 458.99 411.103 460.988 412.044 462.98C413.011 465.13 414.087 467.229 415.266 469.271C416.166 470.556 416.892 471.955 417.425 473.43C418.333 476.611 416.851 480.102 414.506 482.445C412.16 484.789 409.067 486.135 406.019 487.391C405.698 487.499 405.404 487.675 405.156 487.906C404.892 488.218 404.752 488.617 404.763 489.026C404.763 490.514 405.987 491.789 407.392 492.246C408.828 492.631 410.332 492.686 411.793 492.407C420.028 491.409 428.237 489.4 435.519 485.401C436.608 484.885 437.573 484.141 438.347 483.218C438.722 482.753 438.963 482.196 439.046 481.606C439.129 481.015 439.05 480.413 438.818 479.863Z" fill="url(#paint0_linear_112_9)"/>
<path d="M404.015 335.464C405.39 337.572 406.679 339.731 407.881 341.942C408.724 343.404 409.409 344.952 409.924 346.559C410.672 349.134 410.652 351.884 411.213 354.511C411.857 357.602 413.365 360.551 413.365 363.719C413.267 366.464 412.316 369.11 410.646 371.292C408.98 373.454 407.073 375.42 404.962 377.151C400.097 364.555 397.378 351.232 396.921 337.737C396.856 335.869 396.843 333.944 397.526 332.199C397.945 331.104 399.956 328.104 401.251 329.282C401.721 329.714 401.844 331.658 402.134 332.309C402.677 333.408 403.306 334.463 404.015 335.464Z" fill="#2F2E41"/>
<path opacity="0.1" d="M404.015 335.464C405.39 337.572 406.679 339.731 407.881 341.942C408.724 343.404 409.409 344.952 409.924 346.559C410.672 349.134 410.652 351.884 411.213 354.511C411.857 357.602 413.365 360.551 413.365 363.719C413.267 366.464 412.316 369.11 410.646 371.292C408.98 373.454 407.073 375.42 404.962 377.151C400.097 364.555 397.378 351.232 396.921 337.737C396.856 335.869 396.843 333.944 397.526 332.199C397.945 331.104 399.956 328.104 401.251 329.282C401.721 329.714 401.844 331.658 402.134 332.309C402.677 333.408 403.306 334.463 404.015 335.464Z" fill="black"/>
<path d="M234.133 247.614C229.036 252.701 228.424 254.941 225.363 255.952C222.302 256.963 211.29 262.662 214.75 268.979L224.055 275.122L224.325 275.302L225.749 279.578L211.676 304.614C211.676 304.614 188.479 294.015 186.204 309.694C183.93 325.374 185.373 329.656 184.761 338.027C184.149 346.398 184.961 348.819 182.918 348.819C180.875 348.819 180.07 343.32 180.07 343.32C180.07 343.32 179.941 343.069 179.715 342.598C176.68 336.294 156.08 290.016 189.078 258.206C189.078 258.206 204.363 257.202 208.042 239.687C210.581 227.581 219.46 228.624 225.363 231.091C227.281 231.842 229.069 232.892 230.66 234.201C232.091 235.555 233.364 237.067 234.455 238.708C236.137 241.361 237.052 244.69 234.133 247.614Z" fill="#D0D2D5"/>
<path opacity="0.1" d="M224.325 275.302L225.749 279.578L211.676 304.613C211.676 304.613 188.479 294.015 186.204 309.694C183.93 325.373 185.373 329.656 184.761 338.027C184.149 346.398 184.961 348.819 182.918 348.819C180.875 348.819 180.07 343.32 180.07 343.32C180.07 343.32 179.941 343.068 179.715 342.598C178.691 334.768 173.497 288.966 192.326 291.4C192.326 291.4 207.604 298.535 210.046 295.689C211.979 293.435 220.562 280.473 224.055 275.154L224.325 275.302Z" fill="black"/>
<path opacity="0.1" d="M234.455 238.669L225.15 249.236C225.15 249.236 214.344 263.686 212.102 263.074C211.431 262.928 210.746 262.848 210.059 262.836C209.311 262.779 208.595 262.511 207.993 262.063C207.391 261.616 206.928 261.007 206.659 260.307C206.389 259.608 206.323 258.846 206.469 258.111C206.614 257.375 206.966 256.696 207.482 256.152C211.168 252.288 217.959 244.954 218.404 243.325C218.848 241.696 223.172 234.555 225.337 231.058C227.256 231.81 229.043 232.86 230.634 234.168C232.074 235.519 233.356 237.029 234.455 238.669Z" fill="black"/>
<path d="M497.72 390.693C496.141 393.848 488.054 405.684 484.517 410.854L482.861 413.288C482.861 413.288 482.216 417.564 471.655 412.264C461.094 406.965 212.952 302.334 212.952 302.334L211.271 297.286L223.514 278.966L495.484 383.97C495.484 383.97 499.763 386.617 497.72 390.693Z" fill="#454B69"/>
<path opacity="0.1" d="M484.517 410.854L482.861 413.288C482.861 413.288 482.216 417.564 471.655 412.264C461.094 406.965 212.952 302.334 212.952 302.334L211.271 297.286L484.517 410.854Z" fill="black"/>
<path d="M334.842 342.508C332.322 342.096 329.526 342.296 327.567 343.931C326.383 344.933 325.634 346.355 325.479 347.898C325.312 349.682 326.349 351.8 328.14 351.935C328.571 351.94 329.002 351.912 329.429 351.852C330.561 351.847 331.691 351.942 332.806 352.135C335 352.341 337.212 352.018 339.256 351.194C341.3 350.369 343.116 349.067 344.552 347.396C346.093 345.464 344.063 344.627 342.246 344.24C339.758 343.712 337.329 342.908 334.842 342.508Z" fill="#FBBEBE"/>
<path d="M377.937 400.661L379.535 412.007C379.739 413.178 379.821 414.367 379.78 415.555C379.593 418.227 378.169 420.623 377.145 423.095C376.12 425.568 375.495 428.53 376.855 430.822C377.274 431.537 377.86 432.149 378.24 432.889C378.723 434.034 378.943 435.273 378.885 436.514L379.323 452.613C384.297 452.952 389.289 452.924 394.259 452.529C394.454 452.538 394.645 452.479 394.801 452.361C394.932 452.195 394.998 451.987 394.987 451.775C395.207 448.008 394.549 444.235 394.762 440.468C394.839 439.09 395.033 437.719 395.058 436.334C395.136 430.726 392.365 425.233 393.203 419.689C393.466 418.29 393.81 416.907 394.234 415.548C396.882 405.89 396.321 395.741 395.735 385.767C395.745 385.606 395.699 385.447 395.606 385.316C395.511 385.221 395.39 385.156 395.258 385.13C392.439 384.284 389.458 384.13 386.566 384.679C383.675 385.228 380.958 386.465 378.646 388.285C377.944 388.851 376.172 389.399 375.708 390.075C375.063 391.015 375.908 391.955 376.281 392.953C377.109 395.455 377.664 398.04 377.937 400.661Z" fill="#3F3D56"/>
<path opacity="0.1" d="M377.937 400.661L379.535 412.007C379.739 413.178 379.821 414.367 379.78 415.555C379.593 418.227 378.169 420.623 377.145 423.095C376.12 425.568 375.495 428.53 376.855 430.822C377.274 431.537 377.86 432.149 378.24 432.889C378.723 434.034 378.943 435.273 378.885 436.514L379.323 452.613C384.297 452.952 389.289 452.924 394.259 452.529C394.454 452.538 394.645 452.479 394.801 452.361C394.932 452.195 394.998 451.987 394.987 451.775C395.207 448.008 394.549 444.235 394.762 440.468C394.839 439.09 395.033 437.719 395.058 436.334C395.136 430.726 392.365 425.233 393.203 419.689C393.466 418.29 393.81 416.907 394.234 415.548C396.882 405.89 396.321 395.741 395.735 385.767C395.745 385.606 395.699 385.447 395.606 385.316C395.511 385.221 395.39 385.156 395.258 385.13C392.439 384.284 389.458 384.13 386.566 384.679C383.675 385.228 380.958 386.465 378.646 388.285C377.944 388.851 376.172 389.399 375.708 390.075C375.063 391.015 375.908 391.955 376.281 392.953C377.109 395.455 377.664 398.04 377.937 400.661Z" fill="black"/>
<path d="M407.817 397.242C407.063 398.806 406.051 400.262 405.6 401.942C404.427 406.379 407.462 410.957 407.102 415.503C406.986 416.939 406.541 418.336 406.509 419.772C406.477 421.208 407.005 422.805 408.281 423.469C409.138 423.906 410.214 423.861 411.019 424.364C412.379 425.194 412.534 427.081 412.398 428.665C412.263 430.249 412.038 432.02 413.043 433.256C413.81 434.216 415.124 434.589 415.949 435.497C416.44 436.149 416.857 436.853 417.193 437.596C418.423 439.747 420.672 441.06 422.515 442.748C424.358 444.435 425.917 446.907 425.093 449.245C424.487 450.958 422.786 452.014 421.149 452.818C418.163 454.293 415.011 455.407 411.76 456.135C411.412 456.24 411.042 456.26 410.684 456.193C410.322 456.06 409.998 455.839 409.744 455.549C407.843 453.688 405.877 451.737 405.001 449.232C404.845 448.625 404.602 448.043 404.279 447.506C403.274 446.096 401.154 446.147 399.724 445.175C398.048 444.035 397.642 441.775 396.547 440.069C395.451 438.362 393.847 437.345 392.681 435.845C390.709 433.346 390.226 430.011 388.814 427.158C388.215 425.948 387.448 424.814 386.971 423.552C386.49 422.039 386.194 420.474 386.089 418.89C385.18 411.369 382.867 403.797 384.323 396.353C384.645 394.717 385.141 393.133 385.348 391.446C385.702 388.529 385.141 385.542 385.573 382.631C385.584 382.266 385.677 381.907 385.845 381.583C386.014 381.258 386.253 380.976 386.546 380.757C386.894 380.601 387.273 380.524 387.654 380.532C391.474 380.328 395.304 380.414 399.111 380.789C401.045 380.976 403.21 381.369 404.37 382.947C405.355 384.299 405.304 386.108 405.62 387.75C406.013 389.772 407.037 390.873 408.113 392.457C409.189 394.041 408.609 395.606 407.817 397.242Z" fill="#3F3D56"/>
<path d="M392.952 449.567C393.97 449.567 395.097 449.502 395.883 450.146C396.863 450.951 396.876 452.426 396.721 453.681C396.27 457.21 395.117 460.604 393.963 463.984L390.535 474.036C389.993 475.47 389.591 476.954 389.337 478.466C389.002 481.042 389.517 483.617 389.581 486.193C389.581 487.481 389.498 488.91 388.692 489.947C387.236 491.821 384.394 491.602 382.055 491.235L370.643 489.303C369.681 489.175 368.734 488.944 367.821 488.614C366.869 488.175 365.953 487.66 365.082 487.075C362.824 485.786 360.451 484.708 357.994 483.856C356.925 483.456 355.726 482.948 355.34 481.872C354.882 480.584 355.9 479.168 357.163 478.653C358.426 478.138 359.837 478.266 361.203 478.305C364.563 478.412 367.916 477.959 371.127 476.966C372.094 476.729 372.99 476.265 373.743 475.613C374.507 474.755 375.028 473.708 375.251 472.58C376.223 469.224 376.802 465.767 376.978 462.278C377.113 459.702 377.023 457.126 377.126 454.551C377.19 453.025 377.042 448.111 378.382 447.062C379.407 446.276 383.621 448.446 385.006 448.762C387.611 449.358 390.28 449.629 392.952 449.567Z" fill="#2F2E41"/>
<path d="M430.544 456.727C431.659 460.417 431.833 464.319 432.555 468.112C433.276 471.904 434.552 475.774 437.368 478.414C437.916 478.849 438.389 479.371 438.766 479.96C439.004 480.511 439.085 481.117 439 481.712C438.914 482.306 438.666 482.865 438.283 483.328C437.505 484.243 436.541 484.983 435.454 485.498C428.179 489.464 419.989 491.467 411.735 492.458C410.276 492.731 408.775 492.676 407.34 492.297C405.936 491.821 404.692 490.559 404.718 489.078C404.704 488.671 404.842 488.274 405.104 487.964C405.355 487.735 405.652 487.561 405.974 487.455C409.016 486.206 412.102 484.847 414.454 482.542C416.806 480.237 418.282 476.747 417.373 473.617C416.835 472.151 416.105 470.763 415.202 469.49C414.024 467.465 412.948 465.383 411.98 463.25L409.145 457.307C408.313 455.568 407.476 453.778 407.334 451.859C410.896 452.018 414.452 451.449 417.786 450.185C419.342 449.551 420.791 448.682 422.084 447.609C423.179 446.695 424.178 444.988 425.653 446.18C426.839 447.133 427.587 449.818 428.282 451.177C429.186 452.962 429.943 454.818 430.544 456.727Z" fill="#2F2E41"/>
<path d="M388.995 309.147C389.279 311.619 391.676 313.249 393.963 314.227L379.484 318.844C380.419 317.054 379.665 314.865 378.737 313.049C377.981 311.611 377.119 310.232 376.159 308.921C376.017 308.722 375.856 308.471 375.959 308.239C376.051 308.087 376.196 307.975 376.365 307.923C379.342 306.597 382.41 305.225 385.664 304.742C386.604 304.607 388.383 304.234 389.085 305.187C389.788 306.14 388.86 308.007 388.995 309.147Z" fill="#FBBEBE"/>
<path opacity="0.1" d="M388.995 309.147C389.279 311.619 391.676 313.249 393.963 314.227L379.484 318.844C380.419 317.054 379.665 314.865 378.737 313.049C377.981 311.611 377.119 310.232 376.159 308.921C376.017 308.722 375.856 308.471 375.959 308.239C376.051 308.087 376.196 307.975 376.365 307.923C379.342 306.597 382.41 305.225 385.664 304.742C386.604 304.607 388.383 304.234 389.085 305.187C389.788 306.14 388.86 308.007 388.995 309.147Z" fill="black"/>
<path d="M380.579 311.149C386.85 311.149 391.933 306.07 391.933 299.803C391.933 293.537 386.85 288.458 380.579 288.458C374.309 288.458 369.226 293.537 369.226 299.803C369.226 306.07 374.309 311.149 380.579 311.149Z" fill="#FBBEBE"/>
<path d="M370.74 393.172C371.842 394.492 373.781 394.75 375.476 394.46C379.439 393.816 382.68 390.899 386.559 389.85C391.314 388.562 396.347 390.217 400.838 392.245C405.33 394.273 409.795 396.752 414.705 397.1C410.265 387.209 412.804 375.31 408.558 365.335C407.52 362.895 406.071 360.545 405.839 357.905C405.549 354.627 407.185 351.465 407.437 348.207C407.669 345.303 406.792 342.412 405.955 339.643C404.919 336.243 403.884 332.843 402.849 329.443C401.689 325.638 400.497 321.768 398.248 318.497C397.417 317.292 397.165 314.852 395.902 314.124C393.144 312.534 388.963 314.536 385.973 314.646C382.983 314.755 380.257 316.88 378.511 319.282C376.661 321.819 375.611 324.839 374.645 327.827C373.106 332.276 371.956 336.85 371.21 341.497C371.113 342.193 371.03 342.888 370.965 343.59C370.321 350.203 371.262 356.855 371.313 363.5V363.545C371.378 371.974 370.024 380.352 369.773 388.774C369.747 390.313 369.786 391.994 370.74 393.172Z" fill="#2F2E41"/>
<path opacity="0.1" d="M371.333 363.507C373.556 362.946 375.566 361.51 377.293 359.939C378.789 358.601 380.117 357.088 381.25 355.432C382.675 353.205 383.82 350.811 384.658 348.304C387.044 341.598 388.56 334.615 389.169 327.524C389.337 325.592 389.388 323.519 388.235 321.986C387.587 321.156 386.677 320.57 385.654 320.322C384.63 320.074 383.552 320.179 382.596 320.621C381.076 321.362 380.09 322.862 379.175 324.298C377.364 327.144 375.541 330.029 374.374 333.197C373.859 334.601 373.478 336.043 372.976 337.453C372.465 338.844 371.875 340.205 371.21 341.529C371.114 342.225 371.03 342.92 370.965 343.622C370.366 350.235 371.281 356.861 371.333 363.507Z" fill="black"/>
<path d="M388.202 320.744C389.356 322.276 389.304 324.369 389.143 326.275C388.535 333.366 387.019 340.349 384.632 347.054C383.801 349.583 382.656 351.997 381.224 354.241C380.089 355.895 378.761 357.408 377.267 358.748C375.076 360.744 372.409 362.528 369.438 362.554C367.766 362.475 366.119 362.116 364.567 361.491L340.37 353.262C340.126 351.884 341.099 350.274 341.556 348.948L342.845 345.129C343.212 344.073 343.637 342.933 344.598 342.36C345.558 341.787 347.078 342.573 347.877 343.21C348.676 343.848 349.282 344.685 350.068 345.335C351.557 346.571 353.522 347.035 355.417 347.46L360.849 348.677C362.818 349.216 364.851 349.487 366.893 349.482C368.407 344.859 371.287 340.789 372.918 336.204C373.42 334.801 373.801 333.352 374.322 331.948C375.482 328.78 377.312 325.902 379.123 323.049C380.032 321.62 381.017 320.119 382.545 319.372C383.503 318.925 384.586 318.817 385.614 319.066C386.643 319.315 387.555 319.907 388.202 320.744Z" fill="#2F2E41"/>
<path d="M384.201 302.366C384.115 301.62 383.883 300.898 383.518 300.241C383.328 299.913 383.038 299.653 382.691 299.5C382.343 299.347 381.956 299.309 381.585 299.391C380.451 299.746 380.071 301.497 378.885 301.555C378.086 301.594 377.512 300.782 377.261 300.022C377.01 299.263 376.874 298.393 376.275 297.859C375.858 297.547 375.379 297.328 374.87 297.215C372.119 296.346 369.277 294.742 368.362 292.006C368.147 291.45 368.096 290.844 368.214 290.261C368.633 288.528 370.792 288.007 372.435 287.382C374.078 286.758 375.657 285.689 377.268 284.877C378.878 284.066 380.747 283.493 382.519 283.905C383.418 284.188 384.302 284.516 385.168 284.89C387.835 285.817 391.102 285.386 393.171 287.311C394.074 288.266 394.737 289.423 395.104 290.686C396.547 294.691 397.462 299.443 395.072 302.959C393.596 305.129 392.165 307.608 389.33 307.872C386.031 308.149 384.723 305.161 384.201 302.366Z" fill="#2F2E41"/>
<g opacity="0.1">
<path d="M379.162 298.657C378.91 297.897 378.775 297.028 378.182 296.494C377.765 296.182 377.286 295.962 376.777 295.85C374.02 294.98 371.184 293.377 370.263 290.64C370.053 290.084 370.004 289.479 370.121 288.895C370.184 288.62 370.3 288.36 370.463 288.129C369.412 288.586 368.497 289.192 368.239 290.261C368.121 290.844 368.172 291.45 368.388 292.006C369.303 294.742 372.144 296.346 374.896 297.215C375.405 297.328 375.883 297.547 376.301 297.859C376.9 298.393 377.029 299.256 377.286 300.022C377.544 300.789 378.111 301.594 378.91 301.555C379.709 301.516 380.096 300.789 380.605 300.177C379.903 300.087 379.394 299.366 379.162 298.657Z" fill="black"/>
<path d="M391.224 306.487C387.912 306.79 386.604 303.776 386.069 301.001C385.999 300.257 385.78 299.534 385.425 298.876C385.234 298.548 384.945 298.289 384.597 298.136C384.25 297.983 383.863 297.945 383.492 298.026C382.904 298.311 382.41 298.758 382.068 299.314C382.364 299.342 382.649 299.438 382.901 299.595C383.154 299.751 383.367 299.964 383.524 300.216C383.889 300.872 384.121 301.594 384.207 302.34C384.729 305.116 386.037 308.136 389.362 307.827C390.676 307.682 391.889 307.053 392.764 306.062C392.278 306.289 391.758 306.432 391.224 306.487Z" fill="black"/>
</g>
<path d="M523.946 426.27C535.437 426.27 544.753 424.479 544.753 422.271C544.753 420.062 535.437 418.272 523.946 418.272C512.455 418.272 503.139 420.062 503.139 422.271C503.139 424.479 512.455 426.27 523.946 426.27Z" fill="#23B0C2"/>
<path d="M523.598 423.739C524.936 423.739 526.021 422.321 526.021 420.571C526.021 418.821 524.936 417.403 523.598 417.403C522.26 417.403 521.175 418.821 521.175 420.571C521.175 422.321 522.26 423.739 523.598 423.739Z" fill="#3F3D56"/>
<path d="M523.598 419.863C524.936 419.863 526.021 418.444 526.021 416.694C526.021 414.945 524.936 413.526 523.598 413.526C522.26 413.526 521.175 414.945 521.175 416.694C521.175 418.444 522.26 419.863 523.598 419.863Z" fill="#3F3D56"/>
<path d="M523.598 415.993C524.936 415.993 526.021 414.574 526.021 412.825C526.021 411.075 524.936 409.656 523.598 409.656C522.26 409.656 521.175 411.075 521.175 412.825C521.175 414.574 522.26 415.993 523.598 415.993Z" fill="#3F3D56"/>
<path d="M523.598 412.116C524.936 412.116 526.021 410.698 526.021 408.948C526.021 407.198 524.936 405.78 523.598 405.78C522.26 405.78 521.175 407.198 521.175 408.948C521.175 410.698 522.26 412.116 523.598 412.116Z" fill="#3F3D56"/>
<path d="M523.598 408.24C524.936 408.24 526.021 406.821 526.021 405.072C526.021 403.322 524.936 401.904 523.598 401.904C522.26 401.904 521.175 403.322 521.175 405.072C521.175 406.821 522.26 408.24 523.598 408.24Z" fill="#3F3D56"/>
<path d="M523.598 404.37C524.936 404.37 526.021 402.951 526.021 401.202C526.021 399.452 524.936 398.034 523.598 398.034C522.26 398.034 521.175 399.452 521.175 401.202C521.175 402.951 522.26 404.37 523.598 404.37Z" fill="#3F3D56"/>
<path d="M523.598 400.493C524.936 400.493 526.021 399.075 526.021 397.325C526.021 395.576 524.936 394.157 523.598 394.157C522.26 394.157 521.175 395.576 521.175 397.325C521.175 399.075 522.26 400.493 523.598 400.493Z" fill="#3F3D56"/>
<path d="M532.664 370.841C532.995 370.42 533.296 369.977 533.566 369.514L527.2 368.471L534.088 368.516C534.746 367.079 535.104 365.524 535.142 363.944C535.18 362.365 534.896 360.794 534.308 359.328L525.067 364.118L533.586 357.859C532.786 356.484 531.713 355.288 530.431 354.346C529.149 353.404 527.687 352.735 526.136 352.381C524.584 352.028 522.977 351.997 521.413 352.291C519.849 352.585 518.362 353.197 517.046 354.09C515.729 354.982 514.61 356.136 513.758 357.479C512.907 358.823 512.341 360.327 512.096 361.898C511.851 363.469 511.932 365.074 512.335 366.613C512.737 368.151 513.452 369.59 514.435 370.841C513.918 371.495 513.472 372.203 513.108 372.953L521.375 377.248L512.56 374.292C511.944 376.117 511.793 378.066 512.121 379.964C512.448 381.862 513.244 383.648 514.435 385.162C513.091 386.872 512.255 388.925 512.023 391.087C511.792 393.249 512.173 395.433 513.125 397.389C514.076 399.345 515.559 400.993 517.403 402.147C519.248 403.3 521.38 403.912 523.556 403.912C525.732 403.912 527.864 403.3 529.709 402.147C531.554 400.993 533.036 399.345 533.988 397.389C534.939 395.433 535.321 393.249 535.089 391.087C534.857 388.925 534.021 386.872 532.677 385.162C534.287 383.118 535.163 380.593 535.163 377.992C535.163 375.391 534.287 372.865 532.677 370.821L532.664 370.841Z" fill="#23B0C2"/>
<path opacity="0.1" d="M511.935 377.988C511.933 380.593 512.815 383.121 514.435 385.162C513.091 386.872 512.255 388.925 512.023 391.087C511.791 393.249 512.173 395.433 513.124 397.389C514.076 399.344 515.558 400.993 517.403 402.147C519.248 403.3 521.38 403.912 523.556 403.912C525.732 403.912 527.864 403.3 529.709 402.147C531.553 400.993 533.036 399.344 533.987 397.389C534.939 395.433 535.32 393.249 535.089 391.087C534.857 388.925 534.021 386.872 532.677 385.162C534.217 383.185 511.935 376.688 511.935 377.988Z" fill="black"/>
<path d="M95.638 506C112.183 506 125.595 503.423 125.595 500.243C125.595 497.064 112.183 494.487 95.638 494.487C79.0933 494.487 65.6812 497.064 65.6812 500.243C65.6812 503.423 79.0933 506 95.638 506Z" fill="#23B0C2"/>
<path d="M95.135 502.362C97.0603 502.362 98.621 500.318 98.621 497.796C98.621 495.275 97.0603 493.231 95.135 493.231C93.2097 493.231 91.6489 495.275 91.6489 497.796C91.6489 500.318 93.2097 502.362 95.135 502.362Z" fill="#3F3D56"/>
<path d="M95.135 496.785C97.0603 496.785 98.621 494.741 98.621 492.22C98.621 489.699 97.0603 487.655 95.135 487.655C93.2097 487.655 91.6489 489.699 91.6489 492.22C91.6489 494.741 93.2097 496.785 95.135 496.785Z" fill="#3F3D56"/>
<path d="M95.135 491.209C97.0603 491.209 98.621 489.165 98.621 486.644C98.621 484.122 97.0603 482.078 95.135 482.078C93.2097 482.078 91.6489 484.122 91.6489 486.644C91.6489 489.165 93.2097 491.209 95.135 491.209Z" fill="#3F3D56"/>
<path d="M95.135 485.633C97.0603 485.633 98.621 483.589 98.621 481.067C98.621 478.546 97.0603 476.502 95.135 476.502C93.2097 476.502 91.6489 478.546 91.6489 481.067C91.6489 483.589 93.2097 485.633 95.135 485.633Z" fill="#3F3D56"/>
<path d="M95.135 480.056C97.0603 480.056 98.621 478.012 98.621 475.491C98.621 472.97 97.0603 470.926 95.135 470.926C93.2097 470.926 91.6489 472.97 91.6489 475.491C91.6489 478.012 93.2097 480.056 95.135 480.056Z" fill="#3F3D56"/>
<path d="M95.135 474.474C97.0603 474.474 98.621 472.43 98.621 469.908C98.621 467.387 97.0603 465.343 95.135 465.343C93.2097 465.343 91.6489 467.387 91.6489 469.908C91.6489 472.43 93.2097 474.474 95.135 474.474Z" fill="#3F3D56"/>
<path d="M95.135 468.897C97.0603 468.897 98.621 466.853 98.621 464.332C98.621 461.81 97.0603 459.766 95.135 459.766C93.2097 459.766 91.6489 461.81 91.6489 464.332C91.6489 466.853 93.2097 468.897 95.135 468.897Z" fill="#3F3D56"/>
<path d="M108.19 426.173C108.662 425.558 109.092 424.913 109.479 424.241L100.316 422.734L110.226 422.812C111.176 420.743 111.694 418.503 111.748 416.228C111.803 413.953 111.392 411.69 110.542 409.579L97.2549 416.495L109.498 407.48C108.352 405.492 106.807 403.762 104.962 402.397C103.116 401.032 101.009 400.062 98.772 399.547C96.5346 399.032 94.215 398.983 91.958 399.404C89.701 399.824 87.5549 400.705 85.6538 401.992C83.7526 403.278 82.1372 404.942 80.9082 406.88C79.6793 408.818 78.8632 410.989 78.5109 413.256C78.1587 415.523 78.2777 417.838 78.8608 420.057C79.4438 422.277 80.4782 424.352 81.8995 426.154C81.147 427.094 80.4988 428.113 79.9664 429.193L91.868 435.375L79.1803 431.118C78.2911 433.757 78.0764 436.577 78.5558 439.32C79.0352 442.063 80.1936 444.642 81.9253 446.824C79.9866 449.286 78.7805 452.245 78.445 455.36C78.1094 458.476 78.658 461.623 80.0279 464.441C81.3978 467.26 83.5338 469.637 86.1917 471.299C88.8495 472.962 91.9219 473.844 95.0576 473.844C98.1933 473.844 101.266 472.962 103.924 471.299C106.581 469.637 108.717 467.26 110.087 464.441C111.457 461.623 112.006 458.476 111.67 455.36C111.335 452.245 110.129 449.286 108.19 446.824C110.507 443.881 111.767 440.246 111.767 436.501C111.767 432.757 110.507 429.122 108.19 426.179V426.173Z" fill="#23B0C2"/>
<path opacity="0.1" d="M78.3491 436.521C78.3497 440.259 79.6095 443.888 81.9254 446.824C79.9867 449.286 78.7806 452.245 78.4451 455.36C78.1095 458.476 78.6581 461.623 80.028 464.441C81.3979 467.26 83.5339 469.637 86.1918 471.299C88.8496 472.962 91.922 473.844 95.0577 473.844C98.1934 473.844 101.266 472.962 103.924 471.299C106.582 469.637 108.718 467.26 110.087 464.441C111.457 461.623 112.006 458.476 111.67 455.36C111.335 452.245 110.129 449.286 108.19 446.824C110.413 443.978 78.3491 434.621 78.3491 436.521Z" fill="black"/>
<g clip-path="url(#clip1_112_9)">
<path d="M329 186H317.76C315.96 182.88 313.48 180.2 310.48 178.16L317 171.64L311.36 166L302.68 174.68C300.84 174.24 298.96 174 297 174C295.04 174 293.16 174.24 291.36 174.68L282.64 166L277 171.64L283.48 178.16C280.52 180.2 278.04 182.88 276.24 186H265V194H273.36C273.16 195.32 273 196.64 273 198V202H265V210H273V214C273 215.36 273.16 216.68 273.36 218H265V226H276.24C280.4 233.16 288.12 238 297 238C305.88 238 313.6 233.16 317.76 226H329V218H320.64C320.84 216.68 321 215.36 321 214V210H329V202H321V198C321 196.64 320.84 195.32 320.64 194H329V186ZM305 218H289V210H305V218ZM305 202H289V194H305V202Z" fill="#FDCF46"/>
</g>
</g>
<defs>
<linearGradient id="paint0_linear_112_9" x1="387.836" y1="493.467" x2="379.319" y2="282.181" gradientUnits="userSpaceOnUse">
<stop stop-color="#808080" stop-opacity="0.25"/>
<stop offset="0.54" stop-color="#808080" stop-opacity="0.12"/>
<stop offset="1" stop-color="#808080" stop-opacity="0.1"/>
</linearGradient>
<clipPath id="clip0_112_9">
<rect width="659" height="506" fill="white"/>
</clipPath>
<clipPath id="clip1_112_9">
<rect width="96" height="96" fill="white" transform="translate(249 154)"/>
</clipPath>
</defs>
</svg>
