<svg width="1437" height="368" viewBox="0 0 1437 368" fill="none" xmlns="http://www.w3.org/2000/svg">
<path d="M-1 106.21L304.428 28.7554C355.163 15.8892 408.138 14.566 459.452 24.8832L600.496 53.2412C643.103 61.8078 686.958 62.1262 729.686 54.1792L1000.03 3.89685C1064.02 -8.00475 1130.06 7.63624 1181.92 46.9738C1231.44 84.5414 1294.99 98.3913 1355.65 84.8356L1439 66.2103V368.21H-1V106.21Z" fill="#FDCF46"/>
<path d="M1071 163.21C1071 194.138 1045.93 219.21 1015 219.21C984.072 219.21 959 194.138 959 163.21C959 132.282 984.072 107.21 1015 107.21C1045.93 107.21 1071 132.282 1071 163.21Z" fill="url(#paint0_linear_84_228)"/>
<path d="M1035.85 180.336L1038.34 164.531H1022.78V154.278C1022.78 149.953 1024.95 145.735 1031.92 145.735H1039V132.278C1039 132.278 1032.58 131.21 1026.44 131.21C1013.62 131.21 1005.25 138.782 1005.25 152.484V164.531H991V180.336H1005.25V218.548C1008.11 218.986 1011.03 219.21 1014.01 219.21C1016.99 219.21 1019.92 218.986 1022.78 218.548V180.336H1035.85Z" fill="white"/>
<path d="M431.85 309.09C433.89 309.09 435.7 309.55 437.28 310.47C438.86 311.37 440.09 312.63 440.97 314.25C441.85 315.87 442.29 317.71 442.29 319.77C442.29 321.83 441.85 323.68 440.97 325.32C440.09 326.94 438.86 328.21 437.28 329.13C435.7 330.03 433.89 330.48 431.85 330.48C429.81 330.48 427.99 330.03 426.39 329.13C424.81 328.21 423.58 326.94 422.7 325.32C421.82 323.68 421.38 321.83 421.38 319.77C421.38 317.71 421.82 315.87 422.7 314.25C423.58 312.63 424.81 311.37 426.39 310.47C427.99 309.55 429.81 309.09 431.85 309.09ZM431.85 310.47C430.03 310.47 428.44 310.85 427.08 311.61C425.74 312.37 424.7 313.46 423.96 314.88C423.24 316.28 422.88 317.91 422.88 319.77C422.88 321.63 423.24 323.26 423.96 324.66C424.7 326.06 425.74 327.15 427.08 327.93C428.44 328.71 430.03 329.1 431.85 329.1C433.65 329.1 435.22 328.71 436.56 327.93C437.92 327.15 438.96 326.06 439.68 324.66C440.42 323.26 440.79 321.63 440.79 319.77C440.79 317.91 440.42 316.28 439.68 314.88C438.96 313.46 437.93 312.37 436.59 311.61C435.25 310.85 433.67 310.47 431.85 310.47ZM431.76 312.87C430.54 312.87 429.43 313.16 428.43 313.74C427.43 314.3 426.64 315.1 426.06 316.14C425.5 317.18 425.22 318.38 425.22 319.74C425.22 321.1 425.51 322.31 426.09 323.37C426.67 324.41 427.45 325.22 428.43 325.8C429.43 326.36 430.54 326.64 431.76 326.64C433.28 326.64 434.59 326.24 435.69 325.44C436.79 324.62 437.53 323.55 437.91 322.23H434.79C434.53 322.87 434.16 323.36 433.68 323.7C433.2 324.04 432.56 324.21 431.76 324.21C430.7 324.21 429.85 323.83 429.21 323.07C428.57 322.29 428.25 321.18 428.25 319.74C428.25 318.3 428.57 317.2 429.21 316.44C429.85 315.68 430.7 315.3 431.76 315.3C432.52 315.3 433.16 315.47 433.68 315.81C434.22 316.15 434.59 316.64 434.79 317.28H437.91C437.53 315.88 436.8 314.8 435.72 314.04C434.64 313.26 433.32 312.87 431.76 312.87Z" fill="black"/>
<path d="M444.782 319.74C444.782 317.7 445.252 315.87 446.192 314.25C447.152 312.63 448.442 311.37 450.062 310.47C451.702 309.55 453.492 309.09 455.432 309.09C457.652 309.09 459.622 309.64 461.342 310.74C463.082 311.82 464.342 313.36 465.122 315.36H461.012C460.472 314.26 459.722 313.44 458.762 312.9C457.802 312.36 456.692 312.09 455.432 312.09C454.052 312.09 452.822 312.4 451.742 313.02C450.662 313.64 449.812 314.53 449.192 315.69C448.592 316.85 448.292 318.2 448.292 319.74C448.292 321.28 448.592 322.63 449.192 323.79C449.812 324.95 450.662 325.85 451.742 326.49C452.822 327.11 454.052 327.42 455.432 327.42C456.692 327.42 457.802 327.15 458.762 326.61C459.722 326.07 460.472 325.25 461.012 324.15H465.122C464.342 326.15 463.082 327.69 461.342 328.77C459.622 329.85 457.652 330.39 455.432 330.39C453.472 330.39 451.682 329.94 450.062 329.04C448.442 328.12 447.152 326.85 446.192 325.23C445.252 323.61 444.782 321.78 444.782 319.74Z" fill="black"/>
<path d="M476.295 330.48C474.735 330.48 473.325 330.13 472.065 329.43C470.805 328.71 469.815 327.71 469.095 326.43C468.375 325.13 468.015 323.63 468.015 321.93C468.015 320.25 468.385 318.76 469.125 317.46C469.865 316.16 470.875 315.16 472.155 314.46C473.435 313.76 474.865 313.41 476.445 313.41C478.025 313.41 479.455 313.76 480.735 314.46C482.015 315.16 483.025 316.16 483.765 317.46C484.505 318.76 484.875 320.25 484.875 321.93C484.875 323.61 484.495 325.1 483.735 326.4C482.975 327.7 481.935 328.71 480.615 329.43C479.315 330.13 477.875 330.48 476.295 330.48ZM476.295 327.51C477.175 327.51 477.995 327.3 478.755 326.88C479.535 326.46 480.165 325.83 480.645 324.99C481.125 324.15 481.365 323.13 481.365 321.93C481.365 320.73 481.135 319.72 480.675 318.9C480.215 318.06 479.605 317.43 478.845 317.01C478.085 316.59 477.265 316.38 476.385 316.38C475.505 316.38 474.685 316.59 473.925 317.01C473.185 317.43 472.595 318.06 472.155 318.9C471.715 319.72 471.495 320.73 471.495 321.93C471.495 323.71 471.945 325.09 472.845 326.07C473.765 327.03 474.915 327.51 476.295 327.51Z" fill="black"/>
<path d="M491.676 316.11C492.256 315.35 493.046 314.71 494.046 314.19C495.046 313.67 496.176 313.41 497.436 313.41C498.876 313.41 500.186 313.77 501.366 314.49C502.566 315.19 503.506 316.18 504.186 317.46C504.866 318.74 505.206 320.21 505.206 321.87C505.206 323.53 504.866 325.02 504.186 326.34C503.506 327.64 502.566 328.66 501.366 329.4C500.186 330.12 498.876 330.48 497.436 330.48C496.176 330.48 495.056 330.23 494.076 329.73C493.096 329.21 492.296 328.57 491.676 327.81V338.07H488.256V313.68H491.676V316.11ZM501.726 321.87C501.726 320.73 501.486 319.75 501.006 318.93C500.546 318.09 499.926 317.46 499.146 317.04C498.386 316.6 497.566 316.38 496.686 316.38C495.826 316.38 495.006 316.6 494.226 317.04C493.466 317.48 492.846 318.12 492.366 318.96C491.906 319.8 491.676 320.79 491.676 321.93C491.676 323.07 491.906 324.07 492.366 324.93C492.846 325.77 493.466 326.41 494.226 326.85C495.006 327.29 495.826 327.51 496.686 327.51C497.566 327.51 498.386 327.29 499.146 326.85C499.926 326.39 500.546 325.73 501.006 324.87C501.486 324.01 501.726 323.01 501.726 321.87Z" fill="black"/>
<path d="M523.468 313.68L513.328 337.98H509.788L513.148 329.94L506.638 313.68H510.448L515.098 326.28L519.928 313.68H523.468Z" fill="black"/>
<path d="M536.879 330.21L532.079 321.87H529.469V330.21H526.049V309.36H533.249C534.849 309.36 536.199 309.64 537.299 310.2C538.419 310.76 539.249 311.51 539.789 312.45C540.349 313.39 540.629 314.44 540.629 315.6C540.629 316.96 540.229 318.2 539.429 319.32C538.649 320.42 537.439 321.17 535.799 321.57L540.959 330.21H536.879ZM529.469 319.14H533.249C534.529 319.14 535.489 318.82 536.129 318.18C536.789 317.54 537.119 316.68 537.119 315.6C537.119 314.52 536.799 313.68 536.159 313.08C535.519 312.46 534.549 312.15 533.249 312.15H529.469V319.14Z" fill="black"/>
<path d="M546.744 311.49C546.124 311.49 545.604 311.28 545.184 310.86C544.764 310.44 544.554 309.92 544.554 309.3C544.554 308.68 544.764 308.16 545.184 307.74C545.604 307.32 546.124 307.11 546.744 307.11C547.344 307.11 547.854 307.32 548.274 307.74C548.694 308.16 548.904 308.68 548.904 309.3C548.904 309.92 548.694 310.44 548.274 310.86C547.854 311.28 547.344 311.49 546.744 311.49ZM548.424 313.68V330.21H545.004V313.68H548.424Z" fill="black"/>
<path d="M559.574 313.41C560.854 313.41 561.984 313.67 562.964 314.19C563.964 314.69 564.744 315.32 565.304 316.08V313.68H568.754V330.48C568.754 332 568.434 333.35 567.794 334.53C567.154 335.73 566.224 336.67 565.004 337.35C563.804 338.03 562.364 338.37 560.684 338.37C558.444 338.37 556.584 337.84 555.104 336.78C553.624 335.74 552.784 334.32 552.584 332.52H555.974C556.234 333.38 556.784 334.07 557.624 334.59C558.484 335.13 559.504 335.4 560.684 335.4C562.064 335.4 563.174 334.98 564.014 334.14C564.874 333.3 565.304 332.08 565.304 330.48V327.72C564.724 328.5 563.934 329.16 562.934 329.7C561.954 330.22 560.834 330.48 559.574 330.48C558.134 330.48 556.814 330.12 555.614 329.4C554.434 328.66 553.494 327.64 552.794 326.34C552.114 325.02 551.774 323.53 551.774 321.87C551.774 320.21 552.114 318.74 552.794 317.46C553.494 316.18 554.434 315.19 555.614 314.49C556.814 313.77 558.134 313.41 559.574 313.41ZM565.304 321.93C565.304 320.79 565.064 319.8 564.584 318.96C564.124 318.12 563.514 317.48 562.754 317.04C561.994 316.6 561.174 316.38 560.294 316.38C559.414 316.38 558.594 316.6 557.834 317.04C557.074 317.46 556.454 318.09 555.974 318.93C555.514 319.75 555.284 320.73 555.284 321.87C555.284 323.01 555.514 324.01 555.974 324.87C556.454 325.73 557.074 326.39 557.834 326.85C558.614 327.29 559.434 327.51 560.294 327.51C561.174 327.51 561.994 327.29 562.754 326.85C563.514 326.41 564.124 325.77 564.584 324.93C565.064 324.07 565.304 323.07 565.304 321.93Z" fill="black"/>
<path d="M581.796 313.41C583.056 313.41 584.176 313.68 585.156 314.22C586.156 314.76 586.936 315.56 587.496 316.62C588.076 317.68 588.366 318.96 588.366 320.46V330.21H584.976V320.97C584.976 319.49 584.606 318.36 583.866 317.58C583.126 316.78 582.116 316.38 580.836 316.38C579.556 316.38 578.536 316.78 577.776 317.58C577.036 318.36 576.666 319.49 576.666 320.97V330.21H573.246V308.01H576.666V315.6C577.246 314.9 577.976 314.36 578.856 313.98C579.756 313.6 580.736 313.41 581.796 313.41Z" fill="black"/>
<path d="M596.719 316.47V325.62C596.719 326.24 596.859 326.69 597.139 326.97C597.439 327.23 597.939 327.36 598.639 327.36H600.739V330.21H598.039C596.499 330.21 595.319 329.85 594.499 329.13C593.679 328.41 593.268 327.24 593.268 325.62V316.47H591.318V313.68H593.268V309.57H596.719V313.68H600.739V316.47H596.719Z" fill="black"/>
<path d="M623.954 309.36V312.15H615.104V318.3H622.004V321.09H615.104V330.21H611.684V309.36H623.954Z" fill="black"/>
<path d="M628.863 311.49C628.243 311.49 627.723 311.28 627.303 310.86C626.883 310.44 626.673 309.92 626.673 309.3C626.673 308.68 626.883 308.16 627.303 307.74C627.723 307.32 628.243 307.11 628.863 307.11C629.463 307.11 629.973 307.32 630.393 307.74C630.813 308.16 631.023 308.68 631.023 309.3C631.023 309.92 630.813 310.44 630.393 310.86C629.973 311.28 629.463 311.49 628.863 311.49ZM630.543 313.68V330.21H627.123V313.68H630.543Z" fill="black"/>
<path d="M642.113 321.84L647.453 330.21H643.583L640.013 324.6L636.653 330.21H633.083L638.423 322.08L633.083 313.68H636.953L640.523 319.29L643.883 313.68H647.453L642.113 321.84Z" fill="black"/>
<path d="M654.294 309.36L653.904 323.91H651.054L650.664 309.36H654.294ZM652.584 330.42C651.964 330.42 651.444 330.21 651.024 329.79C650.604 329.37 650.394 328.85 650.394 328.23C650.394 327.61 650.604 327.09 651.024 326.67C651.444 326.25 651.964 326.04 652.584 326.04C653.184 326.04 653.694 326.25 654.114 326.67C654.534 327.09 654.744 327.61 654.744 328.23C654.744 328.85 654.534 329.37 654.114 329.79C653.694 330.21 653.184 330.42 652.584 330.42Z" fill="black"/>
<path d="M663.633 316.47V325.62C663.633 326.24 663.773 326.69 664.053 326.97C664.353 327.23 664.853 327.36 665.553 327.36H667.653V330.21H664.953C663.413 330.21 662.233 329.85 661.413 329.13C660.593 328.41 660.183 327.24 660.183 325.62V316.47H658.233V313.68H660.183V309.57H663.633V313.68H667.653V316.47H663.633Z" fill="black"/>
<path d="M680.038 325.56C681.958 323.9 683.468 322.54 684.568 321.48C685.688 320.4 686.618 319.28 687.358 318.12C688.098 316.96 688.468 315.8 688.468 314.64C688.468 313.44 688.178 312.5 687.598 311.82C687.038 311.14 686.148 310.8 684.928 310.8C683.748 310.8 682.828 311.18 682.168 311.94C681.528 312.68 681.188 313.68 681.148 314.94H677.848C677.908 312.66 678.588 310.92 679.888 309.72C681.208 308.5 682.878 307.89 684.898 307.89C687.078 307.89 688.778 308.49 689.998 309.69C691.238 310.89 691.858 312.49 691.858 314.49C691.858 315.93 691.488 317.32 690.748 318.66C690.028 319.98 689.158 321.17 688.138 322.23C687.138 323.27 685.858 324.48 684.298 325.86L682.948 327.06H692.458V329.91H677.878V327.42L680.038 325.56Z" fill="black"/>
<path d="M695.462 318.99C695.462 315.53 696.042 312.83 697.202 310.89C698.382 308.93 700.402 307.95 703.262 307.95C706.122 307.95 708.132 308.93 709.292 310.89C710.472 312.83 711.062 315.53 711.062 318.99C711.062 322.49 710.472 325.23 709.292 327.21C708.132 329.17 706.122 330.15 703.262 330.15C700.402 330.15 698.382 329.17 697.202 327.21C696.042 325.23 695.462 322.49 695.462 318.99ZM707.702 318.99C707.702 317.37 707.592 316 707.372 314.88C707.172 313.76 706.752 312.85 706.112 312.15C705.472 311.43 704.522 311.07 703.262 311.07C702.002 311.07 701.052 311.43 700.412 312.15C699.772 312.85 699.342 313.76 699.122 314.88C698.922 316 698.822 317.37 698.822 318.99C698.822 320.67 698.922 322.08 699.122 323.22C699.322 324.36 699.742 325.28 700.382 325.98C701.042 326.68 702.002 327.03 703.262 327.03C704.522 327.03 705.472 326.68 706.112 325.98C706.772 325.28 707.202 324.36 707.402 323.22C707.602 322.08 707.702 320.67 707.702 318.99Z" fill="black"/>
<path d="M716.571 325.56C718.491 323.9 720.001 322.54 721.101 321.48C722.221 320.4 723.151 319.28 723.891 318.12C724.631 316.96 725.001 315.8 725.001 314.64C725.001 313.44 724.711 312.5 724.131 311.82C723.571 311.14 722.681 310.8 721.461 310.8C720.281 310.8 719.361 311.18 718.701 311.94C718.061 312.68 717.721 313.68 717.681 314.94H714.381C714.441 312.66 715.121 310.92 716.421 309.72C717.741 308.5 719.411 307.89 721.431 307.89C723.611 307.89 725.311 308.49 726.531 309.69C727.771 310.89 728.391 312.49 728.391 314.49C728.391 315.93 728.021 317.32 727.281 318.66C726.561 319.98 725.691 321.17 724.671 322.23C723.671 323.27 722.391 324.48 720.831 325.86L719.481 327.06H728.991V329.91H714.411V327.42L716.571 325.56Z" fill="black"/>
<path d="M731.935 313.74C732.055 311.88 732.765 310.43 734.065 309.39C735.385 308.35 737.065 307.83 739.105 307.83C740.505 307.83 741.715 308.08 742.735 308.58C743.755 309.08 744.525 309.76 745.045 310.62C745.565 311.48 745.825 312.45 745.825 313.53C745.825 314.77 745.495 315.83 744.835 316.71C744.175 317.59 743.385 318.18 742.465 318.48V318.6C743.645 318.96 744.565 319.62 745.225 320.58C745.885 321.52 746.215 322.73 746.215 324.21C746.215 325.39 745.945 326.44 745.405 327.36C744.865 328.28 744.065 329.01 743.005 329.55C741.945 330.07 740.675 330.33 739.195 330.33C737.035 330.33 735.255 329.78 733.855 328.68C732.475 327.56 731.735 325.96 731.635 323.88H734.935C735.015 324.94 735.425 325.81 736.165 326.49C736.905 327.15 737.905 327.48 739.165 327.48C740.385 327.48 741.325 327.15 741.985 326.49C742.645 325.81 742.975 324.94 742.975 323.88C742.975 322.48 742.525 321.49 741.625 320.91C740.745 320.31 739.385 320.01 737.545 320.01H736.765V317.19H737.575C739.195 317.17 740.425 316.9 741.265 316.38C742.125 315.86 742.555 315.04 742.555 313.92C742.555 312.96 742.245 312.2 741.625 311.64C741.005 311.06 740.125 310.77 738.985 310.77C737.865 310.77 736.995 311.06 736.375 311.64C735.755 312.2 735.385 312.9 735.265 313.74H731.935Z" fill="black"/>
<path d="M770.621 325.95H761.891L760.391 330.21H756.821L764.291 309.33H768.251L775.721 330.21H772.121L770.621 325.95ZM769.661 323.16L766.271 313.47L762.851 323.16H769.661Z" fill="black"/>
<path d="M782.389 308.01V330.21H778.969V308.01H782.389Z" fill="black"/>
<path d="M790.299 308.01V330.21H786.879V308.01H790.299Z" fill="black"/>
<path d="M805.619 330.21L800.819 321.87H798.209V330.21H794.789V309.36H801.989C803.589 309.36 804.939 309.64 806.039 310.2C807.159 310.76 807.989 311.51 808.529 312.45C809.089 313.39 809.369 314.44 809.369 315.6C809.369 316.96 808.969 318.2 808.169 319.32C807.389 320.42 806.179 321.17 804.539 321.57L809.699 330.21H805.619ZM798.209 319.14H801.989C803.269 319.14 804.229 318.82 804.869 318.18C805.529 317.54 805.859 316.68 805.859 315.6C805.859 314.52 805.539 313.68 804.899 313.08C804.259 312.46 803.289 312.15 801.989 312.15H798.209V319.14Z" fill="black"/>
<path d="M815.484 311.49C814.864 311.49 814.344 311.28 813.924 310.86C813.504 310.44 813.294 309.92 813.294 309.3C813.294 308.68 813.504 308.16 813.924 307.74C814.344 307.32 814.864 307.11 815.484 307.11C816.084 307.11 816.594 307.32 817.014 307.74C817.434 308.16 817.644 308.68 817.644 309.3C817.644 309.92 817.434 310.44 817.014 310.86C816.594 311.28 816.084 311.49 815.484 311.49ZM817.164 313.68V330.21H813.744V313.68H817.164Z" fill="black"/>
<path d="M828.314 313.41C829.594 313.41 830.724 313.67 831.704 314.19C832.704 314.69 833.484 315.32 834.044 316.08V313.68H837.494V330.48C837.494 332 837.174 333.35 836.534 334.53C835.894 335.73 834.964 336.67 833.744 337.35C832.544 338.03 831.104 338.37 829.424 338.37C827.184 338.37 825.324 337.84 823.844 336.78C822.364 335.74 821.524 334.32 821.324 332.52H824.714C824.974 333.38 825.524 334.07 826.364 334.59C827.224 335.13 828.244 335.4 829.424 335.4C830.804 335.4 831.914 334.98 832.754 334.14C833.614 333.3 834.044 332.08 834.044 330.48V327.72C833.464 328.5 832.674 329.16 831.674 329.7C830.694 330.22 829.574 330.48 828.314 330.48C826.874 330.48 825.554 330.12 824.354 329.4C823.174 328.66 822.234 327.64 821.534 326.34C820.854 325.02 820.514 323.53 820.514 321.87C820.514 320.21 820.854 318.74 821.534 317.46C822.234 316.18 823.174 315.19 824.354 314.49C825.554 313.77 826.874 313.41 828.314 313.41ZM834.044 321.93C834.044 320.79 833.804 319.8 833.324 318.96C832.864 318.12 832.254 317.48 831.494 317.04C830.734 316.6 829.914 316.38 829.034 316.38C828.154 316.38 827.334 316.6 826.574 317.04C825.814 317.46 825.194 318.09 824.714 318.93C824.254 319.75 824.024 320.73 824.024 321.87C824.024 323.01 824.254 324.01 824.714 324.87C825.194 325.73 825.814 326.39 826.574 326.85C827.354 327.29 828.174 327.51 829.034 327.51C829.914 327.51 830.734 327.29 831.494 326.85C832.254 326.41 832.864 325.77 833.324 324.93C833.804 324.07 834.044 323.07 834.044 321.93Z" fill="black"/>
<path d="M850.536 313.41C851.796 313.41 852.916 313.68 853.896 314.22C854.896 314.76 855.676 315.56 856.236 316.62C856.816 317.68 857.106 318.96 857.106 320.46V330.21H853.716V320.97C853.716 319.49 853.346 318.36 852.606 317.58C851.866 316.78 850.856 316.38 849.576 316.38C848.296 316.38 847.276 316.78 846.516 317.58C845.776 318.36 845.406 319.49 845.406 320.97V330.21H841.986V308.01H845.406V315.6C845.986 314.9 846.716 314.36 847.596 313.98C848.496 313.6 849.476 313.41 850.536 313.41Z" fill="black"/>
<path d="M865.459 316.47V325.62C865.459 326.24 865.599 326.69 865.879 326.97C866.179 327.23 866.679 327.36 867.379 327.36H869.479V330.21H866.779C865.239 330.21 864.059 329.85 863.239 329.13C862.419 328.41 862.009 327.24 862.009 325.62V316.47H860.059V313.68H862.009V309.57H865.459V313.68H869.479V316.47H865.459Z" fill="black"/>
<path d="M891.254 330.21L886.454 321.87H883.844V330.21H880.424V309.36H887.624C889.224 309.36 890.574 309.64 891.674 310.2C892.794 310.76 893.624 311.51 894.164 312.45C894.724 313.39 895.004 314.44 895.004 315.6C895.004 316.96 894.604 318.2 893.804 319.32C893.024 320.42 891.814 321.17 890.174 321.57L895.334 330.21H891.254ZM883.844 319.14H887.624C888.904 319.14 889.864 318.82 890.504 318.18C891.164 317.54 891.494 316.68 891.494 315.6C891.494 314.52 891.174 313.68 890.534 313.08C889.894 312.46 888.924 312.15 887.624 312.15H883.844V319.14Z" fill="black"/>
<path d="M914.529 321.54C914.529 322.16 914.489 322.72 914.409 323.22H901.779C901.879 324.54 902.369 325.6 903.249 326.4C904.129 327.2 905.209 327.6 906.489 327.6C908.329 327.6 909.629 326.83 910.389 325.29H914.079C913.579 326.81 912.669 328.06 911.349 329.04C910.049 330 908.429 330.48 906.489 330.48C904.909 330.48 903.489 330.13 902.229 329.43C900.989 328.71 900.009 327.71 899.289 326.43C898.589 325.13 898.239 323.63 898.239 321.93C898.239 320.23 898.579 318.74 899.259 317.46C899.959 316.16 900.929 315.16 902.169 314.46C903.429 313.76 904.869 313.41 906.489 313.41C908.049 313.41 909.439 313.75 910.659 314.43C911.879 315.11 912.829 316.07 913.509 317.31C914.189 318.53 914.529 319.94 914.529 321.54ZM910.959 320.46C910.939 319.2 910.489 318.19 909.609 317.43C908.729 316.67 907.639 316.29 906.339 316.29C905.159 316.29 904.149 316.67 903.309 317.43C902.469 318.17 901.969 319.18 901.809 320.46H910.959Z" fill="black"/>
<path d="M923.895 330.48C922.595 330.48 921.424 330.25 920.385 329.79C919.365 329.31 918.555 328.67 917.955 327.87C917.355 327.05 917.034 326.14 916.995 325.14H920.535C920.595 325.84 920.925 326.43 921.525 326.91C922.145 327.37 922.915 327.6 923.835 327.6C924.795 327.6 925.535 327.42 926.055 327.06C926.595 326.68 926.865 326.2 926.865 325.62C926.865 325 926.565 324.54 925.965 324.24C925.385 323.94 924.455 323.61 923.175 323.25C921.935 322.91 920.925 322.58 920.145 322.26C919.365 321.94 918.685 321.45 918.104 320.79C917.544 320.13 917.265 319.26 917.265 318.18C917.265 317.3 917.525 316.5 918.045 315.78C918.565 315.04 919.305 314.46 920.265 314.04C921.245 313.62 922.365 313.41 923.625 313.41C925.505 313.41 927.015 313.89 928.155 314.85C929.315 315.79 929.935 317.08 930.015 318.72H926.595C926.535 317.98 926.234 317.39 925.695 316.95C925.155 316.51 924.424 316.29 923.505 316.29C922.604 316.29 921.915 316.46 921.435 316.8C920.955 317.14 920.715 317.59 920.715 318.15C920.715 318.59 920.875 318.96 921.195 319.26C921.515 319.56 921.904 319.8 922.365 319.98C922.825 320.14 923.505 320.35 924.405 320.61C925.605 320.93 926.585 321.26 927.345 321.6C928.125 321.92 928.794 322.4 929.354 323.04C929.914 323.68 930.204 324.53 930.224 325.59C930.224 326.53 929.965 327.37 929.445 328.11C928.924 328.85 928.185 329.43 927.224 329.85C926.284 330.27 925.175 330.48 923.895 330.48Z" fill="black"/>
<path d="M949.07 321.54C949.07 322.16 949.03 322.72 948.95 323.22H936.32C936.42 324.54 936.91 325.6 937.79 326.4C938.67 327.2 939.75 327.6 941.03 327.6C942.87 327.6 944.17 326.83 944.93 325.29H948.62C948.12 326.81 947.21 328.06 945.89 329.04C944.59 330 942.97 330.48 941.03 330.48C939.45 330.48 938.03 330.13 936.77 329.43C935.53 328.71 934.55 327.71 933.83 326.43C933.13 325.13 932.78 323.63 932.78 321.93C932.78 320.23 933.12 318.74 933.8 317.46C934.5 316.16 935.47 315.16 936.71 314.46C937.97 313.76 939.41 313.41 941.03 313.41C942.59 313.41 943.98 313.75 945.2 314.43C946.42 315.11 947.37 316.07 948.05 317.31C948.73 318.53 949.07 319.94 949.07 321.54ZM945.5 320.46C945.48 319.2 945.03 318.19 944.15 317.43C943.27 316.67 942.18 316.29 940.88 316.29C939.7 316.29 938.69 316.67 937.85 317.43C937.01 318.17 936.51 319.18 936.35 320.46H945.5Z" fill="black"/>
<path d="M955.856 316.08C956.356 315.24 957.016 314.59 957.836 314.13C958.676 313.65 959.666 313.41 960.806 313.41V316.95H959.936C958.596 316.95 957.576 317.29 956.876 317.97C956.196 318.65 955.856 319.83 955.856 321.51V330.21H952.436V313.68H955.856V316.08Z" fill="black"/>
<path d="M970.339 327.15L975.019 313.68H978.649L972.349 330.21H968.269L961.999 313.68H965.659L970.339 327.15Z" fill="black"/>
<path d="M996.384 321.54C996.384 322.16 996.344 322.72 996.264 323.22H983.634C983.734 324.54 984.224 325.6 985.104 326.4C985.984 327.2 987.064 327.6 988.344 327.6C990.184 327.6 991.484 326.83 992.244 325.29H995.934C995.434 326.81 994.524 328.06 993.204 329.04C991.904 330 990.284 330.48 988.344 330.48C986.764 330.48 985.344 330.13 984.084 329.43C982.844 328.71 981.864 327.71 981.144 326.43C980.444 325.13 980.094 323.63 980.094 321.93C980.094 320.23 980.434 318.74 981.114 317.46C981.814 316.16 982.784 315.16 984.024 314.46C985.284 313.76 986.724 313.41 988.344 313.41C989.904 313.41 991.294 313.75 992.514 314.43C993.734 315.11 994.684 316.07 995.364 317.31C996.044 318.53 996.384 319.94 996.384 321.54ZM992.814 320.46C992.794 319.2 992.344 318.19 991.464 317.43C990.584 316.67 989.494 316.29 988.194 316.29C987.014 316.29 986.004 316.67 985.164 317.43C984.324 318.17 983.824 319.18 983.664 320.46H992.814Z" fill="black"/>
<path d="M998.61 321.87C998.61 320.21 998.95 318.74 999.63 317.46C1000.33 316.18 1001.27 315.19 1002.45 314.49C1003.65 313.77 1004.98 313.41 1006.44 313.41C1007.52 313.41 1008.58 313.65 1009.62 314.13C1010.68 314.59 1011.52 315.21 1012.14 315.99V308.01H1015.59V330.21H1012.14V327.72C1011.58 328.52 1010.8 329.18 1009.8 329.7C1008.82 330.22 1007.69 330.48 1006.41 330.48C1004.97 330.48 1003.65 330.12 1002.45 329.4C1001.27 328.66 1000.33 327.64 999.63 326.34C998.95 325.02 998.61 323.53 998.61 321.87ZM1012.14 321.93C1012.14 320.79 1011.9 319.8 1011.42 318.96C1010.96 318.12 1010.35 317.48 1009.59 317.04C1008.83 316.6 1008.01 316.38 1007.13 316.38C1006.25 316.38 1005.43 316.6 1004.67 317.04C1003.91 317.46 1003.29 318.09 1002.81 318.93C1002.35 319.75 1002.12 320.73 1002.12 321.87C1002.12 323.01 1002.35 324.01 1002.81 324.87C1003.29 325.73 1003.91 326.39 1004.67 326.85C1005.45 327.29 1006.27 327.51 1007.13 327.51C1008.01 327.51 1008.83 327.29 1009.59 326.85C1010.35 326.41 1010.96 325.77 1011.42 324.93C1011.9 324.07 1012.14 323.07 1012.14 321.93Z" fill="black"/>
<path d="M684.375 207.898C684.375 216.011 677.801 222.585 669.688 222.585H593.312C585.202 222.585 578.625 216.011 578.625 207.898V131.523C578.625 123.409 585.202 116.835 593.312 116.835H669.688C677.801 116.835 684.375 123.409 684.375 131.523V207.898Z" fill="#0288D1"/>
<path d="M596.25 155.023H610.938V204.96H596.25V155.023ZM603.55 149.148H603.467C599.085 149.148 596.25 145.881 596.25 141.801C596.25 137.633 599.173 134.46 603.635 134.46C608.103 134.46 610.855 137.633 610.938 141.801C610.938 145.878 608.103 149.148 603.55 149.148ZM666.75 204.96H652.062V178.232C652.062 171.775 648.464 167.369 642.686 167.369C638.277 167.369 635.892 170.342 634.734 173.215C634.311 174.243 634.438 177.086 634.438 178.523V204.96H619.75V155.023H634.438V162.707C636.555 159.429 639.872 155.023 648.355 155.023C658.866 155.023 666.747 161.632 666.747 176.39L666.75 204.96Z" fill="white"/>
<path d="M896.631 119.271C892.001 121.332 887.02 122.707 881.767 123.358C887.108 120.171 891.217 115.089 893.145 109.085C888.147 112.029 882.611 114.192 876.721 115.332C872.017 110.32 865.308 107.21 857.875 107.21C843.596 107.21 832.023 118.74 832.023 132.956C832.023 134.968 832.257 136.927 832.698 138.83C811.217 137.747 792.164 127.484 779.418 111.909C777.179 115.715 775.919 120.171 775.919 124.874C775.919 133.811 780.472 141.679 787.415 146.315C783.177 146.185 779.188 145 775.695 143.1C775.695 143.178 775.695 143.294 775.695 143.403C775.695 155.892 784.609 166.293 796.424 168.66C794.264 169.254 791.982 169.585 789.631 169.585C787.961 169.585 786.334 169.395 784.759 169.11C788.049 179.317 797.592 186.777 808.9 186.999C800.053 193.893 788.91 198.022 776.794 198.022C774.701 198.022 772.654 197.902 770.631 197.656C782.078 204.94 795.671 209.21 810.261 209.21C857.805 209.21 883.815 169.972 883.815 135.932C883.815 134.817 883.78 133.706 883.727 132.608C888.802 129.007 893.176 124.462 896.631 119.271Z" fill="#03A9F4"/>
<path d="M463.12 142.157C462.053 142.85 460.533 143.49 459.893 144.21C459.653 144.45 459.52 144.717 459.573 144.984V147.73L458.773 150.424L457.973 153.09L457.093 156.024L455.28 162.024L453.52 167.944L452.187 172.397C452.187 173.09 452.16 173.784 452.107 174.45C451.92 177.01 451.387 179.464 450.533 181.757C450.027 183.17 449.413 184.53 448.667 185.81C448.4 186.317 448.08 186.824 447.76 187.304C446.693 188.984 445.413 190.53 444 191.89C442.907 192.984 441.707 193.997 440.4 194.85C440.4 194.85 440.4 194.85 440.373 194.85C440.16 195.037 439.92 195.197 439.653 195.33C438.827 195.89 437.947 196.37 437.04 196.797C436.427 197.117 435.813 197.384 435.173 197.624C435.04 197.704 434.88 197.757 434.747 197.81C433.227 198.53 431.467 199.01 429.707 199.25C429.6 199.277 429.52 199.277 429.413 199.304C428.347 199.49 427.307 199.65 426.24 199.73C425.76 199.784 425.253 199.81 424.773 199.81L422.88 199.704L413.76 199.224C413.76 199.197 413.733 199.224 413.733 199.224L409.147 198.984C408.8 198.984 408.427 198.984 408.08 198.957C406.64 198.904 405.253 198.744 403.867 198.45C403.84 198.45 403.84 198.45 403.84 198.45C401.307 197.97 398.88 197.117 396.613 195.97C395.36 195.33 394.133 194.61 392.987 193.784C392.507 193.437 392.053 193.064 391.6 192.664C390.32 191.597 389.173 190.45 388.107 189.277C387.947 189.117 387.813 188.957 387.68 188.797C387.52 188.637 387.36 188.45 387.227 188.29C386.213 187.01 385.36 185.704 384.667 184.317C384.027 183.09 383.52 181.784 383.12 180.344C382.96 179.837 382.827 179.357 382.72 178.824C382.693 178.797 382.667 178.744 382.667 178.69C382.4 177.597 382.16 176.45 382.027 175.304C381.867 174.424 381.787 173.544 381.787 172.637C381.733 172.29 381.733 171.917 381.733 171.57L386.827 163.704L391.813 156.024L394.08 152.53L396.133 149.384L396.827 148.29V145.544C396.88 144.93 396.907 144.29 396.88 143.704C396.853 141.837 396.48 140.024 395.867 138.29C395.28 136.45 394.453 134.717 393.6 133.117C392.587 131.277 391.52 129.624 390.64 128.13C389.333 125.944 388.427 124.157 388.667 122.904C390.587 122.45 392.613 122.21 394.667 122.21H437.333C448.48 122.21 458.08 129.144 462.053 138.904C462.48 139.944 462.853 141.037 463.12 142.157Z" fill="#304FFE"/>
<path d="M464 148.877V149.597L460.32 151.73L457.973 153.09L455.387 154.584L450.213 157.597L445.147 160.53L439.973 163.517L437.92 164.717C437.92 165.997 437.6 167.17 437.013 168.237C436.187 169.784 434.8 171.064 433.04 172.157C431.253 173.25 429.067 174.13 426.613 174.77C426.613 174.77 426.613 174.744 426.587 174.77C417.093 177.224 404.133 176.104 397.84 171.41C396.08 170.104 394.853 168.504 394.32 166.664C394.16 166.05 394.08 165.384 394.08 164.717V145.544C394.107 145.144 393.84 144.744 393.36 144.344C391.92 143.197 388.533 142.104 384.747 141.01C381.787 140.184 378.613 139.357 375.947 138.557C373.84 137.917 372.053 137.277 370.987 136.664C371.467 135.73 372.027 134.797 372.613 133.917C376.347 128.45 382.053 124.424 388.667 122.904C390.587 122.45 392.613 122.21 394.667 122.21H423.467C437.787 124.717 450.987 130.557 462.053 138.904C462.48 139.944 462.853 141.037 463.12 142.157C463.6 143.917 463.893 145.73 463.973 147.624C464 148.024 464 148.45 464 148.877Z" fill="#4928F4"/>
<path d="M464 148.877V160.637L463.413 162.45L461.413 168.664L459.333 175.064L458.24 178.477L457.227 181.65L456.24 184.664L455.28 187.65L454.773 189.224L454.107 191.304C454.107 193.33 454.053 195.117 453.92 196.637C453.893 196.797 453.867 196.957 453.867 197.117C453.707 198.53 453.493 199.73 453.147 200.744C453.12 200.904 453.067 201.064 453.013 201.197C452.32 203.117 451.28 204.344 449.733 205.144C449.36 205.357 448.933 205.517 448.48 205.677C447.067 206.157 445.28 206.397 443.093 206.53C441.493 206.637 439.653 206.664 437.573 206.664H435.733L432.56 206.53L432 206.504L426.213 206.264L420.347 206.024L401.013 205.224L396 205.01H395.307C393.227 204.984 391.44 204.85 389.893 204.637C387.653 204.29 385.92 203.704 384.613 202.824C382.747 201.624 381.653 199.864 381.013 197.41C380.853 196.824 380.72 196.21 380.64 195.544C380.373 193.997 380.24 192.21 380.16 190.21C380.16 189.81 380.16 189.41 380.133 188.984C380.107 188.957 380.133 188.957 380.133 188.957V187.41C380.107 186.637 380.107 185.837 380.107 185.01L380.24 180.717L380.32 177.65L380.427 174.077V173.57L380.613 167.01L380.8 160.45L380.987 154.29L381.147 148.237L381.2 146.637C381.2 145.81 378.4 145.33 375.28 144.93C372.8 144.61 370.08 144.317 368.453 143.944C368.587 143.33 368.72 142.717 368.88 142.13C369.36 140.21 370.08 138.397 370.987 136.664C371.467 135.73 372.027 134.797 372.613 133.917C378.373 131.384 384.373 129.41 390.64 128.13C396.133 126.984 401.867 126.37 407.787 126.37C427.413 126.37 445.547 133.01 459.893 144.21C461.28 145.277 462.64 146.424 463.973 147.624C464 148.024 464 148.45 464 148.877Z" fill="#6200EA"/>
<path d="M464 155.197V167.304L462.533 170.13L459.733 175.597L458.24 178.477L456.88 181.117L456.293 182.264C456.293 183.09 456.293 183.89 456.24 184.664C456.24 185.81 456.187 186.904 456.107 187.917C456 189.117 455.84 190.21 455.68 191.224C455.28 193.33 454.72 195.144 453.92 196.637C453.813 196.824 453.707 197.01 453.6 197.17C453.307 197.65 452.96 198.104 452.587 198.53C452.107 199.117 451.573 199.624 450.96 200.05C450.053 200.744 448.987 201.304 447.76 201.73C446.24 202.29 444.48 202.664 442.4 202.877C441.04 203.01 439.547 203.09 437.92 203.09L436.8 203.144L431.253 203.464H431.227L425.333 203.81L419.333 204.157L411.067 204.637L401.013 205.224L399.547 205.304C398.187 205.304 396.907 205.224 395.68 205.064C395.547 205.037 395.44 205.01 395.307 205.01C393.493 204.717 391.84 204.237 390.347 203.57C388.533 202.77 386.96 201.704 385.627 200.424C384.453 199.277 383.44 197.97 382.613 196.504C382.427 196.157 382.24 195.837 382.08 195.464C381.28 193.89 380.64 192.13 380.16 190.21C380.08 189.89 380 189.544 379.947 189.197C379.787 188.584 379.653 187.944 379.573 187.277C379.28 185.57 379.12 183.757 379.04 181.864V181.837C379.013 181.064 378.987 180.317 378.987 179.517L377.68 176.397L377.493 175.917L377.333 175.517L375.333 170.744L375.013 169.97L373.093 165.357L370.96 160.21C370.96 160.21 370.96 160.21 370.933 160.21L368.773 155.01L368 153.117V148.877C368 147.197 368.16 145.544 368.453 143.944C368.587 143.33 368.72 142.717 368.88 142.13C371.147 140.824 373.52 139.624 375.947 138.557C381.493 136.077 387.44 134.237 393.6 133.117C398.187 132.29 402.96 131.837 407.787 131.837C427.28 131.837 444.96 138.904 458.773 150.424C459.307 150.85 459.813 151.277 460.32 151.73C461.573 152.824 462.8 153.97 464 155.197Z" fill="#673AB7"/>
<path d="M464 163.144V176.85L462.48 180.024L459.6 186.024L459.573 186.104C459.573 187.25 459.52 188.29 459.44 189.224C459.173 192.29 458.427 194.237 457.2 195.437C456.32 196.344 455.227 196.85 453.867 197.117C453.787 197.144 453.68 197.144 453.6 197.17C453.173 197.25 452.72 197.304 452.24 197.304C450.587 197.464 448.64 197.357 446.4 197.197C446.16 197.197 445.893 197.17 445.627 197.144C444 197.037 442.267 196.93 440.347 196.85C439.307 196.824 438.213 196.797 437.093 196.797H437.04L434.347 197.01H434.32L428.267 197.437L421.36 197.97L420.347 198.05L412.267 198.637L408.08 198.957L403.947 199.25C403.227 199.25 402.533 199.25 401.84 199.224C401.84 199.224 401.813 199.197 401.813 199.224C398.8 199.17 396.107 198.984 393.707 198.53C391.493 198.157 389.547 197.57 387.893 196.69C386.187 195.864 384.773 194.69 383.627 193.197C382.533 191.73 381.733 189.89 381.227 187.677C381.227 187.65 381.227 187.65 381.227 187.65C380.853 185.864 380.64 183.784 380.64 181.437L380.24 180.717L377.867 176.477L377.52 175.89L377.333 175.517L374.853 171.117L373.627 168.904L372.08 166.157L369.413 161.384L368 158.877V149.064C370.347 147.517 372.773 146.157 375.28 144.93C378.32 143.384 381.467 142.077 384.747 141.01C388.32 139.837 392.053 138.904 395.867 138.29C399.733 137.65 403.707 137.33 407.787 137.33C425.92 137.33 442.56 143.81 455.387 154.584C455.973 155.037 456.533 155.544 457.093 156.024C459.333 158.024 461.467 160.184 463.413 162.45C463.627 162.69 463.84 162.904 464 163.144Z" fill="#8E24AA"/>
<path d="M464 172.104V191.384C463.36 191.01 462.48 190.557 461.387 190.077C460.8 189.784 460.133 189.49 459.44 189.224C458.427 188.77 457.333 188.344 456.107 187.917C455.84 187.81 455.573 187.73 455.28 187.65C454.8 187.464 454.293 187.304 453.787 187.144C452.213 186.664 450.48 186.21 448.667 185.81C447.973 185.677 447.253 185.544 446.533 185.437C444.213 185.037 441.733 184.797 439.147 184.77C438.933 184.744 438.693 184.744 438.48 184.744L431.627 184.797L422.293 184.85H422.267L402.293 185.01C395.947 185.01 392.053 186.53 389.707 187.144C389.707 187.144 389.68 187.144 389.68 187.17C387.2 187.81 386.427 187.41 386.213 183.064C386.16 181.864 386.133 180.317 386.133 178.424L384.64 177.277L382.027 175.304L380.427 174.077L380.107 173.837L375.68 170.477L375.013 169.97L373.627 168.904L371.067 166.984L368 164.637V155.57C368.267 155.357 368.507 155.17 368.773 155.01C372.64 152.344 376.773 150.077 381.147 148.237C385.04 146.584 389.147 145.277 393.36 144.344C394.507 144.104 395.68 143.864 396.88 143.704C400.427 143.09 404.08 142.797 407.787 142.797C423.813 142.797 438.533 148.37 450.213 157.597C451.973 158.984 453.68 160.45 455.28 162.024C457.467 164.104 459.52 166.317 461.413 168.664C461.787 169.144 462.16 169.624 462.533 170.13C463.04 170.77 463.52 171.437 464 172.104Z" fill="#C2185B"/>
<path d="M464 182.797V191.544C464 193.277 463.84 194.984 463.52 196.637C463.04 199.09 462.213 201.437 461.093 203.624C460.507 203.757 459.84 203.757 459.093 203.65C457.413 203.357 455.44 202.477 453.307 201.33C453.2 201.304 453.093 201.25 453.013 201.197C452.347 200.85 451.653 200.477 450.96 200.05C449.547 199.277 448.053 198.424 446.56 197.624C446.24 197.464 445.92 197.304 445.627 197.144C443.92 196.264 442.16 195.464 440.4 194.85C440.4 194.85 440.4 194.85 440.373 194.85C440 194.717 439.6 194.584 439.2 194.477C437.68 194.05 436.133 193.784 434.64 193.784L431.707 192.93L418.72 189.17C418.72 189.17 418.72 189.17 418.693 189.17L410.72 186.85H410.693L407.227 185.837C397.2 185.837 391.04 190.104 388.053 188.477C386.88 187.864 386.187 186.317 385.947 183.277C385.867 182.424 385.84 181.464 385.84 180.344L382.72 178.824L382.587 178.77H382.56L380.32 177.65L377.867 176.477L377.68 176.397L377.227 176.157L372 173.624L368 171.677V162.53C368.453 162.13 368.933 161.757 369.413 161.384C369.92 160.984 370.427 160.61 370.933 160.21C370.96 160.21 370.96 160.21 370.96 160.21C374.107 157.944 377.44 155.944 380.987 154.29C385.12 152.317 389.52 150.797 394.08 149.81C394.747 149.65 395.44 149.49 396.133 149.384C399.92 148.664 403.813 148.29 407.787 148.29C421.84 148.29 434.747 152.85 445.147 160.53C448.16 162.77 450.96 165.25 453.52 167.944C455.627 170.157 457.573 172.557 459.333 175.064C459.467 175.25 459.6 175.437 459.733 175.597C460.72 177.037 461.627 178.504 462.48 180.024C463.04 180.93 463.52 181.864 464 182.797Z" fill="#D81B60"/>
<path d="M463.52 196.637C463.04 199.09 462.213 201.437 461.093 203.624C460.587 204.61 460.027 205.544 459.413 206.45C459.04 207.01 458.64 207.544 458.24 208.05C457.28 207.677 455.867 207.144 454.133 206.557C454.133 206.557 454.133 206.557 454.133 206.53C452.827 206.077 451.333 205.597 449.733 205.144C449.28 205.01 448.827 204.877 448.347 204.744C446.453 204.237 444.48 203.784 442.56 203.517C440.96 203.25 439.387 203.09 437.92 203.09L436.693 202.744H436.667L430.213 200.877L426.24 199.73L421.813 198.45H421.787L420.347 198.05L402.933 193.037L397.92 191.597L394.187 190.717L388.107 189.277L387.36 189.09C387.36 189.09 387.36 189.09 387.333 189.09L381.227 187.677C381.227 187.65 381.227 187.65 381.227 187.65L380.133 187.41L379.573 187.277L375.12 186.237L374.613 186.104L370.827 182.984L368 180.61V169.73C368.987 168.77 370 167.864 371.067 166.984C371.387 166.69 371.733 166.424 372.08 166.157C372.4 165.89 372.747 165.624 373.093 165.357C375.52 163.517 378.08 161.864 380.8 160.45C384.267 158.584 387.947 157.09 391.813 156.024C392.56 155.784 393.307 155.57 394.08 155.41C398.453 154.317 403.04 153.757 407.787 153.757C419.707 153.757 430.8 157.357 439.973 163.517C444.533 166.584 448.64 170.264 452.107 174.45C453.867 176.557 455.467 178.77 456.88 181.117C457.013 181.304 457.12 181.464 457.227 181.65C458.08 183.064 458.88 184.53 459.6 186.024C460.267 187.357 460.853 188.69 461.387 190.077C462.24 192.21 462.933 194.397 463.52 196.637Z" fill="#F50057"/>
<path d="M459.413 206.45C459.04 207.01 458.64 207.544 458.24 208.05C457.067 209.517 455.787 210.85 454.347 212.024C453.093 213.064 451.76 213.997 450.347 214.797C449.813 214.664 449.28 214.504 448.72 214.29C446.96 213.677 445.12 212.664 443.413 211.597C440.853 209.97 438.64 208.21 437.653 207.41C437.28 207.09 437.093 206.93 437.093 206.93L432.56 206.53L432 206.477L426.133 205.97L420.053 205.437L411.067 204.637L396.827 203.384L396.773 203.357L391.76 200.93L386.693 198.477L382.613 196.504L381.733 196.077L380.64 195.544L376.853 193.704L371.813 191.277L370.24 190.504L368 189.81V177.89C369.253 176.397 370.587 174.984 372 173.624C372.907 172.77 373.867 171.917 374.853 171.117C375.013 170.984 375.173 170.85 375.333 170.744C375.44 170.61 375.573 170.53 375.68 170.477C377.253 169.197 378.907 168.05 380.613 167.01C382.587 165.757 384.667 164.637 386.827 163.704C389.147 162.664 391.573 161.784 394.08 161.117C398.427 159.89 403.04 159.25 407.787 159.25C418.667 159.25 428.72 162.557 437.013 168.237C442.32 171.864 446.907 176.45 450.533 181.757C451.733 183.464 452.8 185.277 453.787 187.144C454.133 187.837 454.48 188.53 454.773 189.224C455.093 189.89 455.387 190.557 455.68 191.224C456.24 192.61 456.747 193.997 457.2 195.437C458.053 198.104 458.693 200.824 459.093 203.65C459.227 204.584 459.333 205.517 459.413 206.45Z" fill="#FF1744"/>
<path d="M454.373 211.33C454.373 211.544 454.373 211.784 454.347 212.024C453.093 213.064 451.76 213.997 450.347 214.797C449.76 215.117 449.173 215.437 448.56 215.704C447.947 215.997 447.333 216.264 446.693 216.504C445.787 216.024 444.56 215.437 443.253 214.877C441.413 214.05 439.413 213.304 437.867 213.064C437.493 212.984 437.147 212.957 436.827 212.957L432.453 212.397H432.4L426.96 211.677L421.467 210.957L418.907 210.637L398.747 208.024C397.44 208.024 396.053 207.944 394.613 207.757C392.853 207.597 391.013 207.33 389.173 206.957C387.36 206.637 385.52 206.21 383.76 205.757C381.92 205.33 380.107 204.824 378.427 204.344C376.48 203.757 374.667 203.197 373.147 202.69C371.893 202.29 370.827 201.917 370 201.624C369.52 200.477 369.12 199.277 368.827 198.05C368.267 195.97 368 193.784 368 191.544V187.09C368.853 185.677 369.787 184.29 370.827 182.984C372.72 180.477 374.88 178.184 377.227 176.157C377.307 176.05 377.413 175.97 377.493 175.917L377.52 175.89C378.347 175.144 379.2 174.477 380.107 173.837C380.213 173.73 380.32 173.65 380.427 173.57C380.853 173.25 381.307 172.93 381.787 172.637C385.6 170.05 389.813 168.024 394.32 166.664C398.587 165.384 403.093 164.717 407.787 164.717C417.093 164.717 425.787 167.464 433.04 172.157C438.4 175.597 443.013 180.13 446.533 185.437C446.96 186.05 447.36 186.664 447.76 187.304C449.6 190.424 451.12 193.784 452.24 197.304C452.373 197.704 452.48 198.104 452.587 198.53C452.8 199.25 452.987 199.997 453.147 200.744C453.2 200.93 453.253 201.117 453.307 201.33C453.68 203.01 453.947 204.77 454.133 206.53C454.133 206.557 454.133 206.557 454.133 206.557C454.293 208.13 454.373 209.73 454.373 211.33Z" fill="#FF5722"/>
<path d="M448.88 211.33C448.88 212.264 448.827 213.277 448.72 214.29C448.667 214.77 448.613 215.25 448.56 215.704C447.947 215.997 447.333 216.264 446.693 216.504C445.493 216.957 444.267 217.33 443.013 217.597C442.16 217.784 441.28 217.944 440.4 218.024H440.373C439.547 217.517 438.587 216.904 437.6 216.21C435.813 214.957 433.947 213.544 432.453 212.397C432.427 212.37 432.427 212.37 432.4 212.344C430.827 211.144 429.707 210.237 429.707 210.237L426.88 210.344L421.44 210.53L418.907 210.637L408.72 211.01L400.107 211.33C399.547 211.357 398.88 211.357 398.053 211.33H398.027C396.907 211.304 395.573 211.224 394.107 211.09C392.4 210.957 390.533 210.797 388.64 210.61C386.8 210.397 384.933 210.184 383.147 209.97C381.173 209.757 379.307 209.517 377.707 209.304C376.453 209.144 375.36 209.01 374.48 208.904C373.733 208.05 373.067 207.17 372.427 206.21C371.467 204.77 370.64 203.25 370 201.624C369.52 200.477 369.12 199.277 368.827 198.05C369.6 195.677 370.613 193.437 371.813 191.277C372.773 189.517 373.893 187.837 375.12 186.237C376.32 184.664 377.627 183.197 379.04 181.864V181.837C379.44 181.437 379.84 181.064 380.24 180.717C380.987 180.024 381.76 179.384 382.56 178.77H382.587C382.613 178.717 382.64 178.717 382.667 178.69C383.307 178.184 383.973 177.73 384.64 177.277C388.587 174.584 393.04 172.584 397.84 171.41C401.013 170.637 404.347 170.21 407.787 170.21C414.56 170.21 420.96 171.837 426.587 174.77H426.613C431.44 177.25 435.707 180.664 439.147 184.77C441.04 186.957 442.667 189.357 444 191.89C444.933 193.597 445.733 195.384 446.4 197.197C446.453 197.357 446.507 197.49 446.56 197.624C447.013 198.957 447.413 200.344 447.76 201.73C448 202.717 448.187 203.73 448.347 204.744C448.4 205.064 448.453 205.357 448.48 205.677C448.747 207.517 448.88 209.41 448.88 211.33Z" fill="#FF6F00"/>
<path d="M443.413 211.33V211.597C443.413 212.504 443.333 213.65 443.253 214.877C443.173 215.784 443.093 216.717 443.013 217.597C442.16 217.784 441.28 217.944 440.4 218.024H440.373C439.36 218.157 438.373 218.21 437.333 218.21H432.667L431.653 217.917L426.4 216.317L421.067 214.717L408.72 211.01L403.387 209.41C403.387 209.41 401.173 210.29 398.053 211.33H398.027C396.827 211.73 395.52 212.157 394.133 212.584C392.4 213.09 390.56 213.597 388.747 213.997C386.88 214.424 385.04 214.744 383.387 214.877C382.88 214.93 382.373 214.957 381.92 214.957C380.427 214.13 378.987 213.144 377.68 212.05C376.533 211.09 375.467 210.05 374.48 208.904C373.733 208.05 373.067 207.17 372.427 206.21C372.613 205.01 372.827 203.837 373.147 202.69C373.947 199.517 375.2 196.477 376.853 193.704C377.76 192.13 378.773 190.61 379.947 189.197C379.973 189.117 380.053 189.037 380.133 188.984C380.107 188.957 380.133 188.957 380.133 188.957C380.48 188.504 380.853 188.077 381.227 187.677C381.227 187.65 381.227 187.65 381.227 187.65C382.32 186.477 383.44 185.357 384.667 184.317C385.093 183.97 385.493 183.624 385.947 183.277C386.027 183.197 386.107 183.144 386.213 183.064C392.213 178.477 399.707 175.704 407.787 175.704C416.96 175.704 425.307 179.144 431.627 184.797C434.667 187.544 437.253 190.824 439.2 194.477C439.36 194.744 439.52 195.037 439.653 195.33C439.893 195.81 440.133 196.317 440.347 196.85C441.227 198.77 441.92 200.797 442.4 202.877C442.453 203.09 442.507 203.304 442.56 203.517C442.773 204.504 442.96 205.517 443.093 206.53C443.307 208.104 443.413 209.704 443.413 211.33Z" fill="#FF9800"/>
<path d="M437.92 211.33C437.92 211.864 437.893 212.45 437.867 213.064C437.813 214.05 437.733 215.117 437.6 216.21C437.547 216.877 437.44 217.544 437.333 218.21H422.72L419.893 217.757L408.853 215.997L407.28 215.757L403.68 215.17C402.107 215.17 398.693 215.864 395.093 216.53C393.2 216.877 391.28 217.25 389.547 217.49C389.333 217.517 389.12 217.544 388.933 217.57H388.907C387.04 217.17 385.227 216.557 383.52 215.757C382.987 215.517 382.453 215.25 381.92 214.957C380.427 214.13 378.987 213.144 377.68 212.05C377.653 211.73 377.627 211.464 377.627 211.33C377.627 210.637 377.653 209.97 377.707 209.304C377.813 207.597 378.053 205.944 378.427 204.344C379.013 201.917 379.867 199.57 381.013 197.41C381.227 196.957 381.467 196.504 381.733 196.077C381.84 195.864 381.973 195.677 382.08 195.464C382.56 194.69 383.093 193.944 383.627 193.197C384.747 191.73 386 190.344 387.333 189.09C387.36 189.09 387.36 189.09 387.36 189.09C387.467 188.984 387.573 188.877 387.68 188.797C387.813 188.69 387.92 188.557 388.053 188.477C388.587 187.997 389.12 187.57 389.68 187.17C389.68 187.144 389.707 187.144 389.707 187.144C394.747 183.384 400.987 181.17 407.787 181.17C413.067 181.17 417.973 182.504 422.267 184.85H422.293C425.973 186.877 429.173 189.624 431.707 192.93C432.693 194.21 433.573 195.57 434.32 197.01H434.347C434.48 197.277 434.613 197.544 434.747 197.81C435.547 199.384 436.187 201.037 436.667 202.744H436.693C436.72 202.877 436.773 203.01 436.8 203.144C437.12 204.29 437.387 205.464 437.573 206.664C437.6 206.904 437.627 207.17 437.653 207.41C437.84 208.69 437.92 209.997 437.92 211.33Z" fill="#FFC107"/>
<path d="M432.453 211.037C432.453 211.464 432.453 211.917 432.4 212.344V212.37C432.4 212.397 432.4 212.397 432.4 212.397C432.347 214.317 432.08 216.21 431.653 217.917C431.653 218.024 431.627 218.104 431.573 218.21H419.12L408.853 215.997L407.493 215.704L407.28 215.757L395.893 218.104L395.387 218.21H394.667C392.96 218.21 391.28 218.05 389.653 217.73C389.413 217.677 389.173 217.624 388.933 217.57H388.907C387.04 217.17 385.227 216.557 383.52 215.757C383.467 215.464 383.413 215.17 383.387 214.877C383.2 213.73 383.12 212.53 383.12 211.33C383.12 210.877 383.12 210.424 383.147 209.97C383.227 208.53 383.44 207.117 383.76 205.757C383.973 204.744 384.267 203.757 384.613 202.824C384.907 201.997 385.253 201.197 385.627 200.424C385.947 199.757 386.32 199.117 386.693 198.477C387.067 197.864 387.467 197.277 387.893 196.69C388.96 195.224 390.213 193.864 391.6 192.664C392.4 191.97 393.28 191.304 394.187 190.717C398.08 188.157 402.747 186.664 407.787 186.664C408.773 186.664 409.733 186.717 410.667 186.85H410.72C413.573 187.17 416.24 187.97 418.693 189.17C418.72 189.17 418.72 189.17 418.72 189.17C422.587 191.064 425.867 193.917 428.267 197.437C428.667 198.024 429.067 198.664 429.413 199.304C429.707 199.81 429.973 200.344 430.213 200.877C430.587 201.704 430.933 202.584 431.227 203.464H431.253C431.547 204.45 431.813 205.437 432 206.477V206.504C432.293 207.97 432.453 209.49 432.453 211.037Z" fill="#FFD54F"/>
<path d="M426.96 211.597V211.677C426.96 213.25 426.773 214.797 426.4 216.317C426.267 216.957 426.08 217.597 425.84 218.21H413.893L407.787 216.53L401.68 218.21H394.667C392.96 218.21 391.28 218.05 389.653 217.73C389.6 217.65 389.573 217.57 389.547 217.49C389.173 216.344 388.88 215.197 388.747 213.997C388.64 213.224 388.587 212.424 388.587 211.597C388.587 211.277 388.587 210.93 388.64 210.61C388.667 209.357 388.853 208.13 389.173 206.957C389.333 206.157 389.573 205.384 389.893 204.637C390 204.264 390.16 203.917 390.347 203.57C390.747 202.664 391.227 201.784 391.76 200.93C392.347 200.077 392.987 199.277 393.707 198.53C394.56 197.57 395.52 196.69 396.613 195.97C398.48 194.61 400.613 193.597 402.933 193.037C404.48 192.61 406.107 192.397 407.787 192.397C413.12 192.397 417.893 194.53 421.36 197.97C421.493 198.104 421.653 198.264 421.787 198.45H421.813C422.187 198.85 422.533 199.25 422.88 199.704C423.867 200.957 424.693 202.317 425.333 203.81C425.653 204.504 425.92 205.224 426.133 205.97C426.16 206.077 426.187 206.157 426.213 206.264C426.587 207.57 426.827 208.93 426.88 210.344C426.933 210.744 426.96 211.17 426.96 211.597Z" fill="#FFE082"/>
<path d="M421.493 211.597C421.493 212.69 421.36 213.73 421.067 214.717C420.8 215.784 420.4 216.797 419.893 217.757C419.813 217.917 419.627 218.21 419.627 218.21H395.947C395.92 218.184 395.893 218.13 395.893 218.104C395.573 217.597 395.307 217.09 395.093 216.53C394.56 215.304 394.24 213.97 394.133 212.584C394.08 212.264 394.08 211.917 394.08 211.597C394.08 211.437 394.08 211.25 394.107 211.09C394.133 209.917 394.293 208.797 394.613 207.757C394.88 206.797 395.227 205.917 395.68 205.064C395.68 205.064 395.707 205.037 395.707 205.01C396.027 204.45 396.373 203.89 396.773 203.357C398.08 201.597 399.813 200.157 401.813 199.224C401.84 199.224 401.84 199.224 401.84 199.224C402.48 198.904 403.147 198.637 403.84 198.45C403.84 198.45 403.84 198.45 403.867 198.45C405.093 198.077 406.427 197.89 407.787 197.89C409.36 197.89 410.88 198.13 412.267 198.637C412.773 198.77 413.253 198.984 413.733 199.224C413.733 199.224 413.733 199.224 413.76 199.224C416.053 200.317 418 202.024 419.333 204.157C419.6 204.557 419.84 204.984 420.053 205.437C420.16 205.624 420.267 205.837 420.347 206.024C420.96 207.41 421.333 208.93 421.44 210.53C421.467 210.664 421.467 210.797 421.467 210.957C421.493 211.17 421.493 211.384 421.493 211.597Z" fill="#FFECB3"/>
<path fill-rule="evenodd" clip-rule="evenodd" d="M379.333 154.21C379.333 142.706 388.495 133.544 400 133.544H432C443.505 133.544 452.667 142.706 452.667 154.21V186.21C452.667 197.715 443.505 206.877 432 206.877H400C388.495 206.877 379.333 197.715 379.333 186.21V154.21ZM400 137.544C390.705 137.544 383.333 144.915 383.333 154.21V186.21C383.333 195.506 390.705 202.877 400 202.877H432C441.295 202.877 448.667 195.506 448.667 186.21V154.21C448.667 144.915 441.295 137.544 432 137.544H400Z" fill="white"/>
<path d="M434.667 151.544C436.139 151.544 437.333 150.35 437.333 148.877C437.333 147.404 436.139 146.21 434.667 146.21C433.194 146.21 432 147.404 432 148.877C432 150.35 433.194 151.544 434.667 151.544Z" fill="white"/>
<path fill-rule="evenodd" clip-rule="evenodd" d="M416 156.21C408.268 156.21 402 162.478 402 170.21C402 177.942 408.268 184.21 416 184.21C423.732 184.21 430 177.942 430 170.21C430 162.478 423.732 156.21 416 156.21ZM398 170.21C398 160.269 406.059 152.21 416 152.21C425.941 152.21 434 160.269 434 170.21C434 180.151 425.941 188.21 416 188.21C406.059 188.21 398 180.151 398 170.21Z" fill="white"/>
<defs>
<linearGradient id="paint0_linear_84_228" x1="719" y1="0" x2="719" y2="367.118" gradientUnits="userSpaceOnUse">
<stop stop-color="#18ACFE"/>
<stop offset="1" stop-color="#0163E0"/>
</linearGradient>
</defs>
</svg>
