<svg width="608" height="409" viewBox="0 0 608 409" fill="none" xmlns="http://www.w3.org/2000/svg">
<path opacity="0.15" d="M118.23 298.892C136.365 308.69 159.711 314.748 185.594 315.859C185.605 315.946 185.612 316.034 185.623 316.121C193.535 377.083 280.589 415.953 380.062 402.94C474.803 390.547 546.639 335.56 546.424 277.688C586.532 258.755 611.599 228.136 607.578 197.161C605.025 177.483 591.157 160.967 570.207 149.486C581.101 132.606 586.139 114.393 583.763 96.0895C575.851 35.1278 488.797 -3.74259 389.324 9.27006C326.25 17.5211 273.337 44.6539 245.069 78.945C220.753 75.1746 194.041 74.7739 166.365 78.3943C66.8914 91.407 -7.33398 151.375 0.578138 212.337C6.34656 256.781 54.1857 289.477 118.23 298.892Z" fill="#FFCD07"/>
<path opacity="0.87" d="M297.406 198.608C297.406 237.646 265.884 269.293 226.999 269.293C188.114 269.293 156.592 237.646 156.592 198.608C156.592 159.569 188.114 127.923 226.999 127.923C265.884 127.923 297.406 159.569 297.406 198.608Z" fill="white"/>
<path d="M230.132 18.5647C230.132 26.8424 223.448 33.5529 215.203 33.5529C206.958 33.5529 200.274 26.8424 200.274 18.5647C200.274 10.287 206.958 3.57654 215.203 3.57654C223.448 3.57654 230.132 10.287 230.132 18.5647Z" fill="#FFCD07"/>
<path d="M586.222 280.58C586.222 284.77 582.839 288.167 578.666 288.167C574.492 288.167 571.109 284.77 571.109 280.58C571.109 276.39 574.492 272.993 578.666 272.993C582.839 272.993 586.222 276.39 586.222 280.58Z" fill="#23B0C2"/>
<path opacity="0.3" d="M91.1612 333.686C91.1612 341.964 84.4772 348.674 76.232 348.674C67.9868 348.674 61.3027 341.964 61.3027 333.686C61.3027 325.409 67.9868 318.698 76.232 318.698C84.4772 318.698 91.1612 325.409 91.1612 333.686Z" fill="#FFCD07"/>
<path d="M557.388 76.7821L539.629 46.6788L522.665 59.8432C523.928 62.604 530.459 82.1003 530.459 82.1003" fill="white"/>
<mask id="mask0_33_249" style="mask-type:alpha" maskUnits="userSpaceOnUse" x="522" y="46" width="36" height="37">
<path fill-rule="evenodd" clip-rule="evenodd" d="M557.388 76.7821L539.629 46.6788L522.665 59.8432C523.928 62.604 530.458 82.1003 530.458 82.1003" fill="white"/>
</mask>
<g mask="url(#mask0_33_249)">
<path d="M529.81 90.3988C531.57 76.2831 532.245 59.3649 532.245 59.3649L519.621 63.412L519.994 77.6727L519.624 83.3551" fill="#CFCFD0"/>
</g>
<path fill-rule="evenodd" clip-rule="evenodd" d="M539.694 46.335C539.793 46.3539 539.879 46.4143 539.93 46.5009L557.689 76.6042C557.788 76.7707 557.732 76.9853 557.566 77.0835C557.399 77.1817 557.185 77.1264 557.087 76.9599L539.529 47.199L523.095 59.9525C523.829 61.6847 525.674 66.9599 527.366 71.8935C528.262 74.5037 529.118 77.0276 529.75 78.8988C530.066 79.8345 530.326 80.607 530.507 81.1456L530.79 81.9882C530.79 81.9884 530.79 81.9891 530.475 82.0946L530.79 81.9882C530.851 82.1715 530.753 82.3708 530.57 82.4322C530.386 82.4936 530.188 82.3948 530.127 82.2115L530.458 82.1003C530.127 82.2115 530.127 82.2116 530.127 82.2115L529.844 81.3687C529.663 80.8303 529.403 80.0581 529.087 79.1229C528.455 77.2523 527.599 74.7295 526.704 72.1206C524.91 66.8895 522.969 61.3488 522.347 59.9888C522.279 59.8411 522.322 59.6663 522.45 59.5667L539.414 46.4023C539.494 46.3406 539.596 46.3161 539.694 46.335Z" fill="#3D3D3C"/>
<path d="M529.842 63.2775C522.607 63.0033 511.172 62.0187 509.883 58.5487C504.172 43.1731 522.188 20.4923 523.718 19.4913C525.248 18.4903 544.783 27.1612 546.662 32.3395C547.835 35.5712 543.302 46.8577 539.728 54.8866" fill="white"/>
<path fill-rule="evenodd" clip-rule="evenodd" d="M523.911 19.7839C523.91 19.7843 523.909 19.7845 523.91 19.7842C523.852 19.8218 523.718 19.9408 523.501 20.1676C523.293 20.3856 523.029 20.6822 522.718 21.0517C522.096 21.7902 521.294 22.8115 520.391 24.0593C518.584 26.5553 516.377 29.9497 514.396 33.79C512.414 37.6315 510.664 41.9089 509.763 46.1725C508.861 50.4373 508.814 54.6655 510.211 58.4268C510.48 59.1502 511.314 59.813 512.666 60.3911C513.997 60.9608 515.744 61.4121 517.695 61.7672C521.595 62.4769 526.243 62.7909 529.855 62.9278C530.048 62.9351 530.199 63.0976 530.192 63.2908C530.184 63.484 530.022 63.6346 529.829 63.6273C526.206 63.49 521.519 63.1746 517.57 62.4559C515.597 62.0968 513.791 61.6342 512.39 61.0347C511.009 60.4437 509.931 59.6822 509.555 58.6705C508.096 54.744 508.16 50.3713 509.078 46.0277C509.996 41.683 511.774 37.3447 513.774 33.469C515.774 29.592 518.001 26.1676 519.824 23.6489C520.736 22.3894 521.548 21.3544 522.182 20.6009C522.499 20.2244 522.773 19.9161 522.995 19.6843C523.207 19.4615 523.393 19.2859 523.527 19.1984C523.722 19.0708 523.987 19.0539 524.222 19.0641C524.479 19.0751 524.79 19.124 525.142 19.2019C525.847 19.3579 526.759 19.6404 527.804 20.0193C529.895 20.778 532.552 21.9358 535.218 23.2859C537.882 24.6357 540.565 26.1829 542.704 27.7225C543.774 28.4922 544.714 29.2648 545.45 30.0145C546.181 30.7599 546.732 31.5042 546.992 32.2201L546.663 32.3395L546.992 32.2201C547.16 32.683 547.217 33.2628 547.198 33.9172C547.178 34.5757 547.08 35.3329 546.92 36.1631C546.6 37.8234 546.026 39.805 545.307 41.9265C543.868 46.1708 541.836 51.0111 540.048 55.029C539.969 55.2056 539.762 55.285 539.586 55.2064C539.409 55.1278 539.33 54.9209 539.408 54.7443C541.194 50.7332 543.216 45.9158 544.644 41.7018C545.358 39.594 545.921 37.6462 546.233 36.0305C546.389 35.2227 546.48 34.5052 546.498 33.8966C546.516 33.2838 546.459 32.804 546.334 32.4589C546.124 31.8803 545.653 31.2209 544.95 30.5048C544.252 29.7931 543.345 29.0464 542.295 28.2907C540.195 26.7794 537.547 25.2505 534.901 23.9104C532.257 22.5706 529.626 21.4248 527.565 20.6774C526.534 20.3032 525.654 20.0321 524.991 19.8853C524.658 19.8117 524.391 19.772 524.192 19.7634C523.996 19.755 523.922 19.7802 523.911 19.7839Z" fill="#3D3D3C"/>
<path d="M535.049 53.0497C538.454 58.5717 548.827 60.2806 548.827 60.2806C548.827 60.2806 558.654 36.6542 551.693 34.3304C544.731 32.0066 506.363 6.22271 505.088 8.44754C503.813 10.6724 510.335 27.2945 518.294 27.652C518.294 27.652 520.774 45.7965 531.709 48.3796C542.644 50.9628 535.049 53.0497 535.049 53.0497Z" fill="#4F4F5B"/>
<path fill-rule="evenodd" clip-rule="evenodd" d="M547.909 32.1515C549.628 33.075 550.965 33.7185 551.803 33.9984C553.778 34.6577 554.473 36.8022 554.531 39.3575C554.59 41.9481 554.005 45.1565 553.209 48.2637C552.412 51.377 551.397 54.4143 550.583 56.6715C550.175 57.8006 549.817 58.7356 549.561 59.3886C549.433 59.7152 549.33 59.9713 549.26 60.146C549.224 60.2334 549.197 60.3004 549.178 60.3457L549.157 60.3971L549.152 60.4103L549.15 60.4137C549.15 60.414 549.15 60.415 548.827 60.2806C548.77 60.6259 548.77 60.6259 548.769 60.6259L548.767 60.6255L548.761 60.6245L548.737 60.6204C548.717 60.6169 548.686 60.6116 548.647 60.6045C548.568 60.5903 548.453 60.5689 548.306 60.5397C548.012 60.4814 547.589 60.3921 547.071 60.2676C546.036 60.0188 544.619 59.6289 543.093 59.0641C540.062 57.9421 536.519 56.1006 534.751 53.2334C534.693 53.1396 534.683 53.024 534.723 52.9215C534.764 52.819 534.85 52.7415 534.956 52.7123C534.956 52.7122 534.956 52.7123 534.956 52.7123L534.96 52.7112L534.974 52.7072C534.986 52.7036 535.006 52.698 535.031 52.6904C535.081 52.6754 535.154 52.6528 535.243 52.623C535.423 52.5631 535.666 52.4752 535.925 52.3624C536.184 52.2492 536.452 52.1141 536.682 51.9615C536.916 51.8062 537.088 51.648 537.183 51.4968C537.271 51.3581 537.287 51.2386 537.242 51.1104C537.188 50.9619 537.032 50.749 536.648 50.4889C535.878 49.9681 534.356 49.3647 531.628 48.7202C525.984 47.3869 522.571 42.0572 520.576 37.1796C519.574 34.7278 518.917 32.36 518.511 30.6064C518.308 29.7291 518.167 29.0042 518.077 28.4979C518.039 28.2861 518.01 28.1125 517.989 27.9819C515.988 27.799 514.112 26.6614 512.451 25.0657C510.706 23.39 509.165 21.1771 507.921 18.9188C506.677 16.6592 505.723 14.3386 505.159 12.436C504.877 11.4856 504.69 10.6305 504.615 9.93424C504.577 9.58624 504.567 9.26993 504.59 8.99686C504.612 8.72862 504.668 8.47559 504.784 8.2735C504.898 8.07582 505.094 7.99827 505.263 7.97324C505.429 7.9485 505.618 7.96546 505.81 8.00221C506.2 8.07641 506.708 8.25197 507.306 8.50281C508.509 9.00702 510.153 9.84831 512.098 10.9198C515.99 13.0647 521.13 16.1556 526.44 19.3842C527.624 20.1043 528.817 20.8313 530.007 21.5564C534.154 24.0839 538.262 26.5874 541.831 28.6915C544.127 30.0452 546.197 31.2316 547.909 32.1515ZM535.594 53.2427C537.304 55.6898 540.474 57.3483 543.336 58.4077C544.829 58.9604 546.218 59.3428 547.234 59.587C547.742 59.709 548.156 59.7963 548.442 59.8531C548.504 59.8653 548.56 59.8762 548.61 59.8856C548.61 59.8849 548.611 59.8841 548.611 59.8834C548.681 59.7108 548.782 59.4571 548.909 59.1331C549.164 58.485 549.519 57.556 549.924 56.4338C550.735 54.1885 551.741 51.1739 552.531 48.0901C553.322 45.0003 553.888 41.8664 553.832 39.3734C553.774 36.8452 553.087 35.165 551.582 34.6624C550.68 34.3613 549.295 33.6908 547.578 32.7681C545.854 31.8418 543.775 30.65 541.475 29.2945C537.901 27.1876 533.787 24.6803 529.639 22.1523C528.45 21.4277 527.259 20.7014 526.076 19.9823C520.764 16.7526 515.637 13.6694 511.76 11.5329C509.819 10.4637 508.202 9.63746 507.036 9.14838C506.449 8.90258 505.995 8.75005 505.679 8.68985C505.524 8.6602 505.425 8.6577 505.37 8.665C505.335 8.74593 505.303 8.87192 505.287 9.05496C505.27 9.26998 505.276 9.53927 505.311 9.8594C505.38 10.4994 505.555 11.3107 505.83 12.237C506.379 14.0881 507.313 16.3624 508.535 18.5812C509.757 20.8012 511.259 22.9499 512.936 24.5609C514.616 26.1755 516.44 27.2183 518.309 27.3023C518.478 27.3099 518.617 27.4371 518.64 27.6045C518.641 27.6044 518.64 27.6045 518.64 27.6045L518.641 27.6071L518.642 27.6161L518.647 27.6535C518.652 27.6868 518.66 27.7368 518.67 27.8024C518.69 27.9336 518.722 28.1273 518.766 28.3753C518.854 28.8714 518.993 29.5843 519.193 30.4484C519.593 32.1776 520.24 34.5074 521.224 36.9146C523.204 41.7551 526.498 46.7892 531.789 48.039C534.529 48.6861 536.158 49.3122 537.04 49.9092C537.482 50.2081 537.776 50.5262 537.901 50.8745C538.033 51.2431 537.954 51.5863 537.776 51.8698C537.605 52.141 537.34 52.3647 537.069 52.5448C536.793 52.7276 536.486 52.8813 536.205 53.0041C535.981 53.1016 535.769 53.1816 535.594 53.2427ZM548.827 60.2806L548.769 60.6259C548.93 60.6523 549.087 60.565 549.15 60.415L548.827 60.2806Z" fill="#3D3D3C"/>
<path d="M528.628 48.199C544.296 39.2291 551.375 53.2842 534.477 57.6952L528.628 48.199Z" fill="white"/>
<path fill-rule="evenodd" clip-rule="evenodd" d="M538.512 45.6279C535.992 45.5067 532.678 46.2838 528.802 48.5027C528.635 48.5988 528.421 48.5406 528.325 48.3729C528.229 48.2051 528.287 47.9913 528.454 47.8952C532.413 45.6292 535.859 44.7995 538.545 44.9287C541.227 45.0577 543.187 46.1493 544.072 47.7608C544.964 49.3864 544.702 51.4297 543.167 53.3105C541.636 55.185 538.834 56.9198 534.566 58.0338C534.379 58.0827 534.188 57.9706 534.139 57.7836C534.09 57.5965 534.202 57.4053 534.389 57.3565C538.57 56.2651 541.219 54.5888 542.625 52.8678C544.025 51.1529 544.182 49.416 543.458 48.0977C542.727 46.7653 541.036 45.7493 538.512 45.6279Z" fill="#3D3D3C"/>
<path d="M554.411 41.7835C554.411 41.7835 573.979 8.8277 519.761 17.667L554.411 41.7835Z" fill="white"/>
<mask id="mask1_33_249" style="mask-type:alpha" maskUnits="userSpaceOnUse" x="519" y="16" width="39" height="26">
<path fill-rule="evenodd" clip-rule="evenodd" d="M554.411 41.7835C554.411 41.7835 573.979 8.8277 519.761 17.667L554.411 41.7835Z" fill="white"/>
</mask>
<g mask="url(#mask1_33_249)">
<path d="M549.451 34.384L559.515 41.4958L562.676 36.9437L552.613 29.8321L549.451 34.384Z" fill="#4F4F5B"/>
<path fill-rule="evenodd" clip-rule="evenodd" d="M552.552 29.4874C552.644 29.4712 552.738 29.4924 552.815 29.5462L562.878 36.6578C563.035 36.7687 563.073 36.9855 562.964 37.1433L559.802 41.6955C559.749 41.7721 559.667 41.8243 559.575 41.8405C559.483 41.8567 559.389 41.8355 559.313 41.7816L549.249 34.6698L549.451 34.384L549.164 34.1844L552.325 29.6324C552.378 29.5558 552.46 29.5035 552.552 29.4874ZM549.937 34.2985L559.429 41.0063L562.191 37.0292L552.699 30.3215L549.937 34.2985Z" fill="#3D3D3C"/>
</g>
<path fill-rule="evenodd" clip-rule="evenodd" d="M554.712 41.9615C554.712 41.9619 554.712 41.9622 554.411 41.7835L554.712 41.9615C554.662 42.0451 554.58 42.105 554.485 42.1256C554.39 42.1462 554.291 42.1263 554.211 42.0708L519.561 17.9542C519.444 17.8728 519.388 17.7285 519.42 17.5895C519.451 17.4505 519.564 17.3445 519.705 17.3215C533.281 15.1082 542.288 15.5015 548.155 17.3727C554.045 19.2514 556.779 22.6255 557.756 26.3211C558.724 29.9855 557.949 33.9068 556.953 36.8833C556.454 38.3765 555.895 39.6435 555.46 40.5376C555.243 40.9848 555.057 41.3393 554.925 41.5828C554.859 41.7045 554.806 41.7985 554.769 41.8625C554.751 41.8945 554.737 41.919 554.727 41.9357L554.716 41.9549L554.712 41.9615ZM554.295 41.2762C554.3 41.2671 554.305 41.2578 554.31 41.2484C554.438 41.0134 554.619 40.6684 554.831 40.2318C555.255 39.3582 555.801 38.1196 556.289 36.6612C557.268 33.7348 557.996 29.9696 557.079 26.4999C556.171 23.0615 553.631 19.8541 547.942 18.0396C542.35 16.2563 533.726 15.8242 520.673 17.8754L554.295 41.2762Z" fill="#3D3D3C"/>
<path d="M525.914 16.5329C525.914 16.5329 503.736 -2.6676 496.868 1.62596C490 5.91951 523.604 19.5407 523.604 19.5407L525.914 16.5329Z" fill="white"/>
<path fill-rule="evenodd" clip-rule="evenodd" d="M526.142 16.268C526.142 16.2682 526.143 16.2683 525.913 16.5329L526.142 16.268C526.282 16.3893 526.304 16.5991 526.191 16.7461L523.882 19.7539C523.786 19.8787 523.619 19.9242 523.473 19.8651L523.604 19.5407C523.473 19.8651 523.473 19.8652 523.473 19.8651L523.448 19.855L523.376 19.8255C523.312 19.7994 523.218 19.7608 523.095 19.7103C522.85 19.6092 522.491 19.4604 522.038 19.2697C521.131 18.8882 519.843 18.3385 518.319 17.6655C515.273 16.3198 511.279 14.4795 507.499 12.5036C503.725 10.5314 500.137 8.41076 497.92 6.50172C496.82 5.55476 496.007 4.61819 495.713 3.73931C495.563 3.28827 495.543 2.83544 495.711 2.40732C495.877 1.9823 496.21 1.62482 496.683 1.32918C497.629 0.737817 498.812 0.567088 500.119 0.685187C501.428 0.803381 502.892 1.21325 504.432 1.81806C507.511 3.0278 510.951 5.04126 514.16 7.17803C517.372 9.31689 520.367 11.5891 522.558 13.3256C523.654 14.1942 524.549 14.9292 525.171 15.4474C525.482 15.7065 525.725 15.9114 525.889 16.0517C525.972 16.1219 526.035 16.1759 526.078 16.2124L526.126 16.2539L526.142 16.268ZM523.489 19.1156C523.451 19.0999 523.409 19.0824 523.362 19.0631C523.118 18.9626 522.761 18.8145 522.309 18.6244C521.406 18.2442 520.122 17.6962 518.602 17.0252C515.563 15.6827 511.585 13.8493 507.823 11.8832C504.054 9.91339 500.528 7.82374 498.377 5.97124C497.292 5.03743 496.607 4.20543 496.377 3.51759C496.266 3.18527 496.268 2.9052 496.363 2.66208C496.459 2.41587 496.668 2.16379 497.054 1.92273C497.825 1.4407 498.837 1.27223 500.057 1.38235C501.275 1.49237 502.67 1.87814 504.176 2.46959C507.186 3.65239 510.578 5.63401 513.772 7.76068C516.963 9.88526 519.942 12.1448 522.123 13.8742C523.214 14.7387 524.105 15.4701 524.723 15.9851C525.031 16.2415 525.27 16.4442 525.434 16.583L523.489 19.1156Z" fill="#3D3D3C"/>
<path d="M515.324 42.993C515.922 43.4686 516.877 43.2819 517.457 42.576L519.232 40.4174C519.813 39.7115 519.799 38.7538 519.201 38.2782C518.604 37.8026 517.649 37.9894 517.068 38.6952L515.293 40.8538C514.713 41.5597 514.727 42.5175 515.324 42.993Z" fill="#4F4F5B"/>
<path d="M521.82 32.6944C526.495 36.1116 526 38.7305 522.939 36.7794C519.878 34.8283 518.766 30.4618 521.82 32.6944Z" fill="#4F4F5B"/>
<path d="M514.867 35.5865C506.676 38.0615 507.236 42.2435 511.463 44.206L514.867 35.5865Z" fill="white"/>
<path fill-rule="evenodd" clip-rule="evenodd" d="M515.202 35.4852C515.258 35.6703 515.153 35.8656 514.968 35.9215C512.944 36.533 511.484 37.2434 510.494 37.982C509.504 38.721 509.004 39.4718 508.85 40.1643C508.55 41.5135 509.541 42.9279 511.611 43.8885C511.786 43.9699 511.862 44.1781 511.781 44.3534C511.7 44.5287 511.491 44.6049 511.316 44.5235C509.158 43.5216 507.755 41.8637 508.167 40.0125C508.368 39.1049 509 38.2235 510.076 37.4209C511.152 36.618 512.694 35.8775 514.766 35.2514C514.951 35.1955 515.146 35.3002 515.202 35.4852Z" fill="#3D3D3C"/>
<path opacity="0.27" d="M523.748 47.4591C526.37 48.1018 528.247 49.644 527.941 50.9037C527.635 52.1634 525.261 52.6636 522.638 52.0209C520.016 51.3782 518.138 49.8359 518.445 48.5762C518.751 47.3165 521.125 46.8163 523.748 47.4591Z" fill="#CFCFD0"/>
<path d="M516.901 49.8236C514.685 50.5906 512.231 50.121 510.452 48.5898L516.901 49.8236Z" fill="white"/>
<path fill-rule="evenodd" clip-rule="evenodd" d="M510.187 48.3615C510.313 48.215 510.534 48.1985 510.68 48.3246C512.365 49.7746 514.689 50.219 516.786 49.4928C516.969 49.4296 517.168 49.5264 517.231 49.7091C517.295 49.8917 517.198 50.0911 517.015 50.1543C514.682 50.9622 512.097 50.4675 510.224 48.8551C510.077 48.729 510.061 48.508 510.187 48.3615Z" fill="#3D3D3C"/>
<path d="M533.889 84.5138L526.896 79.9214L524.331 78.2025L552.051 60.2806L557.388 76.7822" fill="#FFCD07"/>
<path fill-rule="evenodd" clip-rule="evenodd" d="M552.169 59.9509C552.271 59.9874 552.351 60.0694 552.384 60.1729L557.721 76.6745C557.78 76.8584 557.68 77.0557 557.496 77.1152C557.312 77.1747 557.114 77.0738 557.055 76.8899L551.859 60.822L524.967 78.2078L527.088 79.6288L527.091 79.6306L534.081 84.2213C534.243 84.3274 534.288 84.5444 534.182 84.706C534.076 84.8676 533.859 84.9125 533.697 84.8064L526.702 80.2122L524.136 78.4933C524.038 78.4278 523.98 78.3175 523.981 78.1997C523.982 78.082 524.042 77.9726 524.141 77.9086L551.861 59.9867C551.953 59.9276 552.066 59.9144 552.169 59.9509Z" fill="#3D3D3C"/>
<path d="M435.529 142.259C435.529 142.259 428.28 137.219 419.481 138.685C410.682 140.152 405.155 137.763 405.155 137.763C405.155 137.763 402.148 143.564 412.064 144.479C412.064 144.479 397.568 153.001 387.757 150.983C381.421 149.679 380.109 158.73 399.501 156.929C414.226 155.563 426.994 149.689 436.682 152.423C439.972 153.352 435.529 142.259 435.529 142.259Z" fill="white"/>
<path fill-rule="evenodd" clip-rule="evenodd" d="M405.294 137.441C405.125 137.369 404.929 137.439 404.845 137.602L405.294 137.441ZM404.845 137.602L405.155 137.763L404.845 137.602ZM406.054 138.448C405.754 138.356 405.516 138.274 405.345 138.211C405.292 138.353 405.232 138.541 405.182 138.761C405.063 139.282 405.006 139.969 405.225 140.674C405.65 142.038 407.195 143.678 412.096 144.13C412.248 144.144 412.373 144.254 412.406 144.403C412.439 144.551 412.372 144.704 412.241 144.781L412.064 144.479C412.241 144.781 412.242 144.781 412.241 144.781L412.241 144.781L412.238 144.783L412.23 144.787L412.198 144.806C412.169 144.823 412.127 144.847 412.072 144.878C411.962 144.941 411.8 145.032 411.591 145.148C411.172 145.379 410.564 145.705 409.804 146.091C408.284 146.862 406.155 147.87 403.716 148.814C398.857 150.695 392.698 152.356 387.686 151.325C386.173 151.014 385.029 151.335 384.425 151.876C384.127 152.143 383.959 152.464 383.923 152.802C383.888 153.141 383.982 153.531 384.268 153.942C384.848 154.776 386.204 155.669 388.673 156.235C391.13 156.799 394.645 157.029 399.469 156.581C405.099 156.058 410.436 154.875 415.446 153.765C416.964 153.428 418.452 153.098 419.909 152.796C426.15 151.499 431.842 150.693 436.777 152.086C437.105 152.179 437.24 152.104 437.317 152.018C437.427 151.897 437.518 151.642 437.54 151.209C437.584 150.358 437.35 149.105 437.001 147.779C436.655 146.463 436.206 145.116 435.842 144.095C435.661 143.586 435.501 143.158 435.387 142.859C435.33 142.709 435.284 142.592 435.252 142.511L435.244 142.489C435.191 142.454 435.114 142.405 435.015 142.342C434.804 142.21 434.493 142.023 434.09 141.801C433.286 141.358 432.12 140.782 430.684 140.251C427.807 139.187 423.859 138.31 419.539 139.03C415.096 139.771 411.476 139.539 408.961 139.119C407.704 138.909 406.723 138.653 406.054 138.448ZM435.529 142.259C435.854 142.129 435.854 142.129 435.854 142.129L435.858 142.138L435.867 142.162L435.904 142.256C435.936 142.338 435.983 142.458 436.041 142.609C436.157 142.913 436.318 143.345 436.502 143.861C436.869 144.891 437.325 146.258 437.678 147.6C438.028 148.931 438.289 150.276 438.239 151.244C438.215 151.72 438.114 152.18 437.837 152.487C437.527 152.831 437.081 152.899 436.587 152.76C431.835 151.418 426.298 152.183 420.052 153.481C418.612 153.78 417.136 154.107 415.625 154.442C410.608 155.555 405.212 156.751 399.534 157.278C394.662 157.73 391.068 157.503 388.516 156.918C385.975 156.334 384.418 155.383 383.694 154.342C383.328 153.816 383.172 153.261 383.227 152.73C383.283 152.198 383.546 151.724 383.958 151.354C384.777 150.621 386.172 150.299 387.827 150.64C392.627 151.627 398.621 150.036 403.463 148.161C405.875 147.227 407.983 146.231 409.487 145.467C410.071 145.171 410.564 144.91 410.948 144.702C406.736 144.105 405.065 142.514 404.557 140.882C404.289 140.022 404.364 139.201 404.499 138.606C404.567 138.307 404.652 138.06 404.72 137.886C404.754 137.799 404.784 137.73 404.806 137.682C404.817 137.658 404.826 137.639 404.833 137.625L404.841 137.609L404.843 137.604L404.844 137.603L404.845 137.602C404.845 137.601 404.845 137.602 405.155 137.763M435.529 142.259L435.729 141.972C435.785 142.011 435.829 142.066 435.854 142.129L435.529 142.259Z" fill="#3D3D3C"/>
<path d="M423.299 133.78C422.148 141.405 430.11 154.406 430.11 154.406L490.593 149.854C494.176 149.584 497.696 148.758 501.028 147.406L557.356 124.556L541.58 87.4943L486.57 123.423L423.299 133.78Z" fill="white"/>
<path fill-rule="evenodd" clip-rule="evenodd" d="M541.682 87.1594C541.781 87.1895 541.861 87.262 541.902 87.3572L557.678 124.419C557.714 124.506 557.715 124.603 557.679 124.69C557.643 124.777 557.574 124.845 557.487 124.881L501.159 147.731C497.794 149.096 494.238 149.93 490.619 150.203L490.593 149.854L490.619 150.203L430.136 154.755C430.005 154.765 429.88 154.7 429.811 154.589L430.11 154.406C429.811 154.589 429.811 154.588 429.811 154.588L429.811 154.588L429.81 154.586L429.805 154.578L429.788 154.549C429.772 154.524 429.75 154.487 429.72 154.437C429.662 154.339 429.576 154.195 429.468 154.008C429.251 153.635 428.942 153.095 428.576 152.423C427.845 151.079 426.881 149.206 425.952 147.093C425.025 144.981 424.13 142.622 423.539 140.306C422.949 137.995 422.655 135.7 422.953 133.727C422.976 133.577 423.093 133.459 423.243 133.434L486.441 123.089L541.389 87.2013C541.475 87.1447 541.583 87.1293 541.682 87.1594ZM430.299 154.041L490.566 149.504C494.113 149.237 497.598 148.42 500.896 147.082L501.005 147.351L500.896 147.082L556.894 124.366L541.421 88.0158L486.762 123.716C486.721 123.742 486.675 123.76 486.627 123.768L423.611 134.083C423.393 135.87 423.664 137.965 424.217 140.133C424.795 142.399 425.675 144.72 426.593 146.812C427.512 148.902 428.466 150.756 429.191 152.088C429.554 152.754 429.859 153.288 430.073 153.656C430.166 153.817 430.243 153.946 430.299 154.041Z" fill="#3D3D3C"/>
<path d="M435.684 128.413L423.299 133.78C423.299 133.78 423.073 146.704 430.11 154.406L439.299 152.295C439.299 152.295 435.081 133.102 435.684 128.413Z" fill="white"/>
<path fill-rule="evenodd" clip-rule="evenodd" d="M435.894 128.133C435.995 128.209 436.047 128.333 436.031 128.457C435.887 129.579 436.03 131.615 436.342 134.079C436.651 136.529 437.121 139.36 437.61 142.05C438.099 144.738 438.607 147.281 438.993 149.152C439.185 150.087 439.348 150.854 439.462 151.388C439.519 151.654 439.564 151.862 439.594 152.004L439.629 152.165L439.641 152.219C439.641 152.219 439.641 152.219 439.3 152.295L439.641 152.219C439.682 152.406 439.565 152.593 439.378 152.636L430.188 154.747C430.065 154.775 429.937 154.735 429.852 154.642C426.27 150.722 424.551 145.492 423.722 141.272C423.307 139.157 423.114 137.286 423.025 135.943C422.98 135.271 422.961 134.73 422.953 134.357C422.95 134.17 422.949 134.026 422.948 133.927C422.948 133.877 422.949 133.84 422.949 133.814L422.949 133.784L422.949 133.777L422.949 133.774C422.949 133.774 422.949 133.773 423.299 133.78L422.949 133.774C422.952 133.637 423.034 133.513 423.16 133.458L435.545 128.092C435.66 128.042 435.794 128.057 435.894 128.133ZM423.649 134.01C423.649 134.097 423.65 134.208 423.653 134.343C423.661 134.706 423.679 135.236 423.723 135.896C423.811 137.217 424.001 139.058 424.409 141.137C425.216 145.249 426.868 150.253 430.232 154.019L438.884 152.031C438.856 151.9 438.82 151.733 438.777 151.534C438.663 150.999 438.5 150.23 438.307 149.293C437.921 147.419 437.412 144.871 436.921 142.175C436.431 139.48 435.959 136.634 435.647 134.167C435.383 132.075 435.229 130.224 435.287 128.966L423.649 134.01Z" fill="#3D3D3C"/>
<path d="M269.442 39.662C269.442 36.955 271.637 34.7605 274.344 34.7605H493.757C496.464 34.7605 498.659 36.955 498.659 39.662V165.501C498.659 168.208 496.464 170.402 493.757 170.402H274.344C271.637 170.402 269.442 168.208 269.442 165.501V39.662Z" fill="#ECEDEE"/>
<mask id="mask2_33_249" style="mask-type:alpha" maskUnits="userSpaceOnUse" x="269" y="34" width="230" height="137">
<path d="M269.442 39.662C269.442 36.955 271.637 34.7605 274.344 34.7605H493.757C496.464 34.7605 498.659 36.955 498.659 39.662V165.501C498.659 168.208 496.464 170.402 493.757 170.402H274.344C271.637 170.402 269.442 168.208 269.442 165.501V39.662Z" fill="white"/>
</mask>
<g mask="url(#mask2_33_249)">
<path d="M505.115 81.1181C487.124 64.2684 523.326 189.361 365.332 176.937C207.338 164.514 482.602 204.772 482.602 204.772L524.557 153.124L529.679 92.7649" fill="#CFCFD0"/>
<path d="M417.654 154.406C337.075 160.533 430.793 163.874 352.598 170.402C274.403 176.931 416.277 182.836 416.277 182.836L425.439 161.347" fill="#CFCFD0"/>
</g>
<path fill-rule="evenodd" clip-rule="evenodd" d="M269.092 39.662C269.092 36.7616 271.443 34.4105 274.344 34.4105H493.757C496.657 34.4105 499.009 36.7616 499.009 39.662V165.501C499.009 168.401 496.657 170.752 493.757 170.752H274.344C271.443 170.752 269.092 168.401 269.092 165.501V39.662ZM274.344 35.1105C271.83 35.1105 269.792 37.1482 269.792 39.662V165.501C269.792 168.014 271.83 170.052 274.344 170.052H493.757C496.271 170.052 498.309 168.014 498.309 165.501V39.662C498.309 37.1482 496.271 35.1105 493.757 35.1105H274.344Z" fill="#3D3D3C"/>
<path d="M290.519 54.209C290.519 53.3036 291.253 52.5696 292.158 52.5696H345.956C346.861 52.5696 347.595 53.3036 347.595 54.209V58.7293C347.595 59.6348 346.861 60.3688 345.956 60.3688H292.158C291.253 60.3688 290.519 59.6348 290.519 58.7293V54.209Z" fill="#FFCD07"/>
<path fill-rule="evenodd" clip-rule="evenodd" d="M290.168 54.209C290.168 53.1103 291.059 52.2196 292.158 52.2196H345.956C347.054 52.2196 347.945 53.1103 347.945 54.209V58.7293C347.945 59.8281 347.054 60.7188 345.956 60.7188H292.158C291.059 60.7188 290.168 59.8281 290.168 58.7293V54.209ZM292.158 52.9196C291.446 52.9196 290.868 53.4969 290.868 54.209V58.7293C290.868 59.4415 291.446 60.0188 292.158 60.0188H345.956C346.668 60.0188 347.245 59.4415 347.245 58.7293V54.209C347.245 53.4969 346.668 52.9196 345.956 52.9196H292.158Z" fill="#3D3D3C"/>
<path d="M356.473 52.5696H374.191C376.331 52.5696 378.066 54.3113 378.066 56.4599V56.4785C378.066 57.5102 377.658 58.4998 376.931 59.2293C376.205 59.9589 375.219 60.3688 374.191 60.3688H356.473C354.333 60.3688 352.598 58.627 352.598 56.4785V56.4599C352.598 54.3113 354.333 52.5696 356.473 52.5696L356.473 52.5696Z" fill="#FFCD07"/>
<path fill-rule="evenodd" clip-rule="evenodd" d="M356.473 52.9196C354.528 52.9196 352.948 54.5033 352.948 56.4599V56.4785C352.948 58.435 354.528 60.0188 356.473 60.0188H374.192C375.126 60.0188 376.022 59.6461 376.684 58.9823C377.345 58.3185 377.717 57.4179 377.717 56.4785V56.4599C377.717 54.5033 376.137 52.9196 374.192 52.9196H356.473C356.473 52.9196 356.473 52.9196 356.473 52.9196ZM356.473 52.2196C356.473 52.2196 356.473 52.2196 356.473 52.2196H374.192C376.526 52.2196 378.417 54.1193 378.417 56.4599V56.4785C378.417 57.6026 377.972 58.681 377.18 59.4763C376.387 60.2717 375.313 60.7188 374.192 60.7188H356.473C354.138 60.7188 352.248 58.819 352.248 56.4785V56.4599C352.248 54.1193 354.138 52.2196 356.473 52.2196Z" fill="#3D3D3C"/>
<path d="M289.803 71.7593H478.297V144.797H289.803V71.7593Z" fill="white"/>
<mask id="mask3_33_249" style="mask-type:alpha" maskUnits="userSpaceOnUse" x="289" y="71" width="190" height="74">
<path d="M289.804 71.7593H478.297V144.797H289.804V71.7593Z" fill="white"/>
</mask>
<g mask="url(#mask3_33_249)">
<path d="M236.14 144.676V130.106C266.269 132.77 264.126 113.112 291.981 125.018C319.836 136.923 322.635 85.9791 339.805 105.637C356.975 125.295 361.975 108.406 371.974 115.604C381.973 122.803 391.616 92.0702 409.114 105.637C426.613 119.203 431.969 71.5818 448.754 89.3015C465.538 107.021 489.822 77.3961 501.249 91.5164C512.677 105.637 527.319 86.2559 531.961 89.3015V144.676L236.14 144.676Z" fill="white"/>
<path fill-rule="evenodd" clip-rule="evenodd" d="M415.147 108.453C413.198 108.421 411.13 107.642 408.9 105.913C404.598 102.578 400.822 101.991 397.418 102.823C393.985 103.663 390.881 105.957 387.962 108.497C387.101 109.245 386.269 110.004 385.45 110.75C384.874 111.275 384.306 111.794 383.738 112.298C382.375 113.511 381.04 114.627 379.724 115.471C378.409 116.314 377.09 116.902 375.758 117.035C374.414 117.168 373.085 116.835 371.77 115.888C369.349 114.146 367.252 113.867 365.187 114.122C364.142 114.25 363.103 114.515 362.02 114.808C361.894 114.842 361.766 114.877 361.638 114.912C360.679 115.172 359.683 115.443 358.643 115.637C356.27 116.079 353.65 116.124 350.532 114.797C347.426 113.475 343.853 110.803 339.541 105.867C337.416 103.434 335.549 102.135 333.866 101.65C332.2 101.17 330.672 101.474 329.183 102.348C327.681 103.229 326.227 104.685 324.743 106.492C323.485 108.022 322.222 109.783 320.9 111.627C320.663 111.957 320.425 112.29 320.184 112.625C317.024 117.013 313.49 121.708 308.976 124.544C304.431 127.4 298.912 128.361 291.843 125.34C284.908 122.376 279.872 121.39 275.752 121.515C271.635 121.64 268.401 122.874 265.059 124.414C264.41 124.714 263.756 125.025 263.09 125.342C260.336 126.652 257.383 128.057 253.755 129.097C249.316 130.37 243.868 131.099 236.49 130.487V144.326L531.611 144.326V89.5034C531.167 89.282 530.593 89.2631 529.86 89.4415C529.037 89.6416 528.071 90.0764 526.975 90.6576C526.147 91.0963 525.261 91.6092 524.32 92.1541C524.016 92.3301 523.706 92.5093 523.391 92.6905C522.104 93.4302 520.73 94.1971 519.3 94.878C516.445 96.2373 513.333 97.2708 510.191 97.0482C507.031 96.8242 503.888 95.3329 500.977 91.7366C498.219 88.3285 494.696 87.5475 490.629 88.0525C487.074 88.4939 483.153 89.912 479.028 91.4042C478.399 91.6316 477.766 91.8607 477.128 92.0883C472.331 93.8007 467.315 95.4216 462.435 95.4874C457.532 95.5534 452.77 94.0504 448.5 89.5422C446.428 87.3556 444.566 86.212 442.869 85.813C441.183 85.4166 439.618 85.7454 438.111 86.5914C436.596 87.4423 435.146 88.8137 433.715 90.4876C432.287 92.1599 430.895 94.113 429.488 96.1131C429.372 96.2781 429.256 96.4435 429.139 96.6091C426.451 100.434 423.682 104.375 420.532 106.602C418.877 107.771 417.096 108.486 415.147 108.453ZM443.029 85.1316C444.906 85.573 446.883 86.8174 449.008 89.0608C453.13 93.4124 457.697 94.8511 462.425 94.7874C467.176 94.7234 472.092 93.143 476.893 91.4291C477.524 91.2035 478.155 90.9755 478.782 90.7484C482.898 89.2591 486.903 87.8098 490.543 87.3578C494.768 86.8331 498.566 87.6441 501.521 91.2962C504.325 94.7601 507.297 96.1413 510.241 96.3499C513.204 96.5599 516.185 95.586 518.999 94.2459C520.404 93.5771 521.759 92.8212 523.042 92.0835C523.352 91.9056 523.658 91.7284 523.96 91.5537C524.904 91.0069 525.806 90.4846 526.647 90.0391C527.754 89.4523 528.783 88.9829 529.695 88.7613C530.605 88.5397 531.457 88.552 532.153 89.0088C532.252 89.0735 532.311 89.1835 532.311 89.3015V144.676C532.311 144.869 532.154 145.026 531.961 145.026L236.14 145.026C236.047 145.026 235.958 144.989 235.893 144.923C235.827 144.858 235.79 144.768 235.79 144.676V130.106C235.79 130.008 235.831 129.914 235.904 129.848C235.976 129.781 236.073 129.749 236.171 129.757C243.663 130.42 249.135 129.694 253.562 128.424C257.129 127.401 260.019 126.027 262.77 124.718C263.441 124.399 264.104 124.084 264.766 123.779C268.137 122.225 271.473 120.944 275.73 120.815C279.985 120.686 285.125 121.707 292.118 124.696C298.977 127.627 304.254 126.685 308.604 123.951C312.985 121.198 316.447 116.618 319.616 112.216C319.855 111.883 320.092 111.552 320.328 111.223C321.65 109.38 322.928 107.597 324.202 106.047C325.702 104.222 327.219 102.689 328.829 101.744C330.452 100.792 332.177 100.435 334.06 100.978C335.925 101.516 337.901 102.925 340.069 105.407C344.342 110.299 347.833 112.888 350.806 114.153C353.767 115.413 356.242 115.372 358.515 114.949C359.525 114.76 360.492 114.498 361.454 114.236C361.582 114.202 361.71 114.167 361.838 114.132C362.92 113.84 364.002 113.562 365.101 113.427C367.322 113.153 369.6 113.463 372.179 115.32C373.363 116.173 374.523 116.454 375.688 116.338C376.866 116.221 378.077 115.695 379.346 114.881C380.614 114.068 381.915 112.984 383.273 111.775C383.825 111.284 384.39 110.769 384.965 110.245C385.793 109.491 386.641 108.718 387.502 107.968C390.431 105.421 393.643 103.025 397.252 102.143C400.889 101.254 404.881 101.912 409.328 105.36C411.473 107.023 413.4 107.724 415.159 107.753C416.918 107.783 418.557 107.141 420.128 106.03C423.175 103.876 425.882 100.025 428.604 96.1537C428.708 96.0059 428.811 95.8581 428.915 95.7104C430.321 93.7131 431.73 91.7339 433.183 90.0329C434.635 88.3335 436.148 86.8908 437.768 85.981C439.398 85.0662 441.142 84.6878 443.029 85.1316Z" fill="#3D3D3C"/>
<path d="M289.804 144.797V133.836C309.001 135.84 307.636 121.05 325.385 130.007C343.133 138.965 344.917 100.636 355.858 115.426C366.798 130.216 369.984 117.509 376.356 122.925C382.727 128.341 388.871 105.219 400.021 115.426C411.17 125.633 414.584 89.8038 425.278 103.136C435.973 116.467 451.447 94.1782 458.728 104.802C466.01 115.426 475.339 100.844 478.297 103.136V144.797L289.804 144.797Z" fill="#FFCD07"/>
<path fill-rule="evenodd" clip-rule="evenodd" d="M403.862 117.631C402.568 117.606 401.217 116.996 399.784 115.684C397.067 113.197 394.715 112.782 392.612 113.389C390.465 114.009 388.509 115.71 386.647 117.623C386.099 118.186 385.571 118.754 385.05 119.315C384.684 119.709 384.321 120.1 383.957 120.482C383.088 121.395 382.232 122.24 381.385 122.882C380.54 123.521 379.674 123.982 378.785 124.087C377.878 124.193 376.99 123.924 376.129 123.192C374.616 121.906 373.324 121.71 372.054 121.895C371.403 121.989 370.752 122.185 370.061 122.405C369.981 122.431 369.9 122.457 369.819 122.483C369.208 122.679 368.566 122.885 367.895 123.032C366.356 123.371 364.647 123.405 362.623 122.388C360.617 121.38 358.327 119.352 355.577 115.634C354.225 113.806 353.053 112.856 352.023 112.505C351.02 112.164 350.099 112.373 349.176 113.012C348.238 113.662 347.32 114.743 346.375 116.102C345.576 117.251 344.773 118.573 343.93 119.96C343.779 120.209 343.627 120.459 343.473 120.712C341.463 124.009 339.202 127.559 336.304 129.709C334.847 130.79 333.219 131.526 331.373 131.695C329.527 131.864 327.493 131.463 325.227 130.32C320.821 128.096 317.638 127.366 315.05 127.458C312.465 127.551 310.43 128.466 308.305 129.622C307.894 129.845 307.479 130.078 307.056 130.316C305.3 131.302 303.405 132.367 301.079 133.155C298.257 134.11 294.805 134.66 290.154 134.222V144.447L477.947 144.447V103.327C477.717 103.213 477.415 103.203 477.002 103.321C476.5 103.466 475.899 103.783 475.201 104.22C474.676 104.548 474.115 104.932 473.516 105.342C473.322 105.474 473.124 105.61 472.922 105.747C472.101 106.304 471.222 106.883 470.306 107.398C468.48 108.425 466.463 109.222 464.413 109.05C462.339 108.877 460.304 107.72 458.44 105C457.564 103.722 456.58 102.959 455.515 102.554C454.446 102.148 453.266 102.093 451.985 102.281C449.741 102.61 447.264 103.667 444.632 104.791C444.231 104.962 443.827 105.135 443.419 105.307C440.366 106.594 437.143 107.826 433.999 107.876C430.822 107.927 427.747 106.772 425.006 103.355C423.69 101.715 422.524 100.88 421.486 100.592C420.467 100.309 419.517 100.538 418.582 101.159C417.635 101.786 416.72 102.805 415.81 104.062C414.903 105.317 414.018 106.783 413.121 108.288C413.05 108.406 412.98 108.525 412.909 108.644C412.084 110.03 411.247 111.436 410.382 112.705C409.443 114.081 408.456 115.317 407.391 116.206C406.325 117.096 405.156 117.657 403.862 117.631ZM421.674 99.9174C422.913 100.262 424.193 101.223 425.552 102.917C428.158 106.165 431.027 107.223 433.987 107.176C436.979 107.129 440.086 105.952 443.147 104.662C443.548 104.493 443.949 104.321 444.349 104.151C446.969 103.031 449.542 101.931 451.883 101.588C453.243 101.389 454.55 101.439 455.763 101.9C456.98 102.362 458.072 103.226 459.017 104.604C460.793 107.196 462.655 108.201 464.471 108.353C466.31 108.506 468.176 107.793 469.963 106.788C470.852 106.288 471.712 105.722 472.529 105.167C472.725 105.034 472.92 104.901 473.112 104.77C473.714 104.358 474.292 103.963 474.83 103.626C475.537 103.184 476.207 102.822 476.809 102.649C477.416 102.474 478.018 102.476 478.512 102.859C478.597 102.925 478.647 103.027 478.647 103.136V144.797C478.647 144.991 478.491 145.147 478.297 145.147L289.804 145.147C289.711 145.147 289.622 145.111 289.556 145.045C289.491 144.979 289.454 144.89 289.454 144.797V133.836C289.454 133.736 289.496 133.642 289.57 133.576C289.643 133.509 289.742 133.477 289.84 133.487C294.592 133.984 298.055 133.44 300.854 132.492C303.113 131.727 304.94 130.701 306.692 129.717C307.121 129.476 307.545 129.238 307.97 129.007C310.123 127.836 312.274 126.857 315.025 126.759C317.772 126.66 321.075 127.44 325.543 129.695C327.714 130.791 329.618 131.152 331.309 130.997C333.001 130.843 334.51 130.169 335.887 129.147C338.657 127.092 340.854 123.664 342.876 120.347C343.028 120.098 343.179 119.849 343.329 119.601C344.171 118.214 344.987 116.871 345.801 115.702C346.757 114.328 347.733 113.16 348.778 112.437C349.838 111.702 350.989 111.414 352.248 111.842C353.479 112.261 354.756 113.348 356.139 115.218C358.859 118.895 361.071 120.825 362.937 121.763C364.787 122.692 366.324 122.661 367.745 122.349C368.381 122.209 368.99 122.014 369.604 121.817C369.685 121.791 369.767 121.764 369.849 121.738C370.538 121.518 371.239 121.306 371.953 121.202C373.414 120.989 374.91 121.236 376.582 122.658C377.314 123.28 378.012 123.473 378.704 123.391C379.414 123.308 380.16 122.931 380.962 122.324C381.761 121.719 382.585 120.908 383.45 120C383.8 119.632 384.159 119.246 384.525 118.851C385.054 118.283 385.597 117.698 386.145 117.135C388.01 115.22 390.078 113.392 392.418 112.717C394.802 112.029 397.399 112.551 400.257 115.168C401.612 116.408 402.807 116.911 403.875 116.932C404.944 116.953 405.954 116.493 406.943 115.668C407.934 114.841 408.877 113.667 409.803 112.31C410.656 111.06 411.482 109.672 412.31 108.282C412.38 108.164 412.45 108.047 412.52 107.93C413.415 106.428 414.315 104.935 415.243 103.652C416.17 102.371 417.143 101.272 418.195 100.575C419.257 99.8707 420.415 99.568 421.674 99.9174Z" fill="#3D3D3C"/>
</g>
<path fill-rule="evenodd" clip-rule="evenodd" d="M289.454 71.7593C289.454 71.566 289.61 71.4093 289.804 71.4093H478.297C478.49 71.4093 478.647 71.566 478.647 71.7593V144.797C478.647 144.991 478.49 145.147 478.297 145.147H289.804C289.61 145.147 289.454 144.991 289.454 144.797V71.7593ZM290.154 72.1093V144.447H477.947V72.1093H290.154Z" fill="#3D3D3C"/>
<path d="M492.467 343.305L533.118 355.135L534.461 340.067L488.919 312.778L493.02 344.758" fill="white"/>
<mask id="mask4_33_249" style="mask-type:alpha" maskUnits="userSpaceOnUse" x="488" y="312" width="47" height="44">
<path fill-rule="evenodd" clip-rule="evenodd" d="M492.467 343.305L533.118 355.135L534.461 340.067L488.919 312.778L493.02 344.758" fill="white"/>
</mask>
<g mask="url(#mask4_33_249)">
<path d="M511.69 326.423C521.518 342.931 516.91 354.556 523.461 354.648C530.012 354.741 505.57 358.709 505.57 358.709L502.004 333.956L523.461 320.004" fill="#CFCFD0"/>
</g>
<path fill-rule="evenodd" clip-rule="evenodd" d="M488.728 312.485C488.84 312.411 488.984 312.408 489.099 312.477L534.641 339.767C534.757 339.836 534.822 339.965 534.81 340.098L533.467 355.166C533.458 355.271 533.402 355.365 533.316 355.424C533.229 355.483 533.121 355.501 533.021 355.471L493.263 343.901L493.367 344.714C493.392 344.905 493.256 345.081 493.064 345.105C492.873 345.13 492.697 344.995 492.673 344.803L492.53 343.688L492.369 343.641C492.184 343.587 492.077 343.393 492.131 343.207C492.172 343.065 492.297 342.969 492.436 342.956L488.572 312.822C488.555 312.689 488.615 312.558 488.728 312.485ZM493.166 343.144L532.808 354.68L534.094 340.255L489.358 313.449L493.166 343.144Z" fill="#3D3D3C"/>
<path d="M559.258 388.539C559.258 388.539 547.127 389.694 545.472 376.408C543.817 363.122 528.311 358.081 528.311 358.081L523.461 332.113L539.555 338.93C540.84 339.474 541.88 340.607 542.435 342.067L552.563 368.7L559.258 388.539Z" fill="#4F4F5B"/>
<path fill-rule="evenodd" clip-rule="evenodd" d="M523.242 331.84C523.342 331.76 523.479 331.741 523.598 331.791L539.692 338.608C541.075 339.194 542.177 340.405 542.762 341.942L552.894 368.587L559.589 388.427C559.623 388.529 559.609 388.64 559.551 388.73C559.493 388.819 559.397 388.877 559.291 388.888L559.258 388.539C559.291 388.888 559.291 388.888 559.291 388.888L559.289 388.888L559.287 388.888L559.279 388.889L559.25 388.891C559.225 388.893 559.188 388.896 559.141 388.898C559.048 388.904 558.912 388.91 558.739 388.913C558.394 388.919 557.902 388.912 557.307 388.861C556.118 388.759 554.512 388.482 552.849 387.778C549.502 386.361 545.969 383.226 545.125 376.452C544.314 369.945 540.111 365.44 536.067 362.547C534.048 361.102 532.078 360.068 530.613 359.394C529.881 359.057 529.276 358.812 528.855 358.65C528.644 358.569 528.48 358.51 528.369 358.471C528.313 358.451 528.271 358.437 528.243 358.427L528.212 358.417L528.204 358.414L528.203 358.414C528.203 358.414 528.203 358.414 528.203 358.414M528.617 357.816C528.734 357.857 528.898 357.917 529.106 357.996C529.539 358.163 530.158 358.414 530.906 358.758C532.4 359.445 534.41 360.501 536.474 361.978C540.597 364.927 544.975 369.585 545.819 376.365C546.63 382.877 549.99 385.807 553.122 387.134C554.699 387.801 556.229 388.066 557.366 388.163C557.934 388.212 558.403 388.218 558.727 388.213C558.745 388.213 558.761 388.212 558.778 388.212L552.233 368.818L542.108 342.191C541.582 340.809 540.605 339.755 539.419 339.252L523.925 332.69L528.617 357.816Z" fill="#3D3D3C"/>
<path d="M353.973 311.406L336.173 364.037L349.42 371.182L376.353 321.017L348.927 319.535" fill="white"/>
<mask id="mask5_33_249" style="mask-type:alpha" maskUnits="userSpaceOnUse" x="336" y="311" width="41" height="61">
<path fill-rule="evenodd" clip-rule="evenodd" d="M353.973 311.406L336.173 364.037L349.42 371.182L376.353 321.017L348.927 319.535" fill="white"/>
</mask>
<g mask="url(#mask5_33_249)">
<path d="M333.958 333.956C341.764 352.657 360.818 350.804 362.884 358.91C364.951 367.015 364.491 341.294 364.491 341.294L351.406 333.956" fill="#CFCFD0"/>
</g>
<path fill-rule="evenodd" clip-rule="evenodd" d="M354.086 311.074C354.269 311.136 354.367 311.335 354.305 311.518L351.662 319.332L376.372 320.668C376.492 320.674 376.6 320.741 376.658 320.846C376.717 320.95 376.718 321.077 376.662 321.183L349.729 371.348C349.685 371.429 349.61 371.49 349.521 371.517C349.432 371.544 349.336 371.534 349.254 371.49L336.007 364.345C335.857 364.264 335.787 364.086 335.841 363.925L350.704 319.982L348.908 319.885C348.715 319.874 348.567 319.709 348.577 319.516C348.588 319.323 348.753 319.175 348.946 319.186L350.936 319.293L353.642 311.293C353.704 311.11 353.903 311.012 354.086 311.074ZM351.429 320.021L336.599 363.869L349.278 370.707L375.784 321.337L351.429 320.021Z" fill="#3D3D3C"/>
<path d="M330.822 334.161C330.822 334.161 350.778 352.003 364.015 348.431L414.202 264.717L535.704 212.765L529.568 153.356L402.427 216.392C397.519 218.825 393.34 222.899 390.419 228.098L330.822 334.161Z" fill="#4F4F5B"/>
<mask id="mask6_33_249" style="mask-type:alpha" maskUnits="userSpaceOnUse" x="330" y="153" width="206" height="196">
<path fill-rule="evenodd" clip-rule="evenodd" d="M330.822 334.161C330.822 334.161 350.778 352.003 364.015 348.431L414.202 264.717L535.704 212.765L529.568 153.356L402.427 216.392C397.519 218.825 393.34 222.899 390.419 228.098L330.822 334.161Z" fill="white"/>
</mask>
<g mask="url(#mask6_33_249)">
<path d="M417.06 209.717C417.06 219.689 406.165 227.773 392.725 227.773C379.286 227.773 368.391 219.689 368.391 209.717C368.391 199.744 379.286 191.66 392.725 191.66C406.165 191.66 417.06 199.744 417.06 209.717Z" fill="white"/>
<path fill-rule="evenodd" clip-rule="evenodd" d="M375.727 197.23C371.389 200.448 368.741 204.867 368.741 209.717C368.741 214.566 371.389 218.985 375.727 222.203C380.065 225.422 386.073 227.423 392.726 227.423C399.378 227.423 405.386 225.422 409.724 222.203C414.062 218.985 416.71 214.566 416.71 209.717C416.71 204.867 414.062 200.448 409.724 197.23C405.386 194.012 399.378 192.01 392.726 192.01C386.073 192.01 380.065 194.012 375.727 197.23ZM375.31 196.668C379.78 193.351 385.938 191.31 392.726 191.31C399.513 191.31 405.671 193.351 410.141 196.668C414.611 199.984 417.41 204.594 417.41 209.717C417.41 214.839 414.611 219.449 410.141 222.765C405.671 226.082 399.513 228.123 392.726 228.123C385.938 228.123 379.78 226.082 375.31 222.765C370.84 219.449 368.041 214.839 368.041 209.717C368.041 204.594 370.84 199.984 375.31 196.668Z" fill="#3D3D3C"/>
</g>
<path fill-rule="evenodd" clip-rule="evenodd" d="M529.737 153.049C529.837 153.104 529.904 153.206 529.916 153.32L536.052 212.729C536.068 212.882 535.982 213.027 535.841 213.087L414.444 264.994L364.315 348.611C364.268 348.689 364.193 348.746 364.106 348.769C360.707 349.687 356.904 349.223 353.139 348.043C349.371 346.861 345.609 344.951 342.274 342.935C338.937 340.919 336.017 338.792 333.932 337.169C332.889 336.358 332.055 335.672 331.48 335.189C331.193 334.947 330.971 334.756 330.82 334.625C330.745 334.559 330.687 334.509 330.648 334.475L330.604 334.436L330.59 334.423L330.589 334.422C330.589 334.422 330.589 334.422 330.822 334.161L330.589 334.422C330.467 334.313 330.437 334.133 330.517 333.99L390.114 227.926C393.066 222.672 397.295 218.545 402.272 216.078L529.412 153.042C529.515 152.991 529.636 152.994 529.737 153.049ZM331.266 334.085C331.27 334.089 331.275 334.093 331.279 334.097C331.427 334.225 331.646 334.414 331.931 334.653C332.499 335.131 333.327 335.812 334.362 336.617C336.432 338.228 339.329 340.338 342.636 342.336C345.944 344.335 349.653 346.216 353.349 347.375C356.996 348.518 360.601 348.95 363.788 348.129L413.901 264.537C413.939 264.473 413.996 264.424 414.064 264.395L535.329 212.545L529.271 153.893L402.583 216.705C397.743 219.105 393.614 223.126 390.724 228.269L331.266 334.085Z" fill="#3D3D3C"/>
<path d="M483.019 210.543L430.583 280.449C426.415 285.89 424.109 292.939 424.109 300.244C424.109 312.889 430.964 324.144 441.184 328.279L510.637 361.103C516.007 357.778 517.12 327.749 517.12 327.749L471.393 296.495L529.89 242.205C541.139 231.764 549.41 217.696 553.637 201.812L557.372 187.777L523.461 156.627" fill="#4F4F5B"/>
<mask id="mask7_33_249" style="mask-type:alpha" maskUnits="userSpaceOnUse" x="424" y="156" width="134" height="206">
<path fill-rule="evenodd" clip-rule="evenodd" d="M483.019 210.543L430.583 280.449C426.415 285.89 424.109 292.939 424.109 300.244C424.109 312.889 430.964 324.144 441.184 328.279L510.637 361.103C516.007 357.778 517.12 327.749 517.12 327.749L471.393 296.495L529.89 242.205C541.139 231.764 549.41 217.696 553.637 201.812L557.372 187.777L523.461 156.627" fill="white"/>
</mask>
<g mask="url(#mask7_33_249)">
<path d="M509.201 172.177C528.035 186.281 564.401 206.421 541.359 238.344C518.318 270.267 573.584 213.091 573.584 213.091L561.581 181.168C558.034 180.343 513.566 172.176 513.566 172.176" fill="#3D3D3C"/>
<path d="M424.866 318.928L427.657 324.631C428.031 325.398 428.758 325.931 429.6 326.056L435.84 326.97C436.814 327.117 437.622 327.805 437.925 328.746C438.228 329.688 437.975 330.72 437.271 331.412L432.756 335.852C432.147 336.451 431.869 337.313 432.013 338.157L433.079 344.425C433.249 345.399 432.853 346.386 432.057 346.969C431.262 347.552 430.205 347.63 429.333 347.171L423.753 344.211C423.001 343.812 422.102 343.812 421.35 344.211L415.769 347.171C414.897 347.63 413.841 347.552 413.045 346.969C412.25 346.386 411.853 345.399 412.023 344.425L413.089 338.157C413.233 337.313 412.956 336.451 412.347 335.852L407.832 331.412C407.128 330.72 406.874 329.688 407.177 328.746C407.481 327.805 408.288 327.117 409.263 326.97L415.502 326.056C416.344 325.931 417.071 325.398 417.446 324.631L420.236 318.928C420.668 318.039 421.567 317.476 422.551 317.476C423.536 317.476 424.434 318.039 424.866 318.928Z" fill="#4F4F5B"/>
<path fill-rule="evenodd" clip-rule="evenodd" d="M422.551 317.826C421.701 317.826 420.924 318.312 420.551 319.081L417.76 324.784C417.76 324.785 417.76 324.784 417.76 324.784M419.922 318.774C420.412 317.766 421.432 317.126 422.551 317.126C423.67 317.126 424.691 317.766 425.181 318.775L427.971 324.477C428.295 325.141 428.924 325.602 429.651 325.709L435.892 326.624C436.998 326.791 437.914 327.572 438.258 328.639C438.602 329.706 438.315 330.877 437.516 331.662L433.001 336.101C432.474 336.62 432.234 337.366 432.358 338.098L433.424 344.365C433.424 344.365 433.424 344.365 433.424 344.365C433.616 345.47 433.167 346.589 432.264 347.251C431.361 347.913 430.161 348.002 429.17 347.48L423.589 344.52C422.939 344.176 422.163 344.176 421.514 344.52L415.932 347.48C414.941 348.002 413.741 347.913 412.838 347.251C411.935 346.589 411.486 345.47 411.678 344.366C411.678 344.366 411.678 344.366 411.678 344.366L412.744 338.098C412.869 337.367 412.628 336.62 412.101 336.101M412.101 336.101L407.586 331.662C406.788 330.877 406.5 329.706 406.844 328.639C407.188 327.572 408.104 326.791 409.21 326.624L409.212 326.624L415.451 325.709C416.178 325.602 416.807 325.142 417.131 324.477L419.922 318.774C419.922 318.774 419.922 318.774 419.922 318.774M422.551 317.826C423.401 317.826 424.178 318.312 424.551 319.081L422.551 317.826ZM424.551 319.081L427.342 324.784L424.551 319.081ZM427.342 324.784C427.767 325.655 428.593 326.261 429.549 326.402L435.788 327.316C435.787 327.316 435.788 327.316 435.788 327.316C436.63 327.444 437.329 328.039 437.592 328.854C437.855 329.669 437.635 330.564 437.025 331.163L432.51 335.602C431.82 336.282 431.505 337.259 431.668 338.215C431.668 338.215 431.668 338.215 431.668 338.215L432.734 344.484L432.734 344.486C432.881 345.329 432.538 346.182 431.85 346.686C431.163 347.19 430.25 347.258 429.496 346.861C429.497 346.861 429.496 346.861 429.496 346.861L423.917 343.902C423.917 343.902 423.917 343.902 423.917 343.902C423.062 343.449 422.04 343.449 421.186 343.902C421.186 343.902 421.186 343.902 421.186 343.902L415.606 346.861C415.606 346.861 415.606 346.861 415.606 346.861C414.852 347.258 413.939 347.19 413.252 346.686C412.564 346.182 412.221 345.329 412.368 344.486L412.368 344.484L413.434 338.216C413.434 338.216 413.434 338.215 413.434 338.216C413.597 337.259 413.283 336.282 412.592 335.602L408.077 331.163C407.468 330.564 407.248 329.669 407.51 328.854C407.773 328.039 408.472 327.444 409.314 327.316C409.314 327.316 409.314 327.316 409.314 327.316" fill="#3D3D3C"/>
</g>
<path fill-rule="evenodd" clip-rule="evenodd" d="M523.203 156.39C523.334 156.248 523.556 156.238 523.698 156.369L557.608 187.519C557.704 187.607 557.743 187.741 557.71 187.867L553.975 201.902C549.732 217.845 541.429 231.973 530.127 242.461L471.952 296.453L517.317 327.46C517.416 327.528 517.474 327.642 517.469 327.762L517.12 327.749C517.469 327.762 517.47 327.762 517.469 327.762L517.469 327.764L517.469 327.784L517.466 327.849C517.465 327.879 517.463 327.917 517.462 327.961C517.46 328.002 517.458 328.049 517.456 328.102C517.446 328.324 517.432 328.649 517.411 329.063C517.37 329.892 517.305 331.08 517.211 332.516C517.023 335.387 516.715 339.251 516.24 343.221C515.764 347.188 515.12 351.272 514.254 354.577C513.821 356.23 513.331 357.699 512.773 358.866C512.22 360.023 511.58 360.931 510.821 361.401C510.72 361.463 510.595 361.471 510.487 361.42L441.043 328.6C430.673 324.399 423.759 313.001 423.759 300.244C423.759 292.868 426.086 285.744 430.304 280.238C430.304 280.237 430.305 280.237 430.305 280.236L482.739 210.333C482.855 210.178 483.075 210.147 483.229 210.263C483.384 210.379 483.415 210.598 483.299 210.753L430.863 280.659L430.861 280.662C426.742 286.038 424.459 293.01 424.459 300.244C424.459 312.773 431.251 323.883 441.315 327.955C441.321 327.958 441.327 327.96 441.333 327.963L510.606 360.702C511.136 360.308 511.652 359.588 512.141 358.564C512.673 357.453 513.15 356.031 513.577 354.4C514.43 351.14 515.071 347.093 515.545 343.137C516.018 339.184 516.325 335.333 516.513 332.47C516.607 331.039 516.671 329.855 516.712 329.029C516.732 328.616 516.747 328.292 516.756 328.072C516.759 328.018 516.761 327.97 516.762 327.929L471.195 296.784C471.107 296.724 471.051 296.627 471.044 296.521C471.036 296.415 471.076 296.311 471.154 296.238L529.651 241.948C540.849 231.556 549.087 217.547 553.298 201.722L556.979 187.891L523.224 156.885C523.082 156.754 523.073 156.532 523.203 156.39Z" fill="#3D3D3C"/>
<path d="M540.486 226.598L532.564 222.177C538.958 212.263 533.32 205.85 523.274 196.466C516.92 190.531 510.92 184.926 511.89 177.116C512.398 173.031 514.743 169.086 518.875 165.374L524.412 172.59C523.293 173.596 521.924 175.051 521.772 176.264C521.383 179.387 526.573 184.233 530.743 188.129C539.843 196.629 552.304 208.269 540.486 226.598Z" fill="white"/>
<mask id="mask8_33_249" style="mask-type:alpha" maskUnits="userSpaceOnUse" x="511" y="165" width="35" height="62">
<path fill-rule="evenodd" clip-rule="evenodd" d="M540.486 226.598L532.564 222.177C538.958 212.263 533.32 205.85 523.274 196.466C516.92 190.531 510.92 184.926 511.89 177.116C512.398 173.031 514.743 169.086 518.875 165.374L524.412 172.59C523.293 173.596 521.924 175.051 521.772 176.264C521.383 179.387 526.573 184.233 530.743 188.129C539.843 196.629 552.304 208.269 540.486 226.598Z" fill="white"/>
</mask>
<g mask="url(#mask8_33_249)">
<path d="M532.205 213.794L546.981 223.383L536.063 237.355L524.137 226.08L529.247 218.68" fill="white"/>
<path fill-rule="evenodd" clip-rule="evenodd" d="M531.911 213.604C532.016 213.442 532.233 213.395 532.395 213.501L547.171 223.089C547.254 223.142 547.31 223.228 547.326 223.325C547.342 223.422 547.317 223.521 547.257 223.598L536.339 237.571C536.278 237.649 536.188 237.697 536.089 237.704C535.991 237.712 535.894 237.677 535.823 237.61L523.896 226.334C523.771 226.216 523.75 226.023 523.849 225.881L528.959 218.481C529.069 218.322 529.287 218.283 529.446 218.392C529.605 218.502 529.645 218.72 529.535 218.879L524.595 226.032L536.024 236.837L546.47 223.468L532.014 214.088C531.852 213.983 531.806 213.766 531.911 213.604Z" fill="#3D3D3C"/>
</g>
<path fill-rule="evenodd" clip-rule="evenodd" d="M518.907 165.025C519.004 165.034 519.093 165.083 519.153 165.16L524.69 172.377C524.801 172.522 524.782 172.728 524.646 172.851C524.094 173.346 523.489 173.946 523.005 174.565C522.514 175.193 522.183 175.798 522.119 176.308M518.907 165.025C518.81 165.016 518.714 165.048 518.641 165.113L518.907 165.025ZM518.829 165.888C514.913 169.488 512.721 173.275 512.237 177.159C511.766 180.953 512.983 184.222 515.123 187.294C517.27 190.377 520.329 193.236 523.513 196.21L523.513 196.21C528.526 200.893 532.502 204.887 534.402 208.975C535.357 211.031 535.792 213.118 535.571 215.331C535.36 217.45 534.551 219.661 533.058 222.052L540.369 226.131C546.038 217.186 545.836 209.905 543.139 203.819C540.398 197.632 535.065 192.644 530.504 188.385L530.504 188.385L530.488 188.369C528.411 186.429 526.063 184.235 524.281 182.133C523.388 181.079 522.627 180.036 522.113 179.049C521.602 178.068 521.315 177.104 521.425 176.221L521.425 176.221C521.513 175.517 521.942 174.788 522.454 174.134C522.901 173.562 523.436 173.015 523.939 172.548L518.829 165.888ZM518.641 165.113C514.468 168.862 512.065 172.879 511.543 177.073L518.641 165.113ZM530.982 187.873C530.982 187.873 530.982 187.873 530.982 187.873L531.006 187.895C535.54 192.13 540.975 197.206 543.779 203.535C546.606 209.914 546.749 217.53 540.78 226.787C540.68 226.943 540.477 226.993 540.316 226.903L532.394 222.483C532.309 222.436 532.248 222.356 532.225 222.262C532.201 222.168 532.218 222.069 532.27 221.987C533.847 219.543 534.668 217.335 534.875 215.262C535.081 213.192 534.678 211.23 533.767 209.27C531.935 205.327 528.068 201.423 523.035 196.721C523.035 196.721 523.035 196.721 523.035 196.721L523.021 196.708C519.856 193.752 516.743 190.845 514.548 187.694C512.343 184.528 511.044 181.089 511.543 177.073L511.543 177.073M530.982 187.873C528.894 185.922 526.57 183.751 524.815 181.68C523.938 180.645 523.214 179.648 522.734 178.726C522.251 177.799 522.035 176.987 522.119 176.308" fill="#3D3D3C"/>
<path d="M491.12 164.715C494.132 173.308 570.644 191.66 570.644 191.66C570.644 191.66 570.252 162.686 575.744 134.114C581.903 102.07 554.938 70.7677 554.938 70.7677L524.843 80.5913C524.843 80.5913 505.288 104.433 512.779 137.762C517.493 158.731 491.12 164.715 491.12 164.715Z" fill="#FFCD07"/>
<mask id="mask9_33_249" style="mask-type:alpha" maskUnits="userSpaceOnUse" x="491" y="70" width="86" height="122">
<path fill-rule="evenodd" clip-rule="evenodd" d="M491.12 164.715C494.132 173.308 570.644 191.66 570.644 191.66C570.644 191.66 570.252 162.686 575.744 134.114C581.903 102.07 554.938 70.7677 554.938 70.7677L524.843 80.5913C524.843 80.5913 505.288 104.433 512.779 137.762C517.493 158.731 491.12 164.715 491.12 164.715Z" fill="white"/>
</mask>
<g mask="url(#mask9_33_249)">
<path d="M466.098 163.76C468.518 163.809 470.881 163.325 473.055 163.782C548.524 179.649 517.49 144.036 537.414 126.051C544.932 119.265 502.927 118.836 502.927 118.836L482.057 137.762" fill="#FFA00A"/>
<path fill-rule="evenodd" clip-rule="evenodd" d="M576.732 101.635C569.953 102.122 560.661 104.418 550.646 111.675C550.489 111.788 550.271 111.753 550.157 111.597C550.044 111.44 550.079 111.222 550.235 111.108C560.367 103.767 569.787 101.432 576.682 100.937C580.128 100.689 582.942 100.901 584.898 101.176C585.876 101.314 586.639 101.467 587.16 101.587C587.42 101.646 587.62 101.698 587.756 101.734C587.823 101.752 587.875 101.767 587.91 101.777L587.951 101.789L587.962 101.793L587.965 101.793L587.966 101.794C587.966 101.794 587.967 101.794 587.864 102.125L587.967 101.794C588.151 101.851 588.255 102.047 588.198 102.232C588.141 102.416 587.945 102.52 587.76 102.463C587.76 102.463 587.76 102.463 587.76 102.463L587.76 102.463L587.758 102.462L587.75 102.46L587.716 102.45C587.684 102.441 587.637 102.427 587.573 102.41C587.446 102.376 587.255 102.326 587.003 102.269C586.501 102.154 585.757 102.004 584.8 101.87C582.887 101.6 580.123 101.391 576.732 101.635Z" fill="#3D3D3C"/>
</g>
<path fill-rule="evenodd" clip-rule="evenodd" d="M555.203 70.5393L554.938 70.7677C555.203 70.5393 555.203 70.539 555.203 70.5393L555.205 70.5411L555.209 70.5457L555.224 70.5634L555.283 70.6327C555.334 70.6938 555.41 70.7846 555.509 70.9041C555.707 71.1431 555.995 71.497 556.359 71.9584C557.088 72.8812 558.121 74.234 559.341 75.9572C561.78 79.403 564.968 84.3321 567.963 90.2666C573.949 102.127 579.189 118.047 576.088 134.18C573.346 148.445 572.072 162.815 571.484 173.621C571.19 179.023 571.067 183.533 571.018 186.692C570.994 188.272 570.987 189.513 570.987 190.36C570.987 190.783 570.989 191.107 570.99 191.326C570.991 191.435 570.992 191.517 570.993 191.573L570.993 191.635L570.993 191.651L570.993 191.654C570.993 191.655 570.993 191.656 570.953 191.656L570.993 191.656C570.995 191.764 570.946 191.866 570.862 191.934C570.778 192.001 570.667 192.026 570.562 192.001L570.643 191.66C570.562 192.001 570.562 192.001 570.562 192.001L570.342 191.948C570.197 191.913 569.982 191.861 569.701 191.792C569.139 191.656 568.315 191.454 567.266 191.195C565.167 190.676 562.166 189.925 558.554 188.998C551.332 187.142 541.67 184.579 531.913 181.746C522.158 178.914 512.301 175.812 504.69 172.877C500.886 171.41 497.633 169.982 495.231 168.646C494.031 167.978 493.034 167.328 492.285 166.702C491.543 166.082 491.009 165.457 490.789 164.831C490.756 164.737 490.765 164.633 490.814 164.546C490.862 164.458 490.945 164.396 491.042 164.374L491.046 164.373L491.059 164.37L491.113 164.357C491.162 164.345 491.234 164.328 491.328 164.303C491.517 164.255 491.795 164.182 492.147 164.081C492.852 163.878 493.855 163.565 495.045 163.124C497.427 162.242 500.548 160.85 503.519 158.813C506.491 156.776 509.297 154.102 511.072 150.66C512.844 147.225 513.599 143.003 512.438 137.839C508.673 121.09 511.705 106.725 515.676 96.551C517.661 91.4642 519.882 87.4231 521.608 84.6523C522.471 83.2667 523.21 82.1984 523.734 81.4753C523.997 81.1138 524.205 80.8385 524.349 80.653C524.42 80.5602 524.476 80.4899 524.514 80.4425L524.557 80.3886L524.568 80.3746L524.572 80.3698C524.572 80.3695 524.573 80.3693 524.843 80.5913L524.572 80.3698C524.615 80.3182 524.671 80.2793 524.735 80.2586L554.829 70.435C554.964 70.3912 555.111 70.4323 555.203 70.5393ZM525.051 80.8917C525.015 80.9362 524.966 80.9995 524.902 81.0813C524.763 81.2614 524.559 81.5309 524.301 81.8863C523.785 82.5973 523.055 83.6519 522.202 85.0223C520.495 87.7633 518.295 91.7658 516.328 96.8055C512.394 106.885 509.394 121.105 513.121 137.686C514.317 143.006 513.543 147.396 511.695 150.98C509.85 154.557 506.947 157.311 503.915 159.391C500.882 161.47 497.704 162.886 495.288 163.781C494.08 164.228 493.059 164.547 492.34 164.753C492.047 164.838 491.804 164.903 491.618 164.952C491.835 165.315 492.202 165.721 492.734 166.165C493.436 166.752 494.392 167.378 495.572 168.034C497.931 169.347 501.149 170.762 504.942 172.224C512.524 175.147 522.359 178.244 532.109 181.074C541.856 183.904 551.51 186.465 558.729 188.32C562.337 189.247 565.337 189.997 567.434 190.515C568.483 190.774 569.305 190.976 569.866 191.112C570.03 191.152 570.172 191.186 570.29 191.215C570.288 191.002 570.287 190.715 570.287 190.36C570.287 189.51 570.294 188.265 570.318 186.681C570.367 183.515 570.49 178.996 570.785 173.583C571.374 162.759 572.65 148.355 575.4 134.048C578.459 118.136 573.295 102.384 567.338 90.582C564.362 84.6855 561.194 79.7863 558.769 76.3616C557.558 74.6495 556.532 73.3065 555.81 72.3922C555.449 71.9351 555.164 71.5853 554.97 71.3501C554.913 71.2814 554.864 71.2225 554.823 71.1735L525.051 80.8917Z" fill="#3D3D3C"/>
<path d="M294.102 381.862C294.102 381.862 298.942 363.479 316.198 367.8C332.862 371.973 336.519 354.648 336.519 354.648L355.314 361.544L350.237 381.001L294.102 381.862Z" fill="#4F4F5B"/>
<path fill-rule="evenodd" clip-rule="evenodd" d="M336.349 354.342C336.438 354.293 336.544 354.285 336.639 354.32L355.435 361.215C355.604 361.277 355.699 361.458 355.653 361.632L350.576 381.089C350.536 381.241 350.4 381.348 350.243 381.351L294.107 382.212C293.997 382.213 293.893 382.164 293.826 382.077C293.758 381.991 293.735 381.878 293.763 381.773L294.101 381.862C293.763 381.773 293.763 381.772 293.763 381.772L293.763 381.771L293.764 381.768L293.767 381.757L293.779 381.715C293.789 381.678 293.804 381.625 293.825 381.557C293.865 381.419 293.927 381.22 294.011 380.969C294.18 380.466 294.44 379.755 294.807 378.917C295.539 377.241 296.699 375.047 298.41 372.987C300.121 370.926 302.39 368.99 305.339 367.848C308.293 366.704 311.905 366.364 316.283 367.461C320.388 368.489 323.666 368.187 326.277 367.179C328.891 366.17 330.862 364.441 332.332 362.573C333.803 360.703 334.765 358.702 335.36 357.164C335.658 356.396 335.862 355.746 335.992 355.289C336.057 355.06 336.104 354.881 336.134 354.759C336.149 354.698 336.159 354.651 336.166 354.62L336.174 354.586L336.176 354.578L336.176 354.576L336.176 354.576L336.176 354.576C336.197 354.477 336.26 354.391 336.349 354.342ZM336.766 355.112C336.739 355.216 336.706 355.34 336.666 355.48C336.531 355.955 336.319 356.626 336.013 357.416C335.402 358.996 334.409 361.065 332.882 363.005C331.355 364.947 329.288 366.767 326.529 367.832C323.768 368.899 320.34 369.198 316.113 368.14C311.863 367.075 308.4 367.413 305.592 368.501C302.781 369.59 300.604 371.44 298.948 373.434C297.292 375.429 296.163 377.561 295.448 379.197C295.091 380.014 294.838 380.706 294.675 381.192C294.636 381.308 294.602 381.413 294.573 381.504L349.966 380.655L354.895 361.763L336.766 355.112Z" fill="#3D3D3C"/>
<path d="M438.781 150.937C438.781 150.937 430.529 147.295 421.326 150.601C412.123 153.908 405.987 152.612 405.987 152.612C405.987 152.612 403.411 159.141 414.058 158.031C414.058 158.031 399.553 169.699 388.9 169.663C382.02 169.64 381.597 179.13 402.032 173.303C417.549 168.878 430.5 160.264 441.099 161.054C444.699 161.322 438.781 150.937 438.781 150.937Z" fill="white"/>
<mask id="mask10_33_249" style="mask-type:alpha" maskUnits="userSpaceOnUse" x="384" y="149" width="59" height="27">
<path fill-rule="evenodd" clip-rule="evenodd" d="M438.781 150.937C438.781 150.937 430.529 147.295 421.326 150.601C412.123 153.908 405.987 152.612 405.987 152.612C405.987 152.612 403.411 159.141 414.058 158.031C414.058 158.031 399.553 169.699 388.9 169.663C382.02 169.64 381.597 179.13 402.032 173.303C417.549 168.878 430.5 160.264 441.099 161.054C444.699 161.322 438.781 150.937 438.781 150.937Z" fill="white"/>
</mask>
<g mask="url(#mask10_33_249)">
<path d="M424.639 147.939C432.904 154.424 423.683 161.371 423.186 167.045C422.688 172.719 437.895 167.971 437.895 167.971V158.592" fill="#CFCFD0"/>
</g>
<path fill-rule="evenodd" clip-rule="evenodd" d="M438.922 150.617C438.922 150.617 438.922 150.617 438.781 150.937C439.085 150.764 439.085 150.764 439.085 150.764L439.086 150.766L439.09 150.772L439.103 150.795L439.152 150.883C439.195 150.96 439.258 151.072 439.336 151.215C439.491 151.501 439.71 151.908 439.961 152.396C440.462 153.37 441.094 154.67 441.615 155.966C442.131 157.25 442.553 158.57 442.605 159.568C442.631 160.063 442.57 160.544 442.319 160.898C442.047 161.283 441.61 161.443 441.073 161.403C435.865 161.015 430.047 162.938 423.54 165.547C422.039 166.149 420.503 166.787 418.932 167.44C413.714 169.606 408.108 171.934 402.128 173.639C396.999 175.102 393.156 175.61 390.383 175.539C387.624 175.468 385.862 174.823 384.971 173.903C384.519 173.436 384.291 172.895 384.293 172.34C384.295 171.789 384.523 171.261 384.911 170.813C385.683 169.92 387.109 169.307 388.901 169.313C394.125 169.331 400.344 166.468 405.297 163.559C407.764 162.109 409.901 160.658 411.422 159.569C412.019 159.141 412.522 158.769 412.911 158.475C408.395 158.729 406.437 157.46 405.712 155.884C405.332 155.057 405.324 154.203 405.404 153.571C405.444 153.253 405.507 152.985 405.561 152.795C405.587 152.7 405.612 152.625 405.63 152.572C405.639 152.545 405.646 152.524 405.652 152.509L405.659 152.492L405.661 152.486L405.661 152.485C405.661 152.484 405.662 152.483 405.987 152.612L405.662 152.483C405.724 152.325 405.892 152.234 406.059 152.269L406.062 152.27L406.073 152.272C406.083 152.274 406.1 152.277 406.122 152.281C406.166 152.29 406.233 152.301 406.323 152.315C406.502 152.343 406.771 152.38 407.124 152.414C407.829 152.483 408.868 152.541 410.194 152.497C412.845 152.408 416.643 151.912 421.207 150.272C425.879 148.593 430.305 148.68 433.558 149.183C435.185 149.435 436.522 149.792 437.453 150.086C437.919 150.233 438.284 150.365 438.533 150.46C438.658 150.508 438.754 150.547 438.82 150.574C438.852 150.587 438.877 150.598 438.895 150.605L438.914 150.614L438.92 150.616L438.922 150.617ZM406.228 153.009C406.42 153.039 406.697 153.076 407.056 153.111C407.789 153.182 408.859 153.241 410.217 153.196C412.934 153.106 416.805 152.597 421.444 150.931C425.975 149.303 430.277 149.384 433.451 149.875C435.037 150.121 436.339 150.468 437.242 150.753C437.694 150.896 438.046 151.023 438.284 151.114C438.391 151.155 438.475 151.189 438.535 151.213L438.541 151.224C438.583 151.3 438.644 151.41 438.721 151.551C438.875 151.832 439.091 152.234 439.338 152.716C439.834 153.68 440.456 154.959 440.965 156.227C441.479 157.505 441.861 158.731 441.906 159.605C441.929 160.045 441.862 160.332 441.747 160.494C441.654 160.626 441.488 160.732 441.125 160.705C435.735 160.303 429.777 162.292 423.279 164.898C421.763 165.506 420.217 166.148 418.639 166.803C413.428 168.967 407.873 171.273 401.936 172.966C396.848 174.417 393.08 174.908 390.401 174.839C387.706 174.77 386.173 174.138 385.474 173.416C385.132 173.063 384.992 172.692 384.993 172.342C384.994 171.989 385.14 171.617 385.44 171.27C386.044 170.572 387.251 170.008 388.899 170.013C394.328 170.031 400.689 167.077 405.651 164.162C408.142 162.699 410.297 161.236 411.829 160.138C412.596 159.589 413.207 159.131 413.627 158.811C413.837 158.65 413.999 158.524 414.109 158.438C414.164 158.394 414.206 158.361 414.234 158.339L414.266 158.313L414.277 158.305C414.277 158.304 414.278 158.304 414.058 158.031L414.278 158.304C414.398 158.207 414.441 158.041 414.382 157.898C414.323 157.754 414.176 157.667 414.022 157.683C408.74 158.234 406.937 156.871 406.348 155.592C406.042 154.926 406.028 154.217 406.098 153.659C406.132 153.395 406.183 153.171 406.228 153.009ZM438.781 150.937L439.085 150.764C439.048 150.699 438.991 150.647 438.922 150.617L438.781 150.937Z" fill="#3D3D3C"/>
<path d="M527.25 88.3411L486.485 124.667L425.439 144.382C425.423 152.096 435.209 163.761 435.209 163.761L496.407 152.795C499.911 151.992 503.271 150.648 506.366 148.813L540.6 125.924" fill="#FFCD07"/>
<path d="M528.35 84.5138C528.35 85.3237 527.699 85.9802 526.896 85.9802C526.093 85.9802 525.443 85.3237 525.443 84.5138C525.443 83.704 526.093 83.0475 526.896 83.0475C527.699 83.0475 528.35 83.704 528.35 84.5138Z" fill="#4F4F5B"/>
<path d="M437.895 137.763C437.895 137.763 442.542 159.523 446.904 162.205L435.209 163.761C435.209 163.761 423.488 150.973 425.439 144.383L437.895 137.763Z" fill="white"/>
<path fill-rule="evenodd" clip-rule="evenodd" d="M438.238 137.69L437.895 137.763C438.238 137.69 438.238 137.689 438.238 137.69L438.241 137.705L438.251 137.751C438.26 137.792 438.273 137.853 438.29 137.933C438.325 138.092 438.377 138.326 438.445 138.626C438.58 139.225 438.778 140.083 439.03 141.122C439.533 143.201 440.248 145.999 441.1 148.879C441.951 151.761 442.937 154.717 443.977 157.115C444.498 158.314 445.029 159.366 445.559 160.196C446.095 161.034 446.61 161.613 447.087 161.907C447.213 161.984 447.277 162.133 447.246 162.278C447.216 162.423 447.097 162.532 446.95 162.552L435.255 164.108C435.142 164.123 435.028 164.081 434.951 163.997L435.209 163.761C434.951 163.997 434.951 163.997 434.951 163.997L434.95 163.996L434.942 163.987L434.916 163.959C434.894 163.934 434.86 163.897 434.817 163.849C434.731 163.753 434.605 163.611 434.446 163.429C434.127 163.064 433.674 162.536 433.138 161.882C432.064 160.574 430.653 158.76 429.301 156.738C427.951 154.717 426.654 152.477 425.816 150.317C424.983 148.169 424.582 146.044 425.103 144.283C425.13 144.193 425.192 144.118 425.275 144.074L437.731 137.454C437.828 137.402 437.944 137.399 438.043 137.445C438.143 137.492 438.215 137.582 438.238 137.69ZM435.345 163.389L446.053 161.965C445.68 161.594 445.319 161.119 444.97 160.573C444.411 159.7 443.864 158.612 443.335 157.394C442.278 154.958 441.283 151.97 440.428 149.077C439.573 146.182 438.854 143.372 438.349 141.287C438.097 140.244 437.898 139.382 437.762 138.78C437.719 138.589 437.682 138.424 437.652 138.288L425.736 144.621C425.341 146.134 425.678 148.025 426.469 150.064C427.28 152.156 428.547 154.349 429.883 156.349C431.218 158.347 432.615 160.141 433.679 161.438C434.21 162.085 434.658 162.608 434.973 162.968C435.13 163.148 435.254 163.288 435.339 163.382C435.341 163.384 435.343 163.387 435.345 163.389Z" fill="#3D3D3C"/>
<path d="M381.037 85.2884C379.914 87.515 378.253 89.4233 376.206 90.8386L381.037 85.2884Z" fill="#F5F6F7"/>
<path fill-rule="evenodd" clip-rule="evenodd" d="M381.194 84.9759C381.367 85.0629 381.436 85.2733 381.349 85.4459C380.2 87.7247 378.501 89.6779 376.405 91.1265C376.246 91.2365 376.028 91.1967 375.918 91.0377C375.808 90.8787 375.848 90.6606 376.007 90.5507C378.006 89.1688 379.628 87.3053 380.724 85.1309C380.811 84.9582 381.021 84.8889 381.194 84.9759Z" fill="#3D3D3C"/>
<path d="M546.984 150.569L543.551 154.747L546.984 150.569Z" fill="#F5F6F7"/>
<path fill-rule="evenodd" clip-rule="evenodd" d="M547.206 150.299C547.355 150.421 547.377 150.642 547.254 150.791L543.822 154.969C543.699 155.118 543.478 155.14 543.329 155.017C543.18 154.895 543.158 154.674 543.281 154.525L546.713 150.347C546.836 150.198 547.056 150.176 547.206 150.299Z" fill="#3D3D3C"/>
<path fill-rule="evenodd" clip-rule="evenodd" d="M496.683 225.244C496.869 225.297 496.977 225.49 496.925 225.676C494.553 234.039 494.577 242.904 496.993 251.254C497.047 251.439 496.94 251.634 496.755 251.687C496.569 251.741 496.375 251.634 496.321 251.448C493.868 242.972 493.844 233.974 496.251 225.485C496.304 225.299 496.497 225.191 496.683 225.244Z" fill="#3D3D3C"/>
<path fill-rule="evenodd" clip-rule="evenodd" d="M539.253 361.652C539.346 361.761 539.363 361.916 539.296 362.043L533.142 373.735C533.052 373.906 532.84 373.972 532.669 373.882C532.498 373.792 532.432 373.58 532.522 373.409L538.267 362.495L533.029 364.284C532.847 364.347 532.648 364.249 532.585 364.066C532.523 363.883 532.62 363.684 532.803 363.622L538.874 361.548C539.009 361.502 539.159 361.543 539.253 361.652Z" fill="#3D3D3C"/>
<path d="M328.027 354.466C329.984 356.202 331.811 358.079 333.494 360.083C329.372 359.482 325.183 359.521 321.072 360.198" fill="#F5F6F7"/>
<path fill-rule="evenodd" clip-rule="evenodd" d="M327.765 354.234C327.893 354.089 328.115 354.076 328.259 354.204C330.229 355.951 332.068 357.84 333.762 359.857C333.856 359.969 333.871 360.126 333.8 360.253C333.729 360.38 333.588 360.45 333.444 360.429C329.357 359.834 325.204 359.873 321.129 360.543C320.938 360.575 320.758 360.445 320.727 360.255C320.695 360.064 320.825 359.884 321.015 359.853C324.859 359.22 328.771 359.14 332.633 359.614C331.128 357.882 329.511 356.25 327.795 354.728C327.65 354.6 327.637 354.379 327.765 354.234Z" fill="#3D3D3C"/>
<path d="M121.307 171.249L102.021 152.718L142.264 110.1L161.55 128.631L121.307 171.249Z" fill="white"/>
<mask id="mask11_33_249" style="mask-type:alpha" maskUnits="userSpaceOnUse" x="102" y="110" width="60" height="62">
<path fill-rule="evenodd" clip-rule="evenodd" d="M121.307 171.249L102.021 152.718L142.264 110.1L161.55 128.631L121.307 171.249Z" fill="white"/>
</mask>
<g mask="url(#mask11_33_249)">
<path d="M159.374 138.902C140.264 148.915 135.369 121.642 125.013 131.719C114.658 141.797 128.433 158.544 138.813 165.007C149.193 171.47 116.641 176.19 116.641 176.19L92.6011 134.032L130.927 109.45L144.606 123.864" fill="#CFCFD0"/>
</g>
<path fill-rule="evenodd" clip-rule="evenodd" d="M142.256 109.75C142.349 109.748 142.44 109.783 142.507 109.848L161.792 128.378C161.93 128.512 161.936 128.731 161.804 128.871L121.561 171.489L121.306 171.249L121.064 171.501L101.779 152.97C101.64 152.837 101.635 152.617 101.767 152.478L142.01 109.86C142.074 109.792 142.163 109.752 142.256 109.75ZM121.294 170.752L161.057 128.643L142.276 110.597L102.514 152.706L121.294 170.752Z" fill="#3D3D3C"/>
<path d="M58.1509 218.655C48.6536 209.529 48.4623 194.307 57.7272 184.941L107.352 134.776L138.813 165.007L91.5534 217.444C87.3338 222.137 81.4007 224.914 75.1073 225.143C68.8139 225.371 62.6967 223.03 58.1509 218.655Z" fill="#4F4F5B"/>
<mask id="mask12_33_249" style="mask-type:alpha" maskUnits="userSpaceOnUse" x="50" y="134" width="89" height="92">
<path fill-rule="evenodd" clip-rule="evenodd" d="M58.1509 218.655C48.6536 209.529 48.4623 194.307 57.7272 184.941L107.352 134.776L138.813 165.007L91.5534 217.444C87.3338 222.137 81.4007 224.914 75.1073 225.143C68.8139 225.371 62.6967 223.03 58.1509 218.655Z" fill="white"/>
</mask>
<g mask="url(#mask12_33_249)">
<path d="M144.1 156.412C71.8928 237.713 62.8836 201.962 46.0101 189.598C29.1366 177.234 41.7916 235.98 41.7916 235.98L71.4149 272.068L135.563 214.277L140.965 172.625" fill="white"/>
<path fill-rule="evenodd" clip-rule="evenodd" d="M144.332 156.15C144.477 156.279 144.49 156.5 144.362 156.644C126.302 176.979 112.179 190.011 100.885 197.921C89.5924 205.83 81.0957 208.642 74.2965 208.479C67.4859 208.316 62.4449 205.17 58.0699 201.324C56.2815 199.752 54.5963 198.056 52.9485 196.397C52.5842 196.03 52.2217 195.665 51.8603 195.304C49.8587 193.302 47.8888 191.408 45.8032 189.88C43.7212 188.354 42.1979 188.005 41.095 188.373C39.9906 188.741 39.1497 189.881 38.5663 191.734C37.4027 195.43 37.3946 201.551 37.9221 208.124C38.4482 214.679 39.5008 221.624 40.4227 226.934C40.8835 229.588 41.3114 231.832 41.6241 233.412C41.7804 234.202 41.9079 234.826 41.9963 235.252C42.0405 235.465 42.0749 235.629 42.0982 235.739L42.1161 235.823L71.4529 271.562L135.233 214.104L140.618 172.58C140.643 172.389 140.819 172.254 141.01 172.278C141.202 172.303 141.337 172.479 141.312 172.671L135.911 214.322C135.9 214.405 135.86 214.481 135.798 214.537L71.6492 272.328C71.5781 272.392 71.484 272.424 71.3887 272.417C71.2933 272.409 71.2051 272.364 71.1444 272.29L41.521 236.202C41.4857 236.159 41.4611 236.108 41.4494 236.053L41.7916 235.98C41.4494 236.053 41.4495 236.054 41.4494 236.053L41.4402 236.01L41.4134 235.884C41.3898 235.773 41.3552 235.608 41.3108 235.394C41.2221 234.966 41.0942 234.34 40.9374 233.547C40.6239 231.963 40.195 229.714 39.733 227.054C38.8094 221.735 37.7529 214.766 37.2244 208.18C36.6973 201.613 36.6893 195.365 37.8986 191.524C38.5016 189.608 39.4403 188.187 40.8736 187.709C42.3082 187.23 44.0806 187.75 46.2169 189.315C48.3497 190.878 50.3524 192.806 52.3553 194.809C52.7203 195.174 53.0853 195.541 53.4511 195.909C55.0982 197.568 56.7631 199.244 58.5321 200.799C62.8484 204.593 67.7364 207.622 74.3132 207.779C80.9013 207.937 89.2504 205.215 100.483 197.348C111.714 189.482 125.795 176.496 143.838 156.18C143.967 156.035 144.188 156.022 144.332 156.15Z" fill="#3D3D3C"/>
</g>
<path fill-rule="evenodd" clip-rule="evenodd" d="M107.103 134.53C107.237 134.394 107.456 134.391 107.594 134.524L139.055 164.755C139.192 164.885 139.199 165.101 139.073 165.241L91.8135 217.678C91.8134 217.678 91.8134 217.678 91.8133 217.678M107.358 135.268L57.9759 185.187C48.8483 194.414 49.0369 209.412 58.3933 218.402L58.1508 218.655L58.3936 218.403C62.8711 222.712 68.8961 225.018 75.0945 224.793C81.2929 224.568 87.1367 221.833 91.293 217.21L91.2933 217.209L138.326 165.024L107.358 135.268ZM57.9083 218.907C48.2702 209.646 48.0761 194.199 57.4783 184.695L107.103 134.53" fill="#3D3D3C"/>
<path fill-rule="evenodd" clip-rule="evenodd" d="M135.547 28.9866C163.396 -0.505752 209.673 -1.64071 238.91 26.4524C268.146 54.5454 269.271 101.227 241.422 130.72C213.573 160.212 167.296 161.347 138.059 133.254C108.823 105.161 107.698 58.4792 135.547 28.9866ZM149.681 42.5675C129.268 64.1857 130.092 98.404 151.523 118.996C172.953 139.589 206.875 138.757 227.288 117.139C247.702 95.5205 246.877 61.3022 225.447 40.7099C204.016 20.1177 170.095 20.9493 149.681 42.5675Z" fill="#1894AB"/>
<path fill-rule="evenodd" clip-rule="evenodd" d="M135.293 28.7463C163.275 -0.887327 209.775 -2.02791 239.152 26.2C268.528 54.4263 269.657 101.328 241.676 130.96C213.694 160.594 167.194 161.735 137.817 133.507C108.441 105.28 107.312 58.3785 135.293 28.7463ZM238.667 26.7047C209.571 -1.25345 163.517 -0.124125 135.802 29.2269C108.084 58.5799 109.204 105.042 138.302 133.002C167.398 160.96 213.452 159.831 241.167 130.479C268.885 101.127 267.765 54.6646 238.667 26.7047ZM225.204 40.9623C203.914 20.5049 170.216 21.331 149.936 42.8079C129.654 64.2865 130.473 98.2849 151.765 118.744C173.055 139.201 206.753 138.375 227.034 116.898C247.315 95.4198 246.496 61.4214 225.204 40.9623ZM149.427 42.3273C169.974 20.5678 204.118 19.7305 225.689 40.4576C247.258 61.1831 248.088 95.6213 227.543 117.379C206.996 139.139 172.851 139.976 151.28 119.249C129.711 98.5232 128.881 64.085 149.427 42.3273Z" fill="#3D3D3C"/>
<path d="M212.36 20.3621L206.519 18.5281L212.36 20.3621Z" fill="#F5F6F7"/>
<path fill-rule="evenodd" clip-rule="evenodd" d="M206.185 18.4233C206.243 18.2388 206.44 18.1363 206.624 18.1942L212.465 20.0282C212.649 20.0861 212.752 20.2825 212.694 20.4669C212.636 20.6514 212.44 20.7539 212.255 20.696L206.414 18.862C206.23 18.8041 206.127 18.6077 206.185 18.4233Z" fill="#3D3D3C"/>
<path d="M95.3329 189.403C90.1536 190.55 84.7934 190.602 79.5928 189.558L95.3329 189.403Z" fill="#F5F6F7"/>
<path fill-rule="evenodd" clip-rule="evenodd" d="M95.6746 189.328C95.7164 189.517 95.5972 189.703 95.4085 189.745C90.1816 190.902 84.7722 190.955 79.5238 189.901C79.3343 189.863 79.2115 189.678 79.2496 189.489C79.2877 189.299 79.4722 189.176 79.6617 189.215C84.8145 190.25 90.1255 190.197 95.2572 189.062C95.446 189.02 95.6328 189.139 95.6746 189.328Z" fill="#3D3D3C"/>
<path d="M589.715 398.308H242.471L240.448 387.696H576.979C583.211 387.707 588.556 392.161 589.715 398.308L589.715 398.308Z" fill="#FFCD07"/>
<path fill-rule="evenodd" clip-rule="evenodd" d="M240.178 387.473C240.244 387.393 240.343 387.346 240.447 387.346H576.979C583.38 387.357 588.869 391.932 590.059 398.243C590.093 398.423 589.982 398.599 589.805 398.646C589.776 398.654 589.745 398.658 589.715 398.658H242.471C242.303 398.658 242.158 398.539 242.127 398.373L240.104 387.762C240.084 387.659 240.111 387.553 240.178 387.473ZM589.286 397.958C588 392.191 582.9 388.057 576.979 388.046H240.87L242.76 397.958H589.286Z" fill="#3D3D3C"/>
<path d="M458.402 398.308H111.158L64.3018 152.562H403.305C408.099 152.571 412.211 155.997 413.103 160.726L458.402 398.308Z" fill="white"/>
<path fill-rule="evenodd" clip-rule="evenodd" d="M64.032 152.339C64.0985 152.259 64.1974 152.212 64.3017 152.212H403.305C408.268 152.221 412.524 155.768 413.446 160.661L458.746 398.242C458.765 398.345 458.738 398.451 458.672 398.531C458.605 398.611 458.506 398.658 458.402 398.658H111.158C110.99 398.658 110.846 398.539 110.814 398.373L63.9579 152.628C63.9383 152.525 63.9655 152.419 64.032 152.339ZM64.7247 152.912L111.447 397.958H457.979L412.759 160.792C411.898 156.227 407.929 152.921 403.304 152.912H64.7247Z" fill="#3D3D3C"/>
<path d="M449.76 398.308H102.516L57.8174 163.88C56.6979 158.009 61.1578 152.562 67.0847 152.562H393.546C398.989 152.572 403.659 156.462 404.671 161.832L449.76 398.308Z" fill="#ECEDEE"/>
<path fill-rule="evenodd" clip-rule="evenodd" d="M67.0847 152.912C61.381 152.912 57.0821 158.155 58.1611 163.814L102.805 397.958H449.337L404.327 161.898C403.346 156.692 398.82 152.922 393.545 152.912H67.0847ZM57.4735 163.945C56.3136 157.862 60.9344 152.212 67.0847 152.212H393.546C399.158 152.222 403.971 156.233 405.015 161.766M405.015 161.766L450.104 398.242C450.123 398.345 450.096 398.451 450.029 398.531C449.963 398.611 449.864 398.658 449.76 398.658H102.516C102.348 398.658 102.203 398.538 102.172 398.373L57.4735 163.945" fill="#3D3D3C"/>
<path d="M265.552 269.999L248.994 333.935L322.92 327.929L265.552 269.999Z" fill="#23B0C2"/>
<path fill-rule="evenodd" clip-rule="evenodd" d="M265.8 269.752L323.169 327.683C323.265 327.78 323.296 327.923 323.248 328.051C323.201 328.179 323.084 328.267 322.949 328.278L249.023 334.283C248.91 334.293 248.799 334.246 248.726 334.16C248.654 334.073 248.627 333.956 248.655 333.847L265.213 269.911L265.552 269.999L265.8 269.752ZM265.736 270.682L322.142 327.641L249.456 333.546L265.736 270.682Z" fill="#3D3D3C"/>
<path d="M218.899 242.134C233.025 251.358 238.654 267.824 231.471 278.913C224.287 290.001 207.013 291.513 192.886 282.289C178.76 273.066 173.132 256.6 180.315 245.511C187.498 234.423 204.773 232.911 218.899 242.134Z" fill="#919191"/>
<path fill-rule="evenodd" clip-rule="evenodd" d="M180.608 245.703C173.571 256.566 179.042 272.832 193.077 281.996C207.112 291.16 224.14 289.585 231.178 278.721C238.215 267.858 232.744 251.592 218.709 242.428C204.674 233.264 187.645 234.839 180.608 245.703ZM192.696 282.583C178.479 273.3 172.693 256.634 180.022 245.32C187.351 234.007 204.872 232.558 219.089 241.841C233.307 251.124 239.093 267.79 231.764 279.104C224.435 290.417 206.913 291.866 192.696 282.583Z" fill="#3D3D3C"/>
<path d="M339.651 281.206H298.948L289.7 243.217H330.403L339.651 281.206Z" fill="#FFCD07"/>
<path fill-rule="evenodd" clip-rule="evenodd" d="M289.425 243.001C289.491 242.917 289.593 242.867 289.7 242.867H330.403C330.565 242.867 330.705 242.978 330.743 243.135L339.991 281.123L339.651 281.206V281.556H298.948C298.787 281.556 298.646 281.445 298.608 281.289L289.36 243.3C289.335 243.196 289.359 243.086 289.425 243.001ZM339.206 280.856L330.128 243.567H290.146L299.223 280.856H339.206Z" fill="#3D3D3C"/>
<path d="M144.517 194.564L133.762 210.542L144.517 194.564Z" fill="#F5F6F7"/>
<path fill-rule="evenodd" clip-rule="evenodd" d="M144.713 194.273C144.873 194.381 144.916 194.599 144.808 194.759L134.053 210.737C133.945 210.897 133.727 210.94 133.567 210.832C133.407 210.724 133.364 210.507 133.472 210.346L144.227 194.368C144.335 194.208 144.553 194.165 144.713 194.273Z" fill="#3D3D3C"/>
<path d="M397.059 365.876C396.819 367.823 394.83 369.368 392.903 369.102L397.059 365.876Z" fill="#F5F6F7"/>
<path fill-rule="evenodd" clip-rule="evenodd" d="M397.101 365.529C397.293 365.552 397.429 365.727 397.406 365.919C397.143 368.057 394.978 369.741 392.855 369.449C392.664 369.423 392.53 369.246 392.556 369.054C392.582 368.863 392.759 368.729 392.951 368.755C394.681 368.994 396.495 367.589 396.711 365.833C396.735 365.642 396.909 365.505 397.101 365.529Z" fill="#3D3D3C"/>
<path d="M26.4821 105.968C4.16782 172.313 31.1799 213.778 62.8897 257.612C94.5995 301.447 83.116 304.211 99.2972 336.331C99.2972 336.331 88.4318 261.434 51.7674 165.659C44.4162 146.456 36.0279 126.414 26.4821 105.968Z" fill="#FFCD07"/>
<path fill-rule="evenodd" clip-rule="evenodd" d="M26.4624 105.619C26.6053 105.611 26.7386 105.69 26.7992 105.82C36.3488 126.274 44.7403 146.324 52.0942 165.534C70.433 213.438 82.3197 256.121 89.6219 286.829C93.273 302.183 95.7781 314.544 97.3706 323.067C98.1668 327.329 98.7349 330.631 99.104 332.868C99.2885 333.987 99.4233 334.839 99.512 335.412C99.5372 335.575 99.5586 335.715 99.5765 335.833C99.5901 335.922 99.6015 335.998 99.611 336.061L99.6354 336.225L99.6414 336.266L99.6433 336.279C99.6434 336.28 99.6434 336.28 99.6134 336.284C99.5756 336.29 99.4901 336.303 99.2971 336.331L99.6433 336.279C99.668 336.449 99.566 336.613 99.4023 336.664C99.2387 336.716 99.0617 336.641 98.9845 336.488C92.806 324.224 90.645 316.21 88.5925 308.599C87.9514 306.221 87.3209 303.883 86.5819 301.467C83.4805 291.328 78.4448 279.713 62.606 257.818C46.7528 235.903 32.0408 214.537 24.0942 190.341C16.1426 166.128 14.9697 139.098 26.1503 105.857C26.1959 105.721 26.3195 105.627 26.4624 105.619ZM98.6016 334.137C98.5459 333.791 98.4832 333.406 98.4133 332.982C98.045 330.75 97.4777 327.452 96.6825 323.196C95.0919 314.683 92.5891 302.333 88.9409 286.991C81.6443 256.307 69.7661 213.654 51.4404 165.784C44.1874 146.838 35.9244 127.074 26.536 106.912C15.7002 139.633 16.9224 166.259 24.7593 190.122C32.6676 214.203 47.3165 235.488 63.1732 257.407C79.0442 279.347 84.1217 291.031 87.2513 301.262C87.9983 303.705 88.633 306.058 89.2766 308.444C91.2099 315.613 93.2234 323.079 98.6016 334.137Z" fill="#3D3D3C"/>
<path d="M30.2976 243.256C7.98325 274.767 34.9953 294.462 66.7051 315.282C98.4149 336.102 86.9315 337.415 103.113 352.671C103.113 352.671 92.2473 317.097 55.5828 271.607C48.2317 262.487 39.8434 252.967 30.2976 243.256Z" fill="#FFCD07"/>
<path fill-rule="evenodd" clip-rule="evenodd" d="M30.2694 242.907C30.3727 242.899 30.4744 242.937 30.5471 243.011C40.1012 252.73 48.4971 262.258 55.8552 271.388C74.2048 294.154 86.1004 314.442 93.4098 329.041C97.0644 336.341 99.5726 342.219 101.168 346.273C101.965 348.301 102.534 349.873 102.905 350.938C103.09 351.471 103.225 351.878 103.314 352.152C103.359 352.288 103.392 352.392 103.414 352.462L103.439 352.541L103.445 352.561L103.447 352.568C103.447 352.568 103.447 352.568 103.113 352.671L103.447 352.568C103.493 352.72 103.432 352.884 103.297 352.968C103.162 353.052 102.988 353.034 102.872 352.925C96.6702 347.078 94.4917 343.241 92.437 339.621C91.7978 338.495 91.1705 337.39 90.4378 336.253C87.361 331.475 82.3514 325.974 66.5129 315.575C50.6721 305.174 35.9278 295.009 27.9543 283.477C23.9598 277.7 21.6515 271.563 21.7631 264.87C21.8747 258.179 24.4043 250.973 30.0118 243.054C30.0717 242.969 30.1661 242.916 30.2694 242.907ZM102.338 351.443C102.308 351.356 102.277 351.264 102.243 351.168C101.876 350.111 101.31 348.548 100.516 346.53C98.9283 342.493 96.4286 336.634 92.7838 329.354C85.4944 314.795 73.6251 294.55 55.3102 271.827C48.0416 262.809 39.7578 253.4 30.3421 243.801C24.9621 251.502 22.5701 258.463 22.463 264.882C22.3544 271.395 24.5971 277.391 28.5301 283.079C36.4115 294.478 51.0281 304.57 66.8971 314.99C82.7684 325.41 87.8721 330.976 91.0263 335.874C91.7796 337.043 92.4175 338.167 93.0629 339.303C94.9928 342.702 96.9894 346.218 102.338 351.443Z" fill="#3D3D3C"/>
<path d="M208.164 130.728C230.478 197.072 160.058 221.01 128.348 264.844C96.6387 308.679 108.122 311.443 91.9409 343.562C91.9409 343.562 98.8642 308.21 130.045 210.479C141.006 176.122 198.618 151.174 208.164 130.728Z" fill="#FDCF46"/>
<path fill-rule="evenodd" clip-rule="evenodd" d="M208.183 130.379C208.326 130.387 208.45 130.481 208.496 130.616C214.096 147.266 213.883 161.279 209.899 173.616C205.917 185.945 198.176 196.571 188.769 206.468C181.367 214.255 172.916 221.608 164.435 228.986C162.141 230.982 159.845 232.979 157.567 234.988C146.856 244.431 136.535 254.125 128.632 265.049C112.793 286.944 107.758 298.56 104.656 308.699C103.917 311.115 103.287 313.453 102.645 315.831C100.593 323.442 98.432 331.456 92.2534 343.72C92.1748 343.876 91.9929 343.95 91.8274 343.894C91.662 343.837 91.5638 343.667 91.5974 343.495L91.9409 343.562C91.5974 343.495 91.5973 343.495 91.5974 343.495L91.5977 343.493L91.6027 343.468L91.6185 343.389C91.6327 343.319 91.6542 343.213 91.6834 343.071C91.742 342.787 91.8318 342.358 91.9571 341.779C92.2078 340.619 92.6005 338.854 93.1691 336.432C94.3062 331.586 96.1469 324.11 98.962 313.579C104.592 292.519 114.12 259.242 129.711 210.372C132.474 201.713 138.169 193.667 145.279 186.158C152.39 178.648 160.935 171.656 169.421 165.11C172.278 162.906 175.126 160.755 177.91 158.651C183.409 154.497 188.662 150.528 193.248 146.714C200.164 140.963 205.497 135.613 207.847 130.58C207.907 130.45 208.041 130.371 208.183 130.379ZM92.8679 340.891C98.0729 330.094 100.056 322.741 101.961 315.676C102.605 313.29 103.24 310.936 103.987 308.494C107.116 298.263 112.194 286.579 128.065 264.639C136.017 253.647 146.389 243.91 157.104 234.463C159.39 232.447 161.692 230.444 163.99 228.445C172.467 221.07 180.885 213.747 188.261 205.986C197.633 196.127 205.296 185.589 209.233 173.401C213.103 161.419 213.381 147.814 208.1 131.647C205.516 136.604 200.268 141.786 193.696 147.252C189.098 151.077 183.822 155.063 178.314 159.223C175.532 161.325 172.691 163.471 169.849 165.664C161.369 172.205 152.859 179.17 145.787 186.639C138.714 194.11 133.096 202.066 130.378 210.585C114.789 259.446 105.265 292.712 99.6382 313.76C96.8248 324.284 94.9859 331.754 93.8506 336.592C93.4318 338.376 93.1088 339.802 92.8679 340.891Z" fill="#3D3D3C"/>
<path d="M95.3109 18.3835C122.684 85.6265 123.53 156.527 106.521 227.735C89.5109 298.943 102.915 299.361 98.0243 349.408C98.0243 349.408 93.1246 339.088 88.6196 192.262C87.0359 140.646 93.0081 50.0133 95.3109 18.3835Z" fill="#FFCD07"/>
<path fill-rule="evenodd" clip-rule="evenodd" d="M95.2566 18.0378C95.4172 18.0124 95.5742 18.101 95.6355 18.2516C123.041 85.5765 123.884 156.554 106.861 227.816C98.3623 263.396 97.4658 281.27 98.0777 296.493C98.2236 300.121 98.4556 303.604 98.6914 307.143C99.4455 318.461 100.238 330.355 98.373 349.442C98.3577 349.598 98.2398 349.725 98.0849 349.752C97.9299 349.779 97.7759 349.7 97.7085 349.558L98.0247 349.408C97.7085 349.558 97.7081 349.557 97.7077 349.556L97.7068 349.554L97.7047 349.55L97.6995 349.538C97.6956 349.528 97.6906 349.516 97.6846 349.501C97.6772 349.482 97.6682 349.458 97.6576 349.428C97.6511 349.41 97.644 349.389 97.6363 349.366C97.596 349.245 97.5389 349.054 97.4658 348.763C97.3199 348.181 97.1091 347.194 96.8432 345.557C96.3115 342.283 95.5574 336.395 94.663 325.924C92.8741 304.982 90.5227 265.688 88.2702 192.273C86.6858 140.635 92.6597 49.9842 94.9622 18.3581C94.974 18.1959 95.096 18.0633 95.2566 18.0378ZM97.8684 347.33C99.4781 329.491 98.7201 318.112 97.9941 307.214C97.7579 303.667 97.525 300.172 97.3783 296.521C96.7633 281.221 97.6698 263.282 106.18 227.654C123.059 156.993 122.337 86.6578 95.5514 19.9116C93.1752 52.8234 87.4111 141.451 88.9698 192.251C91.2223 265.662 93.5732 304.941 95.3604 325.865C96.2541 336.327 97.0064 342.196 97.5342 345.445C97.6586 346.211 97.7704 346.831 97.8684 347.33Z" fill="#3D3D3C"/>
<path d="M152.431 366.745C152.297 371.276 144.789 397.695 144.789 397.695C143.519 403.574 138.343 407.773 132.35 407.783C132.35 407.783 101.885 407.191 94.5173 407.783C88.432 408.271 65.2784 407.783 65.2784 407.783C59.2859 407.773 54.1092 403.574 52.8394 397.695L38.2754 330.893L160.774 332.953L152.431 366.745" fill="#ECEDEE"/>
<mask id="mask13_33_249" style="mask-type:alpha" maskUnits="userSpaceOnUse" x="38" y="330" width="123" height="78">
<path fill-rule="evenodd" clip-rule="evenodd" d="M152.431 366.745C152.297 371.276 144.789 397.695 144.789 397.695C143.519 403.574 138.343 407.773 132.35 407.783C132.35 407.783 101.885 407.191 94.5173 407.783C88.432 408.271 65.2784 407.783 65.2784 407.783C59.2859 407.773 54.1092 403.574 52.8394 397.695L38.2754 330.893L160.774 332.953L152.431 366.745" fill="white"/>
</mask>
<g mask="url(#mask13_33_249)">
<path d="M157.85 315.04C144.031 388.355 74.4228 411.123 43.7133 408C13.0038 404.877 120.487 436.888 123.046 437.404C125.605 437.921 192.654 428.111 192.654 428.111V349.408L176.276 330.893" fill="#CFCFD0"/>
</g>
<path fill-rule="evenodd" clip-rule="evenodd" d="M38.0046 330.671C38.0724 330.588 38.1742 330.541 38.2812 330.543L160.78 332.603C160.887 332.605 160.987 332.655 161.052 332.739C161.117 332.824 161.14 332.933 161.114 333.037L152.779 366.794C152.735 367.985 152.234 370.502 151.521 373.572C150.797 376.691 149.845 380.422 148.898 384.008C147.951 387.596 147.008 391.041 146.302 393.589C145.948 394.864 145.655 395.914 145.449 396.645C145.346 397.011 145.265 397.297 145.21 397.492L145.129 397.78C143.82 403.813 138.505 408.122 132.351 408.133L132.343 408.133L132.35 407.783C132.343 408.133 132.344 408.133 132.343 408.133L132.342 408.133L132 408.126C131.775 408.122 131.444 408.116 131.021 408.109C130.173 408.093 128.955 408.073 127.469 408.05C124.499 408.003 120.461 407.948 116.194 407.911C107.649 407.837 98.2099 407.838 94.5452 408.132C91.4832 408.378 84.1549 408.377 77.6125 408.316C74.3368 408.285 71.2515 408.24 68.9852 408.201C67.8521 408.182 66.9236 408.165 66.2783 408.153C66.163 408.151 66.0567 408.149 65.9599 408.147C65.786 408.143 65.6427 408.14 65.5327 408.138L65.2752 408.133L65.2742 408.133C59.1177 408.121 53.8013 403.807 52.4972 397.769L37.9333 330.967C37.9105 330.863 37.9368 330.754 38.0046 330.671ZM152.082 366.711C152.082 366.719 152.081 366.727 152.081 366.735C152.081 366.736 152.081 366.738 152.081 366.74C152.047 367.833 151.564 370.293 150.839 373.413C150.118 376.522 149.168 380.246 148.221 383.83C147.275 387.413 146.333 390.856 145.627 393.403C145.274 394.676 144.98 395.725 144.775 396.456C144.672 396.821 144.592 397.107 144.537 397.302L144.453 397.598C144.453 397.598 144.452 397.599 144.474 397.605L144.452 397.599C144.45 397.606 144.449 397.614 144.447 397.621C143.212 403.339 138.179 407.421 132.353 407.433L132.013 407.426C131.788 407.422 131.457 407.416 131.033 407.409C130.185 407.394 128.966 407.373 127.48 407.35C124.509 407.303 120.469 407.248 116.2 407.211C107.67 407.137 98.1926 407.137 94.4892 407.434C91.4658 407.677 84.1747 407.677 77.619 407.616C74.3456 407.586 71.2622 407.54 68.997 407.502C67.8645 407.482 66.9366 407.465 66.2918 407.453C65.9694 407.447 65.7179 407.442 65.5469 407.438L65.2899 407.433L65.2867 407.433C65.2866 407.433 65.2857 407.433 65.2785 407.775L65.2857 407.433L65.2789 407.433C59.4519 407.423 54.4167 403.34 53.1815 397.621L38.7114 331.25L160.329 333.295L152.093 366.653C152.088 366.672 152.084 366.691 152.082 366.711Z" fill="#3D3D3C"/>
<path fill-rule="evenodd" clip-rule="evenodd" d="M47.8031 200.32C47.9938 200.288 48.174 200.417 48.2056 200.608C48.9768 205.26 50.8668 209.653 53.7115 213.406C53.8283 213.56 53.7981 213.78 53.644 213.896C53.49 214.013 53.2704 213.983 53.1537 213.829C50.2403 209.985 48.3048 205.486 47.515 200.722C47.4834 200.531 47.6124 200.351 47.8031 200.32Z" fill="#3D3D3C"/>
<path d="M98.5728 111.699L101.404 126.505L98.5728 111.699Z" fill="#F5F6F7"/>
<path fill-rule="evenodd" clip-rule="evenodd" d="M98.507 111.355C98.6968 111.319 98.8802 111.444 98.9165 111.633L101.748 126.44C101.784 126.63 101.66 126.813 101.47 126.849C101.28 126.885 101.097 126.761 101.061 126.571L98.229 111.765C98.1926 111.575 98.3171 111.392 98.507 111.355Z" fill="#3D3D3C"/>
<path fill-rule="evenodd" clip-rule="evenodd" d="M168.282 204.011C168.475 204.011 168.632 204.168 168.632 204.361V208.067C168.632 208.26 168.475 208.417 168.282 208.417C168.089 208.417 167.932 208.26 167.932 208.067V204.361C167.932 204.168 168.089 204.011 168.282 204.011Z" fill="#3D3D3C"/>
<path d="M49.7715 289.568L55.1844 297.049L49.7715 289.568Z" fill="#F5F6F7"/>
<path fill-rule="evenodd" clip-rule="evenodd" d="M49.5663 289.284C49.7229 289.171 49.9417 289.206 50.055 289.362L55.4679 296.844C55.5812 297.001 55.5461 297.22 55.3895 297.333C55.2328 297.446 55.014 297.411 54.9007 297.254L49.4878 289.773C49.3745 289.616 49.4096 289.397 49.5663 289.284Z" fill="#3D3D3C"/>
<path d="M88.2842 379.501C91.6853 381.313 95.6897 381.602 99.3141 380.297L88.2842 379.501Z" fill="#F5F6F7"/>
<path fill-rule="evenodd" clip-rule="evenodd" d="M87.9753 379.336C88.0662 379.165 88.2781 379.101 88.4487 379.192C91.7627 380.957 95.6642 381.239 99.1956 379.968C99.3774 379.902 99.5779 379.997 99.6434 380.179C99.7089 380.361 99.6145 380.561 99.4326 380.626C95.7151 381.965 91.6079 381.668 88.1196 379.809C87.949 379.719 87.8844 379.507 87.9753 379.336Z" fill="#3D3D3C"/>
</svg>
