<svg width="148" height="148" viewBox="0 0 148 148" fill="none" xmlns="http://www.w3.org/2000/svg">
<path d="M86.5134 14.1344L89.996 13.7861V13.7861L86.5134 14.1344ZM88.5312 34.3128L92.0138 33.9645V33.9645L88.5312 34.3128ZM89.329 36.9921L87.9896 40.2257L87.9897 40.2257L89.329 36.9921ZM91.7877 35.6617L89.6877 32.8617L89.6286 32.9061L89.5714 32.9529L91.7877 35.6617ZM91.7878 35.6617L93.8877 38.4617L93.9469 38.4173L94.0041 38.3705L91.7878 35.6617ZM107.483 22.8203L105.266 20.1115L105.266 20.1115L107.483 22.8203ZM108.866 22.0224L108.692 25.5181L108.692 25.5181L108.866 22.0224ZM110.163 22.954L107.689 25.4289V25.4289L110.163 22.954ZM125.046 37.8363L127.521 35.3614L125.046 37.8363ZM125.977 39.1335L122.482 39.3079V39.3079L125.977 39.1335ZM125.179 40.517L122.471 38.3006L122.471 38.3006L125.179 40.517ZM112.338 56.2122L109.629 53.9958L109.629 53.9958L112.338 56.2122ZM113.687 59.4687L113.339 62.9514V62.9514L113.687 59.4687ZM133.866 61.4866L134.214 58.004L133.866 61.4866ZM135.408 61.9007L132.813 64.2492L132.813 64.2492L135.408 61.9007ZM135.408 86.0994L132.813 83.7508L132.813 83.7509L135.408 86.0994ZM133.866 86.5135L134.214 89.9961L133.866 86.5135ZM113.689 88.5311L113.341 85.0485L113.689 88.5311ZM111.01 89.329L107.776 87.9896L107.776 87.9896L111.01 89.329ZM112.34 91.7877L109.631 94.004L112.34 91.7877ZM125.18 107.48L122.471 109.697L122.471 109.697L125.18 107.48ZM108.867 125.975L108.692 122.479H108.692L108.867 125.975ZM107.483 125.177L109.699 122.468L109.567 122.36L109.425 122.265L107.483 125.177ZM107.483 125.177L105.267 127.886L105.399 127.994L105.542 128.089L107.483 125.177ZM91.788 112.336L94.0043 109.627V109.627L91.788 112.336ZM89.3293 111.005L87.9899 107.772L87.9899 107.772L89.3293 111.005ZM88.5315 113.685L92.0141 114.033L88.5315 113.685ZM86.5134 133.866L89.996 134.214V134.214L86.5134 133.866ZM61.9006 135.408L59.5521 138.003L59.5521 138.003L61.9006 135.408ZM61.4865 133.866L58.0039 134.214H58.0039L61.4865 133.866ZM59.4686 113.687L55.986 114.035V114.035L59.4686 113.687ZM56.2121 112.338L58.4284 115.047L58.4284 115.047L56.2121 112.338ZM40.5166 125.18L42.7329 127.889H42.7329L40.5166 125.18ZM39.1331 125.978L38.9587 129.473H38.9587L39.1331 125.978ZM37.8359 125.046L40.3108 122.571H40.3108L37.8359 125.046ZM22.9536 110.164L20.4787 112.639L20.4787 112.639L22.9536 110.164ZM22.022 108.867L25.5177 108.692V108.692L22.022 108.867ZM22.8199 107.483L25.5288 109.7L25.5288 109.7L22.8199 107.483ZM35.6615 91.7879L32.9527 89.5715L35.6615 91.7879ZM36.9919 89.3292L40.2255 87.9898L40.2255 87.9898L36.9919 89.3292ZM34.3126 88.5313L33.9644 92.0139H33.9644L34.3126 88.5313ZM14.1342 86.5135L14.4825 83.0308L14.3088 83.0135H14.1342V86.5135ZM14.1342 86.5135L13.7859 89.9961L13.9596 90.0135H14.1342V86.5135ZM12.5918 86.0994L9.99672 88.4479L9.99674 88.4479L12.5918 86.0994ZM12.5918 61.9007L15.1869 64.2492L15.1869 64.2492L12.5918 61.9007ZM14.1342 61.4866V57.9866H13.9596L13.7859 58.004L14.1342 61.4866ZM14.1342 61.4866V64.9866H14.3088L14.4825 64.9692L14.1342 61.4866ZM34.3149 59.4685L34.6632 62.9512L34.6632 62.9512L34.3149 59.4685ZM36.9942 58.6707L33.7606 57.3313L33.7606 57.3313L36.9942 58.6707ZM35.6638 56.212L32.955 58.4283L32.955 58.4283L35.6638 56.212ZM22.8202 40.5142L25.529 38.2979L25.529 38.2979L22.8202 40.5142ZM22.0223 39.1307L25.518 39.3051L25.518 39.3051L22.0223 39.1307ZM22.9539 37.8335L25.4288 40.3084L25.4288 40.3084L22.9539 37.8335ZM37.8362 22.9512L35.3613 20.4763L35.3613 20.4764L37.8362 22.9512ZM39.1334 22.0197L39.3077 25.5153L39.3077 25.5153L39.1334 22.0197ZM40.5169 22.8175L38.3005 25.5264L38.3005 25.5264L40.5169 22.8175ZM56.2123 35.6593L53.996 38.3681L56.2123 35.6593ZM59.4689 34.3104L55.9863 33.9621V33.9621L59.4689 34.3104ZM61.4865 14.1344L58.0039 13.7861L58.0039 13.7861L61.4865 14.1344ZM61.9006 12.5919L59.5521 9.99683L59.552 9.99684L61.9006 12.5919ZM89.996 13.7861C89.9625 13.4512 89.9108 12.8655 89.7909 12.3485C89.6485 11.7343 89.3242 10.79 88.4478 9.99684L83.7507 15.187C83.48 14.942 83.283 14.6654 83.1503 14.4035C83.0293 14.1645 82.9837 13.9808 82.9718 13.9297C82.9607 13.8816 82.9653 13.887 82.9796 14.0016C82.9938 14.1152 83.0081 14.2562 83.0307 14.4826L89.996 13.7861ZM92.0138 33.9645L89.996 13.7861L83.0307 14.4826L85.0486 34.6611L92.0138 33.9645ZM90.6684 33.7585C90.9337 33.8684 91.1888 34.0226 91.4178 34.2185C91.6436 34.4116 91.8073 34.6137 91.9221 34.789C92.0339 34.9598 92.0983 35.1033 92.1321 35.189C92.1496 35.2331 92.1611 35.2675 92.1679 35.2893C92.1748 35.3112 92.178 35.3239 92.1783 35.3252C92.1784 35.3256 92.1714 35.2974 92.1597 35.2289C92.1482 35.1613 92.1347 35.0705 92.1193 34.9484C92.087 34.6938 92.0561 34.3868 92.0138 33.9645L85.0486 34.6611C85.1184 35.3595 85.2016 36.2848 85.3898 37.033C85.5793 37.7862 86.1372 39.4583 87.9896 40.2257L90.6684 33.7585ZM89.5714 32.9529C89.2429 33.2216 89.0039 33.4168 88.8012 33.574C88.7038 33.6494 88.6302 33.7041 88.5742 33.7437C88.5175 33.7839 88.4926 33.7989 88.4929 33.7987C88.4942 33.798 88.5054 33.7913 88.5257 33.7807C88.546 33.77 88.5784 33.7539 88.6219 33.735C88.7064 33.6984 88.8534 33.6424 89.0532 33.6007C89.2584 33.5579 89.5171 33.5308 89.8133 33.5539C90.1138 33.5773 90.4032 33.6486 90.6684 33.7585L87.9897 40.2257C89.8421 40.993 91.4189 40.2051 92.0855 39.8065C92.7477 39.4105 93.4608 38.8151 94.004 38.3706L89.5714 32.9529ZM89.6878 32.8617L89.6877 32.8617L93.8877 38.4617L93.8877 38.4617L89.6878 32.8617ZM105.266 20.1115L89.5714 32.9528L94.0041 38.3705L109.699 25.5292L105.266 20.1115ZM109.041 18.5268C107.86 18.4679 106.963 18.9064 106.428 19.24C105.978 19.5208 105.527 19.8984 105.266 20.1115L109.699 25.5292C109.875 25.3851 109.985 25.2955 110.075 25.2252C110.167 25.1542 110.174 25.1537 110.132 25.1798C110.087 25.2076 109.925 25.3053 109.67 25.3886C109.391 25.48 109.057 25.5363 108.692 25.5181L109.041 18.5268ZM112.638 20.4791C112.4 20.2412 111.989 19.8206 111.569 19.4964C111.07 19.1112 110.221 18.5857 109.041 18.5268L108.692 25.5181C108.327 25.4999 108 25.4106 107.731 25.2919C107.486 25.1836 107.334 25.0703 107.293 25.0383C107.254 25.0081 107.261 25.0093 107.344 25.089C107.427 25.1679 107.528 25.268 107.689 25.4289L112.638 20.4791ZM127.521 35.3614L112.638 20.4791L107.689 25.4289L122.571 40.3112L127.521 35.3614ZM129.473 38.9591C129.414 37.7786 128.889 36.9297 128.503 36.4305C128.179 36.0104 127.759 35.5994 127.521 35.3614L122.571 40.3112C122.732 40.4721 122.832 40.5725 122.911 40.6553C122.99 40.739 122.992 40.746 122.961 40.7069C122.929 40.6654 122.816 40.5137 122.708 40.2687C122.589 40.0002 122.5 39.6725 122.482 39.3079L129.473 38.9591ZM127.888 42.7333C128.101 42.4729 128.479 42.0221 128.76 41.5718C129.093 41.0367 129.532 40.1398 129.473 38.9591L122.482 39.3079C122.463 38.9432 122.52 38.6083 122.611 38.3293C122.694 38.0747 122.792 37.9125 122.82 37.868C122.846 37.8261 122.846 37.8332 122.775 37.9244C122.704 38.0147 122.615 38.1245 122.471 38.3006L127.888 42.7333ZM115.047 58.4285L127.888 42.7333L122.471 38.3006L109.629 53.9958L115.047 58.4285ZM114.241 57.3315C114.351 57.5967 114.422 57.8862 114.446 58.1867C114.469 58.4829 114.442 58.7415 114.399 58.9467C114.357 59.1465 114.301 59.2935 114.265 59.378C114.246 59.4216 114.23 59.454 114.219 59.4742C114.208 59.4946 114.202 59.5058 114.201 59.507C114.201 59.5074 114.216 59.4824 114.256 59.4257C114.296 59.3697 114.35 59.2961 114.426 59.1987C114.583 58.996 114.778 58.757 115.047 58.4285L109.629 53.9958C109.185 54.5391 108.589 55.2522 108.193 55.9144C107.795 56.581 107.007 58.1578 107.774 60.0103L114.241 57.3315ZM114.035 55.9861C113.613 55.9439 113.306 55.9129 113.051 55.8807C112.929 55.8652 112.838 55.8517 112.771 55.8402C112.702 55.8285 112.674 55.8215 112.674 55.8216C112.676 55.822 112.688 55.8252 112.71 55.832C112.732 55.8389 112.766 55.8503 112.811 55.8678C112.896 55.9016 113.04 55.966 113.211 56.0778C113.386 56.1926 113.588 56.3563 113.781 56.5821C113.977 56.8112 114.131 57.0663 114.241 57.3315L107.774 60.0103C108.541 61.8627 110.213 62.4206 110.967 62.6101C111.715 62.7983 112.64 62.8815 113.339 62.9514L114.035 55.9861ZM134.214 58.004L114.035 55.9861L113.339 62.9514L133.517 64.9692L134.214 58.004ZM138.003 59.5522C137.21 58.6757 136.266 58.3515 135.651 58.2091C135.134 58.0892 134.549 58.0375 134.214 58.004L133.517 64.9692C133.744 64.9919 133.885 65.0062 133.998 65.0204C134.113 65.0346 134.118 65.0393 134.07 65.0282C134.019 65.0163 133.835 64.9707 133.596 64.8496C133.335 64.7169 133.058 64.5199 132.813 64.2492L138.003 59.5522ZM139.167 63.4767C139.167 63.1402 139.173 62.5521 139.106 62.0259C139.025 61.4005 138.796 60.4286 138.003 59.5521L132.813 64.2492C132.568 63.9785 132.399 63.6837 132.293 63.4099C132.197 63.16 132.17 62.9727 132.163 62.9206C132.157 62.8717 132.161 62.8775 132.164 62.993C132.166 63.1073 132.167 63.2491 132.167 63.4767H139.167ZM139.167 84.5234V63.4767H132.167V84.5234H139.167ZM138.003 88.4479C138.796 87.5715 139.025 86.5996 139.106 85.9742C139.173 85.4479 139.167 84.8599 139.167 84.5234H132.167C132.167 84.751 132.166 84.8927 132.164 85.0071C132.161 85.1226 132.157 85.1284 132.163 85.0795C132.17 85.0274 132.197 84.84 132.293 84.5902C132.399 84.3164 132.568 84.0216 132.813 83.7508L138.003 88.4479ZM134.214 89.9961C134.549 89.9626 135.134 89.9109 135.651 89.791C136.266 89.6486 137.21 89.3244 138.003 88.4479L132.813 83.7509C133.058 83.4802 133.335 83.2831 133.596 83.1504C133.835 83.0294 134.019 82.9838 134.07 82.9719C134.118 82.9608 134.113 82.9654 133.998 82.9797C133.885 82.9939 133.744 83.0082 133.517 83.0308L134.214 89.9961ZM114.037 92.0137L134.214 89.9961L133.517 83.0308L113.341 85.0485L114.037 92.0137ZM114.243 90.6684C114.134 90.9336 113.979 91.1887 113.783 91.4177C113.59 91.6435 113.388 91.8072 113.213 91.9221C113.042 92.0339 112.899 92.0982 112.813 92.1321C112.769 92.1495 112.734 92.161 112.713 92.1678C112.691 92.1747 112.678 92.1779 112.677 92.1782C112.676 92.1783 112.705 92.1713 112.773 92.1597C112.841 92.1481 112.931 92.1347 113.054 92.1192C113.308 92.0869 113.615 92.056 114.037 92.0137L113.341 85.0485C112.642 85.1183 111.717 85.2015 110.969 85.3898C110.216 85.5792 108.544 86.1371 107.776 87.9896L114.243 90.6684ZM115.049 89.5713C114.78 89.2429 114.585 89.0039 114.428 88.8011C114.353 88.7038 114.298 88.6301 114.258 88.5741C114.218 88.5174 114.203 88.4925 114.203 88.4929C114.204 88.4941 114.211 88.5053 114.221 88.5256C114.232 88.5459 114.248 88.5783 114.267 88.6218C114.304 88.7063 114.36 88.8534 114.401 89.0531C114.444 89.2583 114.471 89.517 114.448 89.8132C114.425 90.1137 114.353 90.4031 114.243 90.6683L107.776 87.9896C107.009 89.842 107.797 91.4189 108.195 92.0854C108.591 92.7476 109.187 93.4607 109.631 94.004L115.049 89.5713ZM127.889 105.264L115.049 89.5713L109.631 94.004L122.471 109.697L127.889 105.264ZM129.473 109.038C129.532 107.858 129.094 106.961 128.76 106.426C128.479 105.975 128.102 105.524 127.889 105.264L122.471 109.697C122.615 109.873 122.705 109.983 122.775 110.073C122.846 110.164 122.846 110.171 122.82 110.129C122.792 110.085 122.695 109.923 122.611 109.668C122.52 109.389 122.464 109.054 122.482 108.689L129.473 109.038ZM127.521 112.636C127.759 112.398 128.179 111.987 128.504 111.567C128.889 111.068 129.414 110.219 129.473 109.038L122.482 108.689C122.5 108.325 122.589 107.997 122.708 107.729C122.816 107.484 122.93 107.332 122.962 107.29C122.992 107.251 122.991 107.258 122.911 107.342C122.832 107.425 122.732 107.525 122.571 107.686L127.521 112.636ZM112.639 127.518L127.521 112.636L122.571 107.686L107.689 122.568L112.639 127.518ZM109.041 129.471C110.221 129.412 111.07 128.886 111.57 128.501C111.99 128.177 112.401 127.756 112.639 127.518L107.689 122.568C107.528 122.729 107.428 122.829 107.345 122.908C107.261 122.988 107.254 122.989 107.293 122.959C107.335 122.927 107.486 122.814 107.731 122.705C108 122.587 108.327 122.497 108.692 122.479L109.041 129.471ZM105.267 127.886C105.527 128.099 105.978 128.477 106.428 128.757C106.963 129.091 107.86 129.529 109.041 129.471L108.692 122.479C109.057 122.461 109.392 122.517 109.671 122.609C109.925 122.692 110.088 122.79 110.132 122.818C110.174 122.844 110.167 122.843 110.076 122.772C109.985 122.702 109.876 122.612 109.699 122.468L105.267 127.886ZM105.542 128.089L105.542 128.089L109.425 122.265L109.424 122.265L105.542 128.089ZM89.5717 115.044L105.267 127.886L109.699 122.468L94.0043 109.627L89.5717 115.044ZM90.6687 114.239C90.4035 114.349 90.1141 114.42 89.8135 114.443C89.5173 114.467 89.2587 114.439 89.0535 114.397C88.8537 114.355 88.7067 114.299 88.6222 114.262C88.5787 114.243 88.5463 114.227 88.526 114.217C88.5057 114.206 88.4944 114.199 88.4932 114.199C88.4929 114.198 88.5178 114.213 88.5745 114.254C88.6305 114.293 88.7041 114.348 88.8014 114.423C89.0042 114.581 89.2432 114.776 89.5717 115.045L94.0043 109.627C93.4611 109.182 92.748 108.587 92.0858 108.191C91.4192 107.792 89.8424 107.004 87.9899 107.772L90.6687 114.239ZM92.0141 114.033C92.0563 113.611 92.0873 113.304 92.1195 113.049C92.135 112.927 92.1485 112.836 92.16 112.768C92.1717 112.7 92.1787 112.672 92.1786 112.672C92.1782 112.673 92.175 112.686 92.1682 112.708C92.1613 112.73 92.1498 112.764 92.1324 112.808C92.0986 112.894 92.0342 113.038 91.9224 113.208C91.8076 113.384 91.6439 113.586 91.4181 113.779C91.189 113.975 90.9339 114.129 90.6687 114.239L87.9899 107.772C86.1375 108.539 85.5796 110.211 85.3901 110.964C85.2019 111.713 85.1187 112.638 85.0488 113.336L92.0141 114.033ZM89.996 134.214L92.0141 114.033L85.0488 113.336L83.0307 133.517L89.996 134.214ZM88.4478 138.003C89.3242 137.21 89.6485 136.266 89.7909 135.652C89.9108 135.135 89.9625 134.549 89.996 134.214L83.0307 133.517C83.0081 133.744 82.9938 133.885 82.9796 133.998C82.9653 134.113 82.9607 134.118 82.9718 134.07C82.9837 134.019 83.0293 133.836 83.1503 133.597C83.283 133.335 83.48 133.058 83.7508 132.813L88.4478 138.003ZM84.5233 139.167C84.8598 139.167 85.4478 139.174 85.9741 139.106C86.5995 139.025 87.5713 138.796 88.4478 138.003L83.7508 132.813C84.0215 132.568 84.3164 132.4 84.5901 132.294C84.84 132.197 85.0273 132.17 85.0793 132.163C85.1283 132.157 85.1225 132.161 85.007 132.164C84.8926 132.166 84.7508 132.167 84.5233 132.167V139.167ZM63.4766 139.167H84.5233V132.167H63.4766V139.167ZM59.5521 138.003C60.4285 138.796 61.4004 139.025 62.0257 139.106C62.552 139.174 63.14 139.167 63.4766 139.167V132.167C63.249 132.167 63.1072 132.166 62.9929 132.164C62.8774 132.161 62.8716 132.157 62.9205 132.163C62.9725 132.17 63.1599 132.197 63.4097 132.294C63.6835 132.4 63.9783 132.568 64.2491 132.813L59.5521 138.003ZM58.0039 134.214C58.0373 134.549 58.0891 135.135 58.2089 135.652C58.3514 136.266 58.6756 137.21 59.5521 138.003L64.2491 132.813C64.5198 133.058 64.7168 133.335 64.8495 133.597C64.9706 133.836 65.0162 134.019 65.028 134.07C65.0392 134.118 65.0345 134.113 65.0202 133.998C65.0061 133.885 64.9918 133.744 64.9691 133.517L58.0039 134.214ZM55.986 114.035L58.0039 134.214L64.9691 133.517L62.9512 113.339L55.986 114.035ZM57.3314 114.241C57.0662 114.131 56.8111 113.977 56.582 113.781C56.3562 113.588 56.1925 113.386 56.0777 113.211C55.9659 113.04 55.9015 112.896 55.8677 112.811C55.8502 112.767 55.8387 112.732 55.8319 112.71C55.8251 112.689 55.8218 112.676 55.8215 112.675C55.8214 112.674 55.8284 112.702 55.8401 112.771C55.8516 112.839 55.8651 112.929 55.8805 113.051C55.9128 113.306 55.9438 113.613 55.986 114.035L62.9512 113.339C62.8814 112.64 62.7982 111.715 62.61 110.967C62.4205 110.214 61.8626 108.541 60.0102 107.774L57.3314 114.241ZM58.4284 115.047C58.7569 114.778 58.9958 114.583 59.1986 114.426C59.2959 114.35 59.3696 114.296 59.4256 114.256C59.4823 114.216 59.5072 114.201 59.5069 114.201C59.5056 114.202 59.4944 114.208 59.4741 114.219C59.4538 114.23 59.4214 114.246 59.3779 114.265C59.2934 114.301 59.1464 114.357 58.9466 114.399C58.7414 114.442 58.4827 114.469 58.1865 114.446C57.886 114.422 57.5966 114.351 57.3314 114.241L60.0102 107.774C58.1577 107.007 56.5809 107.795 55.9143 108.193C55.2521 108.589 54.539 109.185 53.9957 109.629L58.4284 115.047ZM42.7329 127.889L58.4284 115.047L53.9957 109.629L38.3002 122.471L42.7329 127.889ZM38.9587 129.473C40.1394 129.532 41.0363 129.094 41.5714 128.76C42.0217 128.479 42.4725 128.102 42.7329 127.889L38.3002 122.471C38.1241 122.615 38.0143 122.705 37.924 122.775C37.8328 122.846 37.8257 122.846 37.8676 122.82C37.9121 122.793 38.0743 122.695 38.3288 122.612C38.6078 122.52 38.9428 122.464 39.3075 122.482L38.9587 129.473ZM35.361 127.521C35.599 127.759 36.0099 128.18 36.43 128.504C36.9292 128.889 37.7781 129.414 38.9587 129.473L39.3075 122.482C39.6721 122.5 39.9998 122.59 40.2683 122.708C40.5133 122.817 40.665 122.93 40.7065 122.962C40.7456 122.992 40.7386 122.991 40.6549 122.911C40.5721 122.832 40.4717 122.732 40.3108 122.571L35.361 127.521ZM20.4787 112.639L35.361 127.521L40.3108 122.571L25.4285 107.689L20.4787 112.639ZM18.5264 109.041C18.5853 110.222 19.1108 111.07 19.496 111.57C19.8202 111.99 20.2408 112.401 20.4787 112.639L25.4285 107.689C25.2676 107.528 25.1675 107.428 25.0886 107.345C25.0089 107.261 25.0077 107.254 25.0378 107.293C25.0699 107.335 25.1832 107.486 25.2915 107.731C25.4102 108 25.4995 108.328 25.5177 108.692L18.5264 109.041ZM20.1111 105.267C19.898 105.527 19.5204 105.978 19.2396 106.428C18.9059 106.963 18.4675 107.86 18.5264 109.041L25.5177 108.692C25.5359 109.057 25.4796 109.392 25.3882 109.671C25.3049 109.925 25.2072 110.088 25.1794 110.132C25.1533 110.174 25.1538 110.167 25.2248 110.076C25.295 109.985 25.3847 109.876 25.5288 109.7L20.1111 105.267ZM32.9527 89.5715L20.1111 105.267L25.5288 109.7L38.3704 94.0042L32.9527 89.5715ZM33.7583 90.6685C33.6485 90.4033 33.5771 90.1139 33.5537 89.8134C33.5306 89.5172 33.5578 89.2585 33.6005 89.0533C33.6422 88.8536 33.6982 88.7065 33.7348 88.622C33.7537 88.5785 33.7699 88.5461 33.7805 88.5258C33.7911 88.5055 33.7978 88.4943 33.7985 88.4931C33.7988 88.4927 33.7837 88.5176 33.7436 88.5743C33.7039 88.6303 33.6492 88.704 33.5738 88.8013C33.4166 89.0041 33.2214 89.2431 32.9527 89.5715L38.3704 94.0042C38.8149 93.4609 39.4103 92.7478 39.8063 92.0856C40.2049 91.419 40.9928 89.8422 40.2255 87.9898L33.7583 90.6685ZM33.9644 92.0139C34.3866 92.0562 34.6937 92.0871 34.9482 92.1194C35.0703 92.1349 35.1611 92.1483 35.2287 92.1598C35.2972 92.1715 35.3255 92.1785 35.3251 92.1784C35.3237 92.1781 35.311 92.1749 35.2891 92.168C35.2673 92.1612 35.233 92.1497 35.1888 92.1323C35.1032 92.0984 34.9596 92.0341 34.7889 91.9222C34.6135 91.8074 34.4115 91.6437 34.2183 91.4179C34.0224 91.1889 33.8682 90.9338 33.7583 90.6686L40.2255 87.9898C39.4582 86.1373 37.7861 85.5794 37.0329 85.39C36.2846 85.2017 35.3593 85.1185 34.6609 85.0487L33.9644 92.0139ZM13.786 89.9961L33.9644 92.0139L34.6609 85.0487L14.4825 83.0308L13.786 89.9961ZM14.1342 90.0135H14.1342V83.0135H14.1342V90.0135ZM9.99674 88.4479C10.7899 89.3243 11.7342 89.6486 12.3484 89.791C12.8653 89.9109 13.4511 89.9626 13.7859 89.9961L14.4825 83.0308C14.2561 83.0082 14.115 82.9939 14.0015 82.9797C13.8869 82.9654 13.8815 82.9608 13.9296 82.9719C13.9807 82.9838 14.1644 83.0294 14.4034 83.1504C14.6652 83.2831 14.9419 83.4801 15.1869 83.7508L9.99674 88.4479ZM8.83325 84.5234C8.83325 84.8599 8.82645 85.4479 8.89428 85.9742C8.97488 86.5996 9.20354 87.5715 9.99672 88.4479L15.1869 83.7509C15.4319 84.0216 15.6004 84.3165 15.7064 84.5902C15.8031 84.8401 15.8302 85.0274 15.8369 85.0795C15.8432 85.1284 15.8391 85.1226 15.8363 85.0071C15.8335 84.8927 15.8333 84.751 15.8333 84.5234H8.83325ZM8.83325 63.4767V84.5234H15.8333V63.4767H8.83325ZM9.99673 59.5522C9.20354 60.4286 8.97488 61.4005 8.89428 62.0259C8.82645 62.5521 8.83325 63.1401 8.83325 63.4767H15.8333C15.8333 63.2491 15.8335 63.1073 15.8363 62.993C15.8391 62.8775 15.8432 62.8717 15.8369 62.9206C15.8302 62.9727 15.8031 63.16 15.7064 63.4098C15.6004 63.6836 15.4319 63.9785 15.1869 64.2492L9.99673 59.5522ZM13.7859 58.004C13.4511 58.0375 12.8653 58.0892 12.3484 58.2091C11.7341 58.3515 10.7899 58.6757 9.99671 59.5522L15.1869 64.2492C14.9419 64.5199 14.6653 64.7169 14.4034 64.8496C14.1644 64.9707 13.9807 65.0163 13.9296 65.0281C13.8815 65.0393 13.8869 65.0346 14.0015 65.0203C14.115 65.0062 14.2561 64.9919 14.4825 64.9692L13.7859 58.004ZM14.1342 57.9866H14.1342V64.9866H14.1342V57.9866ZM33.9667 55.9859L13.786 58.004L14.4825 64.9692L34.6632 62.9512L33.9667 55.9859ZM33.7606 57.3313C33.8705 57.0661 34.0247 56.811 34.2207 56.5819C34.4138 56.3561 34.6159 56.1924 34.7912 56.0776C34.9619 55.9658 35.1055 55.9014 35.1911 55.8676C35.2353 55.8502 35.2696 55.8387 35.2915 55.8318C35.3134 55.825 35.326 55.8218 35.3274 55.8214C35.3278 55.8213 35.2995 55.8283 35.231 55.84C35.1634 55.8516 35.0727 55.865 34.9505 55.8805C34.696 55.9127 34.389 55.9437 33.9667 55.9859L34.6632 62.9512C35.3617 62.8813 36.287 62.7981 37.0352 62.6099C37.7884 62.4204 39.4605 61.8625 40.2278 60.0101L33.7606 57.3313ZM32.955 58.4283C33.2237 58.7568 33.4189 58.9958 33.5761 59.1986C33.6515 59.2959 33.7062 59.3695 33.7459 59.4255C33.786 59.4822 33.8011 59.5072 33.8009 59.5068C33.8001 59.5056 33.7934 59.4944 33.7828 59.474C33.7722 59.4538 33.7561 59.4214 33.7372 59.3778C33.7005 59.2933 33.6445 59.1463 33.6029 58.9465C33.5601 58.7413 33.5329 58.4827 33.556 58.1865C33.5795 57.8859 33.6508 57.5965 33.7606 57.3313L40.2278 60.0101C40.9951 58.1576 40.2072 56.5808 39.8086 55.9142C39.4127 55.252 38.8172 54.5389 38.3727 53.9957L32.955 58.4283ZM20.1113 42.7305L32.955 58.4283L38.3727 53.9957L25.529 38.2979L20.1113 42.7305ZM18.5267 38.9564C18.4678 40.137 18.9062 41.0339 19.2399 41.569C19.5206 42.0193 19.8982 42.4701 20.1113 42.7305L25.529 38.2979C25.3849 38.1217 25.2953 38.0119 25.2251 37.9216C25.1541 37.8304 25.1536 37.8233 25.1797 37.8652C25.2075 37.9097 25.3052 38.0719 25.3885 38.3265C25.4799 38.6055 25.5362 38.9404 25.518 39.3051L18.5267 38.9564ZM20.479 35.3586C20.2411 35.5966 19.8205 36.0076 19.4963 36.4277C19.1111 36.9269 18.5856 37.7758 18.5267 38.9564L25.518 39.3051C25.4998 39.6697 25.4105 39.9974 25.2918 40.2659C25.1835 40.5109 25.0702 40.6626 25.0381 40.7041C25.008 40.7432 25.0092 40.7362 25.0889 40.6525C25.1678 40.5697 25.2679 40.4693 25.4288 40.3084L20.479 35.3586ZM35.3613 20.4764L20.479 35.3586L25.4288 40.3084L40.3111 25.4261L35.3613 20.4764ZM38.959 18.524C37.7784 18.5829 36.9295 19.1084 36.4303 19.4936C36.0102 19.8178 35.5993 20.2384 35.3613 20.4763L40.311 25.4261C40.472 25.2652 40.5724 25.1651 40.6552 25.0862C40.7388 25.0065 40.7459 25.0053 40.7068 25.0355C40.6653 25.0675 40.5136 25.1808 40.2686 25.2891C40.0001 25.4078 39.6724 25.4971 39.3077 25.5153L38.959 18.524ZM42.7332 20.1087C42.4727 19.8956 42.022 19.518 41.5717 19.2372C41.0366 18.9036 40.1396 18.4651 38.959 18.524L39.3077 25.5153C38.9431 25.5335 38.6081 25.4772 38.3291 25.3858C38.0746 25.3025 37.9124 25.2048 37.8679 25.1771C37.826 25.1509 37.8331 25.1515 37.9243 25.2224C38.0145 25.2927 38.1244 25.3823 38.3005 25.5264L42.7332 20.1087ZM58.4287 32.9504L42.7332 20.1087L38.3005 25.5264L53.996 38.3681L58.4287 32.9504ZM57.3317 33.7561C57.5969 33.6462 57.8863 33.5749 58.1868 33.5515C58.483 33.5284 58.7417 33.5555 58.9469 33.5983C59.1466 33.64 59.2937 33.6959 59.3782 33.7326C59.4217 33.7515 59.4541 33.7676 59.4744 33.7782C59.4947 33.7889 59.5059 33.7956 59.5071 33.7963C59.5075 33.7965 59.4826 33.7815 59.4259 33.7413C59.3699 33.7016 59.2962 33.647 59.1989 33.5716C58.9961 33.4144 58.7571 33.2192 58.4287 32.9504L53.996 38.3681C54.5393 38.8126 55.2524 39.4081 55.9146 39.8041C56.5811 40.2027 58.158 40.9905 60.0104 40.2232L57.3317 33.7561ZM55.9863 33.9621C55.944 34.3844 55.9131 34.6914 55.8808 34.946C55.8653 35.0681 55.8519 35.1588 55.8404 35.2265C55.8287 35.295 55.8217 35.3232 55.8218 35.3228C55.8221 35.3214 55.8253 35.3088 55.8322 35.2869C55.839 35.2651 55.8505 35.2307 55.8679 35.1866C55.9018 35.1009 55.9661 34.9574 56.078 34.7866C56.1928 34.6113 56.3565 34.4092 56.5823 34.2161C56.8113 34.0201 57.0664 33.8659 57.3317 33.7561L60.0104 40.2232C61.8629 39.4559 62.4208 37.7838 62.6103 37.0306C62.7985 36.2824 62.8817 35.3571 62.9515 34.6586L55.9863 33.9621ZM58.0039 13.7861L55.9863 33.9621L62.9515 34.6586L64.9691 14.4826L58.0039 13.7861ZM59.552 9.99684C58.6756 10.79 58.3514 11.7343 58.2089 12.3486C58.0891 12.8655 58.0373 13.4512 58.0039 13.7861L64.9691 14.4826C64.9918 14.2562 65.0061 14.1152 65.0202 14.0016C65.0345 13.887 65.0392 13.8816 65.028 13.9297C65.0162 13.9808 64.9706 14.1645 64.8495 14.4035C64.7168 14.6654 64.5198 14.942 64.2491 15.187L59.552 9.99684ZM63.4766 8.83337C63.14 8.83337 62.552 8.82657 62.0257 8.8944C61.4004 8.975 60.4285 9.20366 59.5521 9.99683L64.2491 15.187C63.9784 15.432 63.6835 15.6005 63.4097 15.7065C63.1599 15.8032 62.9725 15.8303 62.9205 15.837C62.8716 15.8433 62.8774 15.8392 62.9929 15.8364C63.1072 15.8336 63.249 15.8334 63.4766 15.8334V8.83337ZM84.5233 8.83337H63.4766V15.8334H84.5233V8.83337ZM88.4478 9.99684C87.5713 9.20366 86.5995 8.975 85.9741 8.8944C85.4478 8.82657 84.8598 8.83337 84.5233 8.83337V15.8334C84.7508 15.8334 84.8926 15.8336 85.007 15.8364C85.1225 15.8392 85.1283 15.8433 85.0793 15.837C85.0273 15.8303 84.8399 15.8032 84.5901 15.7065C84.3163 15.6005 84.0215 15.432 83.7507 15.187L88.4478 9.99684ZM95.1666 74C95.1666 85.6901 85.6899 95.1667 73.9999 95.1667V102.167C89.5559 102.167 102.167 89.5561 102.167 74H95.1666ZM73.9999 52.8334C85.6899 52.8334 95.1666 62.31 95.1666 74H102.167C102.167 58.444 89.5559 45.8334 73.9999 45.8334V52.8334ZM52.8333 74C52.8333 62.31 62.3099 52.8334 73.9999 52.8334V45.8334C58.4439 45.8334 45.8333 58.444 45.8333 74H52.8333ZM73.9999 95.1667C62.3099 95.1667 52.8333 85.6901 52.8333 74H45.8333C45.8333 89.5561 58.4439 102.167 73.9999 102.167V95.1667Z" fill="#23B0C2"/>
</svg>
